CrickxSharkDroite.sfdir

StartChar: exclam
Encoding: 33 33 22
Width: 341
Flags: W
LayerCount: 2
Fore
SplineSet
187 134 m 1,0,-1
 187 0 l 1,1,-1
 47 0 l 1,2,-1
 50 134 l 1,3,-1
 187 134 l 1,0,-1
190 666 m 1,4,-1
 190 185 l 1,5,-1
 47 185 l 1,6,-1
 49 666 l 1,7,-1
 190 666 l 1,4,-1
EndSplineSet
EndChar

StartChar: quotedbl
Encoding: 34 34 23
Width: 467
Flags: W
LayerCount: 2
Fore
SplineSet
223 383 m 1,0,-1
 226 505 l 1,1,-1
 169 505 l 1,2,-1
 157 666 l 1,3,-1
 314 665 l 1,4,-1
 307 384 l 1,5,-1
 223 383 l 1,0,-1
36 383 m 1,6,-1
 36 505 l 1,7,-1
 -21 505 l 1,8,-1
 -33 666 l 1,9,-1
 124 666 l 1,10,-1
 117 384 l 1,11,-1
 36 383 l 1,6,-1
EndSplineSet
EndChar

StartChar: numbersign
Encoding: 35 35 24
Width: 640
Flags: W
LayerCount: 2
Fore
SplineSet
507 387 m 1,0,-1
 506 273 l 1,1,-1
 242 273 l 1,2,-1
 242 203 l 1,3,-1
 313 203 l 1,4,-1
 312 267 l 1,5,-1
 436 266 l 1,6,-1
 435 203 l 1,7,-1
 506 203 l 1,8,-1
 505 86 l 1,9,-1
 434 86 l 1,10,-1
 434 1 l 1,11,-1
 310 1 l 1,12,-1
 311 86 l 1,13,-1
 239 86 l 1,14,-1
 240 1 l 1,15,-1
 116 1 l 1,16,-1
 117 86 l 1,17,-1
 42 86 l 1,18,-1
 44 203 l 1,19,-1
 120 203 l 1,20,-1
 119 273 l 1,21,-1
 42 273 l 1,22,-1
 43 387 l 1,23,-1
 119 387 l 1,24,-1
 119 470 l 1,25,-1
 242 470 l 1,26,-1
 242 387 l 1,27,-1
 315 387 l 1,28,-1
 313 470 l 1,29,-1
 437 470 l 1,30,-1
 437 387 l 1,31,-1
 507 387 l 1,0,-1
EndSplineSet
EndChar

StartChar: dollar
Encoding: 36 36 25
Width: 495
Flags: W
LayerCount: 2
Fore
SplineSet
128 8 m 1,0,1
 79 21 79 21 51.5 43.5 c 128,-1,2
 24 66 24 66 23 80 c 0,3,4
 23 89 23 89 23 107 c 0,5,6
 22 122 22 122 22 148 c 0,7,8
 22 153 22 153 22 160 c 0,9,10
 22 184 22 184 24 217 c 1,11,-1
 149 218 l 1,12,13
 148 208 148 208 148 201.5 c 128,-1,14
 148 195 148 195 148 190 c 128,-1,15
 148 185 148 185 148 181 c 0,16,17
 150 169 150 169 159.5 155.5 c 128,-1,18
 169 142 169 142 193 142 c 0,19,20
 212 142 212 142 221 152 c 128,-1,21
 230 162 230 162 233.5 176 c 128,-1,22
 237 190 237 190 236 205.5 c 128,-1,23
 235 221 235 221 235 232 c 0,24,25
 234 244 234 244 219 257.5 c 128,-1,26
 204 271 204 271 181 285.5 c 128,-1,27
 158 300 158 300 131.5 315.5 c 128,-1,28
 105 331 105 331 82.5 346 c 128,-1,29
 60 361 60 361 44.5 376 c 128,-1,30
 29 391 29 391 30 405 c 1,31,32
 29 437 29 437 28 464 c 0,33,34
 28 468 28 468 28 473 c 0,35,36
 28 496 28 496 32 524 c 0,37,38
 35 543 35 543 44 559.5 c 128,-1,39
 53 576 53 576 67 589 c 128,-1,40
 81 602 81 602 97.5 611.5 c 128,-1,41
 114 621 114 621 131 628 c 1,42,-1
 129 716 l 1,43,-1
 271 716 l 1,44,-1
 270 633 l 1,45,46
 303 622 303 622 330.5 600.5 c 128,-1,47
 358 579 358 579 371 547 c 0,48,49
 374 537 374 537 377 522 c 0,50,51
 380 509 380 509 383 489.5 c 128,-1,52
 386 470 386 470 387 444 c 1,53,-1
 265 445 l 1,54,55
 263 479 263 479 247.5 490.5 c 128,-1,56
 232 502 232 502 209 502 c 0,57,58
 191 502 191 502 180.5 496 c 128,-1,59
 170 490 170 490 165.5 481 c 128,-1,60
 161 472 161 472 160.5 462.5 c 128,-1,61
 160 453 160 453 160 447 c 0,62,63
 160 427 160 427 176 412 c 128,-1,64
 192 397 192 397 215.5 383.5 c 128,-1,65
 239 370 239 370 268 355.5 c 128,-1,66
 297 341 297 341 322.5 323.5 c 128,-1,67
 348 306 348 306 366.5 282 c 128,-1,68
 385 258 385 258 389 226 c 1,69,70
 389 194 389 194 387.5 162.5 c 128,-1,71
 386 131 386 131 382 97 c 0,72,73
 379 74 379 74 348.5 48 c 128,-1,74
 318 22 318 22 268 8 c 1,75,-1
 268 -69 l 1,76,-1
 128 -69 l 1,77,-1
 128 8 l 1,0,1
EndSplineSet
EndChar

StartChar: percent
Encoding: 37 37 26
Width: 630
Flags: W
LayerCount: 2
Fore
SplineSet
374 672 m 1,0,-1
 495 608 l 1,1,-1
 321 241 l 1,2,-1
 388 130 l 1,3,4
 386 129 386 129 386 127 c 0,5,6
 385 123 385 123 385 118 c 0,7,8
 387 108 387 108 396 99 c 128,-1,9
 405 90 405 90 418 90 c 0,10,11
 430 90 430 90 436 100.5 c 128,-1,12
 442 111 442 111 441 118 c 0,13,14
 439 128 439 128 431.5 136.5 c 128,-1,15
 424 145 424 145 412 145 c 0,16,17
 407 145 407 145 403.5 143.5 c 128,-1,18
 400 142 400 142 398 140 c 0,19,20
 395 138 395 138 393 136 c 1,21,-1
 329 245 l 1,22,23
 333 251 333 251 344 255 c 1,24,25
 351 259 351 259 365 262 c 128,-1,26
 379 265 379 265 401 265 c 0,27,28
 433 265 433 265 459.5 252.5 c 128,-1,29
 486 240 486 240 505.5 219.5 c 128,-1,30
 525 199 525 199 537.5 174 c 128,-1,31
 550 149 550 149 554 125 c 0,32,33
 555 117 555 117 555 108 c 0,34,35
 554 95 554 95 552 80 c 0,36,37
 548 56 548 56 534 35.5 c 128,-1,38
 520 15 520 15 494 1.5 c 128,-1,39
 468 -12 468 -12 429 -12 c 0,40,41
 381 -12 381 -12 348 8.5 c 128,-1,42
 315 29 315 29 295.5 55.5 c 128,-1,43
 276 82 276 82 267.5 107 c 128,-1,44
 259 132 259 132 260 140 c 1,45,-1
 169 -25 l 1,46,-1
 42 47 l 1,47,-1
 237 414 l 1,48,-1
 177 517 l 1,49,50
 182 518 182 518 185 522 c 0,51,52
 188 525 188 525 190 530.5 c 128,-1,53
 192 536 192 536 191 544 c 0,54,55
 189 556 189 556 180.5 563.5 c 128,-1,56
 172 571 172 571 161 571 c 128,-1,57
 150 571 150 571 142.5 564 c 128,-1,58
 135 557 135 557 137 544 c 0,59,60
 140 528 140 528 151 521.5 c 128,-1,61
 162 515 162 515 169 517 c 1,62,-1
 229 412 l 1,63,64
 221 406 221 406 209.5 401.5 c 128,-1,65
 198 397 198 397 186 397 c 0,66,67
 161 397 161 397 133 405.5 c 128,-1,68
 105 414 105 414 81 431.5 c 128,-1,69
 57 449 57 449 38.5 475.5 c 128,-1,70
 20 502 20 502 15 538 c 0,71,72
 13 552 13 552 13 565 c 0,73,74
 13 612 13 612 42 638 c 0,75,76
 79 672 79 672 145 672 c 0,77,78
 190 672 190 672 220 655.5 c 128,-1,79
 250 639 250 639 268.5 617 c 128,-1,80
 287 595 287 595 295 574 c 128,-1,81
 303 553 303 553 305 543 c 1,82,-1
 374 672 l 1,0,-1
EndSplineSet
EndChar

StartChar: ampersand
Encoding: 38 38 27
Width: 614
Flags: W
LayerCount: 2
Fore
SplineSet
230 420 m 1,0,1
 243 426 243 426 263 438.5 c 128,-1,2
 283 451 283 451 286 478 c 0,3,4
 286 482 286 482 285.5 488.5 c 128,-1,5
 285 495 285 495 281.5 501.5 c 128,-1,6
 278 508 278 508 270.5 513 c 128,-1,7
 263 518 263 518 250 518 c 0,8,9
 225 518 225 518 212 509 c 128,-1,10
 199 500 199 500 197 466 c 0,11,12
 197 455 197 455 208 435.5 c 128,-1,13
 219 416 219 416 234.5 395.5 c 128,-1,14
 250 375 250 375 265 357 c 128,-1,15
 280 339 280 339 287 332 c 0,16,17
 298 321 298 321 310.5 313 c 128,-1,18
 323 305 323 305 334 299 c 0,19,20
 346 292 346 292 359 287 c 1,21,-1
 463 376 l 1,22,-1
 485 272 l 1,23,-1
 454 222 l 1,24,-1
 519 192 l 1,25,-1
 530 89 l 1,26,27
 512 94 512 94 490.5 101 c 128,-1,28
 469 108 469 108 450 115 c 0,29,30
 428 123 428 123 404 132 c 1,31,32
 394 118 394 118 378.5 95.5 c 128,-1,33
 363 73 363 73 340.5 51.5 c 128,-1,34
 318 30 318 30 287 14.5 c 128,-1,35
 256 -1 256 -1 215 -1 c 0,36,37
 179 -1 179 -1 141.5 7.5 c 128,-1,38
 104 16 104 16 74 36.5 c 0,39,40
 44 58 44 58 25 92 c 0,41,42
 7 125 7 125 7 172 c 0,43,44
 7 175 7 175 7 177 c 0,45,46
 8 237 8 237 20 273 c 128,-1,47
 32 309 32 309 47 329 c 0,48,49
 63 352 63 352 86 362 c 1,50,51
 94 351 94 351 105 336.5 c 128,-1,52
 116 322 116 322 129.5 306.5 c 128,-1,53
 143 291 143 291 158 276 c 128,-1,54
 173 261 173 261 186 251 c 1,55,56
 175 235 175 235 174 206 c 0,57,58
 174 202 174 202 176.5 195.5 c 128,-1,59
 179 189 179 189 184.5 183 c 128,-1,60
 190 177 190 177 198 173 c 128,-1,61
 206 169 206 169 218 169 c 0,62,63
 244 169 244 169 254.5 179 c 128,-1,64
 265 189 265 189 274 200 c 1,65,66
 262 205 262 205 248 215 c 0,67,68
 236 223 236 223 218.5 236 c 128,-1,69
 201 249 201 249 180 268 c 1,70,71
 158 286 158 286 135 312.5 c 128,-1,72
 112 339 112 339 93 364.5 c 128,-1,73
 74 390 74 390 61.5 411.5 c 128,-1,74
 49 433 49 433 48 442 c 0,75,76
 47 450 47 450 47 461 c 0,77,78
 46 474 46 474 48 490 c 0,79,80
 52 522 52 522 54 563 c 0,81,82
 55 588 55 588 72 607 c 128,-1,83
 89 626 89 626 112.5 639.5 c 128,-1,84
 136 653 136 653 162 660 c 128,-1,85
 188 667 188 667 208 667 c 0,86,87
 241 667 241 667 271 658 c 128,-1,88
 301 649 301 649 323.5 635.5 c 128,-1,89
 346 622 346 622 360.5 606 c 128,-1,90
 375 590 375 590 377 575 c 0,91,92
 380 559 380 559 382 536 c 0,93,94
 383 524 383 524 383 508 c 128,-1,95
 383 492 383 492 382 472 c 0,96,97
 381 445 381 445 367 420.5 c 128,-1,98
 353 396 353 396 336 377 c 0,99,100
 316 355 316 355 292 337 c 1,101,102
 279 350 279 350 259.5 375 c 128,-1,103
 240 400 240 400 230 420 c 1,0,1
EndSplineSet
EndChar

StartChar: quotesingle
Encoding: 39 39 28
Width: 269
Flags: W
LayerCount: 2
Fore
SplineSet
31 383 m 1,0,-1
 31 505 l 1,1,-1
 -21 505 l 1,2,-1
 -37 666 l 1,3,-1
 124 666 l 1,4,-1
 117 384 l 1,5,-1
 31 383 l 1,0,-1
EndSplineSet
EndChar

StartChar: parenleft
Encoding: 40 40 29
Width: 316
Flags: W
LayerCount: 2
Fore
SplineSet
234 595 m 1,0,1
 196 586 196 586 171.5 550 c 128,-1,2
 147 514 147 514 133 467.5 c 0,3,4
 120 421 120 421 116 373 c 0,5,6
 115 353 115 353 114 336 c 0,7,8
 114 311 114 311 117 292 c 0,9,10
 121 265 121 265 129.5 235 c 128,-1,11
 138 205 138 205 151 176.5 c 128,-1,12
 164 148 164 148 182.5 122.5 c 128,-1,13
 201 97 201 97 225 81 c 1,14,-1
 226 -60 l 1,15,16
 171 -38 171 -38 128 0 c 128,-1,17
 85 38 85 38 54 85.5 c 128,-1,18
 23 133 23 133 4.5 186 c 128,-1,19
 -14 239 -14 239 -22 292 c 0,20,21
 -27 328 -27 328 -27 366 c 0,22,23
 -27 378 -27 378 -27 388 c 0,24,25
 -25 438 -25 438 -13.5 486 c 128,-1,26
 -2 534 -2 534 19 578 c 128,-1,27
 40 622 40 622 70.5 657 c 128,-1,28
 101 692 101 692 141.5 715.5 c 128,-1,29
 182 739 182 739 233 746 c 1,30,-1
 234 595 l 1,0,1
EndSplineSet
EndChar

StartChar: parenright
Encoding: 41 41 30
Width: 372
Flags: W
LayerCount: 2
Fore
SplineSet
34 91 m 1,0,1
 72 100 72 100 96.5 136 c 128,-1,2
 121 172 121 172 134.5 218.5 c 128,-1,3
 148 265 148 265 152 313 c 0,4,5
 154 334 154 334 154 353 c 0,6,7
 154 376 154 376 151 394 c 0,8,9
 147 421 147 421 138.5 451 c 128,-1,10
 130 481 130 481 117 509.5 c 128,-1,11
 104 538 104 538 85.5 563 c 128,-1,12
 67 588 67 588 42 605 c 1,13,-1
 42 746 l 1,14,15
 97 724 97 724 139.5 686 c 128,-1,16
 182 648 182 648 213 600.5 c 128,-1,17
 244 553 244 553 262.5 499.5 c 128,-1,18
 281 446 281 446 290 394 c 0,19,20
 295 358 295 358 295 320 c 0,21,22
 295 308 295 308 295 298 c 0,23,24
 293 248 293 248 281 200 c 128,-1,25
 269 152 269 152 248 108 c 128,-1,26
 227 64 227 64 196 29 c 128,-1,27
 165 -6 165 -6 124.5 -29.5 c 128,-1,28
 84 -53 84 -53 34 -60 c 1,29,-1
 34 91 l 1,0,1
EndSplineSet
EndChar

StartChar: asterisk
Encoding: 42 42 31
Width: 544
Flags: W
LayerCount: 2
Fore
SplineSet
144 256 m 1,0,-1
 82 335 l 1,1,-1
 172 395 l 1,2,-1
 244 305 l 1,3,-1
 299 397 l 1,4,-1
 401 329 l 1,5,-1
 356 261 l 1,6,-1
 446 262 l 1,7,-1
 446 154 l 1,8,-1
 366 154 l 1,9,-1
 414 88 l 1,10,-1
 329 17 l 1,11,-1
 262 109 l 1,12,-1
 211 18 l 1,13,-1
 106 86 l 1,14,-1
 149 148 l 1,15,16
 129 148 129 148 112.5 148 c 128,-1,17
 96 148 96 148 82 148 c 0,18,19
 56 149 56 149 56 148 c 0,20,21
 55 147 55 147 55 164.5 c 128,-1,22
 55 182 55 182 56 202 c 1,23,24
 56 226 56 226 56 256 c 1,25,-1
 144 256 l 1,0,-1
EndSplineSet
EndChar

StartChar: plus
Encoding: 43 43 32
Width: 466
Flags: W
LayerCount: 2
Fore
SplineSet
275 356 m 1,0,-1
 274 242 l 1,1,-1
 397 242 l 1,2,-1
 396 122 l 1,3,-1
 272 122 l 1,4,-1
 269 -1 l 1,5,-1
 142 0 l 1,6,-1
 144 120 l 1,7,-1
 13 120 l 1,8,-1
 13 239 l 1,9,-1
 146 239 l 1,10,-1
 148 356 l 1,11,-1
 275 356 l 1,0,-1
EndSplineSet
EndChar

StartChar: comma
Encoding: 44 44 33
Width: 292
Flags: W
LayerCount: 2
Fore
SplineSet
131 -118 m 1,0,-1
 136 0 l 1,1,-1
 48 0 l 1,2,-1
 51 158 l 1,3,-1
 200 158 l 1,4,5
 206 126 206 126 210 95 c 0,6,7
 214 68 214 68 216 40 c 0,8,9
 218 20 218 20 217 4 c 0,10,11
 217 -2 217 -2 217 -8 c 0,12,13
 217 -25 217 -25 215 -37 c 128,-1,14
 213 -49 213 -49 210 -60.5 c 128,-1,15
 207 -72 207 -72 203.5 -85 c 128,-1,16
 200 -98 200 -98 196 -117 c 1,17,-1
 131 -118 l 1,0,-1
EndSplineSet
EndChar

StartChar: hyphen
Encoding: 45 45 34
AltUni2: 0000ad.ffffffff.0 0000ad.ffffffff.0
Width: 348
Flags: W
LayerCount: 2
Fore
SplineSet
22 241 m 1,0,-1
 267 241 l 1,1,-1
 267 108 l 1,2,-1
 22 108 l 1,3,-1
 22 241 l 1,0,-1
EndSplineSet
EndChar

StartChar: period
Encoding: 46 46 35
Width: 273
Flags: W
LayerCount: 2
Fore
SplineSet
209 147 m 1,0,-1
 208 0 l 1,1,-1
 50 0 l 1,2,-1
 50 147 l 1,3,-1
 209 147 l 1,0,-1
EndSplineSet
EndChar

StartChar: slash
Encoding: 47 47 36
Width: 514
Flags: W
LayerCount: 2
Fore
SplineSet
354 626 m 1,0,-1
 200 -23 l 1,1,-1
 46 27 l 1,2,-1
 204 675 l 1,3,-1
 354 626 l 1,0,-1
EndSplineSet
EndChar

StartChar: zero
Encoding: 48 48 37
Width: 497
Flags: W
LayerCount: 2
Fore
SplineSet
382 159 m 0,0,1
 381 144 381 144 379.5 130 c 128,-1,2
 378 116 378 116 373 105 c 1,3,4
 365 82 365 82 341 63 c 128,-1,5
 317 44 317 44 288.5 30 c 128,-1,6
 260 16 260 16 232.5 8 c 128,-1,7
 205 0 205 0 187 0 c 0,8,9
 163 0 163 0 132.5 9 c 128,-1,10
 102 18 102 18 74.5 34.5 c 128,-1,11
 47 51 47 51 27 75 c 128,-1,12
 7 99 7 99 4 129 c 1,13,-1
 -2 480 l 1,14,15
 8 540 8 540 35.5 576.5 c 128,-1,16
 63 613 63 613 97.5 633 c 128,-1,17
 132 653 132 653 167.5 659.5 c 128,-1,18
 203 666 203 666 229 666 c 1,19,-1
 229 482 l 1,20,21
 224 484 224 484 218.5 484.5 c 128,-1,22
 213 485 213 485 208 486 c 0,23,24
 202 487 202 487 196 488 c 1,25,26
 179 488 179 488 166 472.5 c 128,-1,27
 153 457 153 457 153 438 c 0,28,29
 152 432 152 432 152 414 c 0,30,31
 152 405 152 405 152 395 c 128,-1,32
 152 385 152 385 152 373 c 0,33,34
 152 349 152 349 152.5 322.5 c 128,-1,35
 153 296 153 296 153 273.5 c 128,-1,36
 153 251 153 251 153 235 c 128,-1,37
 153 219 153 219 154 217 c 0,38,39
 155 207 155 207 164.5 194 c 128,-1,40
 174 181 174 181 193 180 c 1,41,42
 203 181 203 181 212 184 c 0,43,44
 220 186 220 186 225 190 c 128,-1,45
 230 194 230 194 231 201 c 2,46,-1
 237 665 l 1,47,48
 261 665 261 665 286.5 655.5 c 128,-1,49
 312 646 312 646 333 628.5 c 128,-1,50
 354 611 354 611 369 587 c 128,-1,51
 384 563 384 563 385 534 c 0,52,53
 385 529 385 529 385.5 507 c 128,-1,54
 386 485 386 485 386 452.5 c 128,-1,55
 386 420 386 420 386 381 c 128,-1,56
 386 342 386 342 385.5 302 c 128,-1,57
 385 262 385 262 384.5 224.5 c 128,-1,58
 384 187 384 187 382 159 c 0,0,1
EndSplineSet
EndChar

StartChar: one
Encoding: 49 49 38
Width: 420
Flags: W
LayerCount: 2
Fore
SplineSet
80 1 m 1,0,-1
 98 442 l 1,1,-1
 -44 392 l 1,2,-1
 -31 534 l 1,3,-1
 122 666 l 1,4,-1
 277 666 l 1,5,-1
 264 0 l 1,6,-1
 80 1 l 1,0,-1
EndSplineSet
EndChar

StartChar: two
Encoding: 50 50 39
Width: 507
Flags: W
LayerCount: 2
Fore
SplineSet
366 341 m 0,0,1
 351 323 351 323 328.5 297 c 128,-1,2
 306 271 306 271 287 243 c 0,3,4
 268 214 268 214 255 187 c 0,5,6
 244 164 244 164 244 144 c 0,7,8
 244 141 244 141 244 138 c 1,9,-1
 400 139 l 1,10,-1
 396 0 l 1,11,-1
 15 0 l 1,12,13
 21 100 21 100 60 182 c 128,-1,14
 99 264 99 264 161 331 c 0,15,16
 173 345 173 345 193 361 c 128,-1,17
 213 377 213 377 232 395 c 0,18,19
 252 412 252 412 264 432 c 0,20,21
 274 448 274 448 274 466 c 0,22,23
 274 470 274 470 273 474 c 0,24,25
 271 484 271 484 264.5 492 c 128,-1,26
 258 500 258 500 249 505 c 128,-1,27
 240 510 240 510 231.5 513 c 128,-1,28
 223 516 223 516 218 516 c 0,29,30
 208 516 208 516 199 513.5 c 128,-1,31
 190 511 190 511 176 494 c 0,32,33
 176 493 176 493 167.5 478.5 c 128,-1,34
 159 464 159 464 152 432 c 1,35,-1
 24 505 l 1,36,37
 28 532 28 532 38.5 560.5 c 128,-1,38
 49 589 49 589 70.5 612.5 c 128,-1,39
 92 636 92 636 128 651 c 128,-1,40
 164 666 164 666 219 666 c 0,41,42
 250 666 250 666 282.5 656.5 c 128,-1,43
 315 647 315 647 343 626.5 c 128,-1,44
 371 606 371 606 391.5 573 c 128,-1,45
 412 540 412 540 420 494 c 0,46,47
 422 481 422 481 422 468 c 0,48,49
 422 438 422 438 410 412 c 0,50,51
 393 374 393 374 366 341 c 0,0,1
EndSplineSet
EndChar

StartChar: three
Encoding: 51 51 40
Width: 514
Flags: W
LayerCount: 2
Fore
SplineSet
304 444 m 1,0,1
 329 432 329 432 343.5 420 c 128,-1,2
 358 408 358 408 365 397 c 0,3,4
 373 385 373 385 375 373 c 1,5,6
 377 338 377 338 378 275 c 0,7,8
 378 259 378 259 378 243 c 0,9,10
 378 193 378 193 376 137 c 0,11,12
 373 65 373 65 325 32.5 c 128,-1,13
 277 0 277 0 173 0 c 0,14,15
 123 0 123 0 92.5 15.5 c 128,-1,16
 62 31 62 31 46 51.5 c 128,-1,17
 30 72 30 72 24.5 91 c 128,-1,18
 19 110 19 110 17 117 c 0,19,20
 16 123 16 123 16 136 c 0,21,22
 16 147 16 147 16 166 c 128,-1,23
 16 185 16 185 16 215 c 1,24,-1
 140 220 l 1,25,26
 140 216 140 216 140 213 c 0,27,28
 140 192 140 192 145 180 c 0,29,30
 151 167 151 167 159 162 c 128,-1,31
 167 157 167 157 175 157 c 128,-1,32
 183 157 183 157 191 157 c 0,33,34
 195 157 195 157 201.5 158.5 c 128,-1,35
 208 160 208 160 214 164.5 c 128,-1,36
 220 169 220 169 224.5 176 c 128,-1,37
 229 183 229 183 229 195 c 0,38,39
 229 209 229 209 230 224.5 c 128,-1,40
 231 240 231 240 232 254 c 0,41,42
 233 270 233 270 233 286 c 1,43,44
 232 292 232 292 229 300 c 128,-1,45
 226 308 226 308 219.5 315.5 c 128,-1,46
 213 323 213 323 203 328 c 128,-1,47
 193 333 193 333 179 333 c 0,48,49
 170 333 170 333 162 331 c 0,50,51
 144 328 144 328 127 316 c 1,52,-1
 25 396 l 1,53,-1
 161 521 l 1,54,-1
 15 520 l 1,55,-1
 11 666 l 1,56,-1
 368 666 l 1,57,-1
 370 520 l 1,58,-1
 304 444 l 1,0,1
EndSplineSet
EndChar

StartChar: four
Encoding: 52 52 41
Width: 543
Flags: W
LayerCount: 2
Fore
SplineSet
455 230 m 1,0,-1
 454 130 l 1,1,-1
 395 130 l 1,2,-1
 392 1 l 1,3,-1
 214 0 l 1,4,-1
 218 405 l 1,5,-1
 127 257 l 1,6,-1
 209 257 l 1,7,-1
 208 133 l 1,8,-1
 -17 133 l 1,9,-1
 -13 276 l 1,10,-1
 217 666 l 1,11,-1
 402 666 l 1,12,-1
 399 230 l 1,13,-1
 455 230 l 1,0,-1
EndSplineSet
EndChar

StartChar: five
Encoding: 53 53 42
Width: 504
Flags: W
LayerCount: 2
Fore
SplineSet
174 519 m 1,0,-1
 175 443 l 1,1,2
 188 450 188 450 210 454 c 0,3,4
 224 456 224 456 233 456 c 0,5,6
 239 456 239 456 244 455 c 0,7,8
 245 455 245 455 254.5 454 c 128,-1,9
 264 453 264 453 279 449 c 128,-1,10
 294 445 294 445 311 438 c 128,-1,11
 328 431 328 431 342 419.5 c 128,-1,12
 356 408 356 408 366 390.5 c 128,-1,13
 376 373 376 373 376 349 c 2,14,-1
 376 156 l 1,15,16
 377 114 377 114 360 84 c 128,-1,17
 343 54 343 54 314.5 35.5 c 128,-1,18
 286 17 286 17 248.5 8 c 128,-1,19
 211 -1 211 -1 169 -1 c 0,20,21
 167 -1 167 -1 144.5 3 c 128,-1,22
 122 7 122 7 94 18 c 128,-1,23
 66 29 66 29 41.5 48 c 128,-1,24
 17 67 17 67 13 97 c 0,25,26
 9 123 9 123 7.5 140.5 c 128,-1,27
 6 158 6 158 6 170.5 c 128,-1,28
 6 183 6 183 6.5 192.5 c 128,-1,29
 7 202 7 202 7 212 c 1,30,-1
 144 212 l 1,31,32
 144 205 144 205 144.5 199.5 c 128,-1,33
 145 194 145 194 146 190 c 2,34,-1
 147 182 l 2,35,36
 148 166 148 166 160 159 c 128,-1,37
 172 152 172 152 188 152 c 1,38,39
 198 153 198 153 207 157 c 0,40,41
 214 161 214 161 220.5 168 c 128,-1,42
 227 175 227 175 228 189 c 2,43,-1
 229 282 l 2,44,45
 229 286 229 286 228 293.5 c 128,-1,46
 227 301 227 301 222.5 308.5 c 128,-1,47
 218 316 218 316 209 321.5 c 128,-1,48
 200 327 200 327 185 327 c 1,49,50
 175 326 175 326 167 322 c 0,51,52
 160 318 160 318 152.5 310.5 c 128,-1,53
 145 303 145 303 140 289 c 1,54,-1
 8 289 l 1,55,-1
 7 666 l 1,56,-1
 366 666 l 1,57,-1
 365 520 l 1,58,-1
 174 519 l 1,0,-1
EndSplineSet
EndChar

StartChar: six
Encoding: 54 54 43
Width: 494
Flags: W
LayerCount: 2
Fore
SplineSet
254 447 m 1,0,1
 254 454 254 454 254.5 459 c 128,-1,2
 255 464 255 464 254 467 c 2,3,-1
 253 473 l 2,4,5
 252 477 252 477 249.5 484.5 c 128,-1,6
 247 492 247 492 242.5 499.5 c 128,-1,7
 238 507 238 507 230 512 c 128,-1,8
 222 517 222 517 211 517 c 0,9,10
 182 517 182 517 174 501.5 c 128,-1,11
 166 486 166 486 166 473 c 0,12,13
 165 431 165 431 164 385 c 0,14,15
 163 346 163 346 163 296.5 c 128,-1,16
 163 247 163 247 164 198 c 0,17,18
 164 183 164 183 169.5 173.5 c 128,-1,19
 175 164 175 164 183.5 158 c 128,-1,20
 192 152 192 152 201.5 149.5 c 128,-1,21
 211 147 211 147 217 147 c 128,-1,22
 223 147 223 147 231 148.5 c 128,-1,23
 239 150 239 150 246 156.5 c 128,-1,24
 253 163 253 163 258 176 c 0,25,26
 262 187 262 187 262 205 c 0,27,28
 262 209 262 209 262 212 c 0,29,30
 261 222 261 222 258.5 233.5 c 128,-1,31
 256 245 256 245 246 254 c 128,-1,32
 236 263 236 263 218 267 c 0,33,34
 209 269 209 269 197.5 269 c 128,-1,35
 186 269 186 269 171 267 c 1,36,-1
 172 343 l 1,37,38
 194 352 194 352 217.5 354 c 128,-1,39
 241 356 241 356 264 356 c 0,40,41
 273 356 273 356 292 350.5 c 128,-1,42
 311 345 311 345 331.5 333.5 c 128,-1,43
 352 322 352 322 367.5 303.5 c 128,-1,44
 383 285 383 285 384 260 c 2,45,-1
 387 146 l 2,46,47
 388 121 388 121 374 95 c 128,-1,48
 360 69 360 69 334 48 c 128,-1,49
 308 27 308 27 271 13.5 c 128,-1,50
 234 0 234 0 189 0 c 0,51,52
 161 0 161 0 131 6.5 c 128,-1,53
 101 13 101 13 75 27.5 c 128,-1,54
 49 42 49 42 31 65 c 128,-1,55
 13 88 13 88 9 122 c 1,56,57
 7 220 7 220 7 293.5 c 128,-1,58
 7 367 7 367 8 416 c 0,59,60
 10 473 10 473 12 514 c 1,61,62
 13 561 13 561 32.5 590.5 c 128,-1,63
 52 620 52 620 80.5 637 c 128,-1,64
 109 654 109 654 143 660 c 128,-1,65
 177 666 177 666 205 666 c 0,66,67
 254 666 254 666 285.5 654 c 128,-1,68
 317 642 317 642 335.5 626 c 128,-1,69
 354 610 354 610 362 593.5 c 128,-1,70
 370 577 370 577 371 568 c 1,71,72
 374 555 374 555 375 537 c 0,73,74
 375 522 375 522 375.5 499.5 c 128,-1,75
 376 477 376 477 376 447 c 1,76,-1
 254 447 l 1,0,1
EndSplineSet
EndChar

StartChar: seven
Encoding: 55 55 44
Width: 508
Flags: W
LayerCount: 2
Fore
SplineSet
179 0 m 1,0,-1
 -6 0 l 1,1,-1
 184 511 l 1,2,-1
 22 511 l 1,3,-1
 21 666 l 1,4,-1
 391 666 l 1,5,-1
 392 515 l 1,6,-1
 179 0 l 1,0,-1
EndSplineSet
EndChar

StartChar: eight
Encoding: 56 56 45
Width: 503
Flags: W
LayerCount: 2
Fore
SplineSet
325 325 m 0,0,1
 321 323 321 323 306.5 318 c 128,-1,2
 292 313 292 313 273.5 305.5 c 128,-1,3
 255 298 255 298 233.5 290.5 c 128,-1,4
 212 283 212 283 194 276 c 128,-1,5
 176 269 176 269 164 264.5 c 128,-1,6
 152 260 152 260 151 259 c 0,7,8
 137 252 137 252 133.5 240 c 128,-1,9
 130 228 130 228 132 213 c 0,10,11
 135 192 135 192 148 178.5 c 128,-1,12
 161 165 161 165 184 165 c 0,13,14
 203 165 203 165 214 171 c 128,-1,15
 225 177 225 177 230.5 186 c 128,-1,16
 236 195 236 195 237 205 c 128,-1,17
 238 215 238 215 237 223 c 0,18,19
 237 225 237 225 230 240.5 c 128,-1,20
 223 256 223 256 211 273 c 1,21,-1
 333 320 l 1,22,23
 358 299 358 299 370.5 270 c 128,-1,24
 383 241 383 241 387 214 c 0,25,26
 391 192 391 192 391 172 c 0,27,28
 391 143 391 143 383 119 c 0,29,30
 370 78 370 78 339.5 50.5 c 128,-1,31
 309 23 309 23 264.5 9 c 128,-1,32
 220 -5 220 -5 167 -5 c 0,33,34
 166 -5 166 -5 154.5 -4.5 c 128,-1,35
 143 -4 143 -4 126 -1 c 128,-1,36
 109 2 109 2 88 9 c 128,-1,37
 67 16 67 16 49 27.5 c 128,-1,38
 31 39 31 39 16.5 57 c 128,-1,39
 2 75 2 75 -2 101 c 1,40,41
 -4 152 -4 152 -5 185 c 128,-1,42
 -6 218 -6 218 -6 237 c 0,43,44
 -5 259 -5 259 -5 270 c 0,45,46
 -5 293 -5 293 11 310 c 128,-1,47
 27 327 27 327 41 341 c 1,48,49
 52 346 52 346 80.5 357.5 c 128,-1,50
 109 369 109 369 139 382 c 0,51,52
 169 396 169 396 194.5 407.5 c 128,-1,53
 220 419 220 419 224 424 c 0,54,55
 228 428 228 428 230 436.5 c 128,-1,56
 232 445 232 445 232.5 454 c 128,-1,57
 233 463 233 463 232.5 471 c 128,-1,58
 232 479 232 479 232 482 c 0,59,60
 229 503 229 503 218 514 c 128,-1,61
 207 525 207 525 184 525 c 0,62,63
 168 525 168 525 158 517.5 c 128,-1,64
 148 510 148 510 143.5 499 c 128,-1,65
 139 488 139 488 138 476 c 128,-1,66
 137 464 137 464 138 454 c 0,67,68
 140 440 140 440 148 424 c 128,-1,69
 156 408 156 408 163 400 c 1,70,-1
 37 348 l 1,71,72
 16 365 16 365 5 394 c 128,-1,73
 -6 423 -6 423 -11 454 c 0,74,75
 -14 475 -14 475 -14 494 c 0,76,77
 -14 520 -14 520 -8 542 c 0,78,79
 2 581 2 581 26 609 c 128,-1,80
 50 637 50 637 88.5 652 c 128,-1,81
 127 667 127 667 178 667 c 0,82,83
 259 667 259 667 309.5 627.5 c 128,-1,84
 360 588 360 588 371 515 c 0,85,86
 375 490 375 490 377 460 c 0,87,88
 378 451 378 451 378 443 c 0,89,90
 378 423 378 423 374 404 c 0,91,92
 370 377 370 377 359 355.5 c 128,-1,93
 348 334 348 334 325 325 c 0,0,1
EndSplineSet
EndChar

StartChar: nine
Encoding: 57 57 46
Width: 497
Flags: W
LayerCount: 2
Fore
SplineSet
378 146 m 0,0,1
 378 135 378 135 369.5 111 c 128,-1,2
 361 87 361 87 340 62.5 c 128,-1,3
 319 38 319 38 282 19.5 c 128,-1,4
 245 1 245 1 187 1 c 128,-1,5
 129 1 129 1 93 16.5 c 128,-1,6
 57 32 57 32 36.5 53 c 128,-1,7
 16 74 16 74 8.5 94 c 128,-1,8
 1 114 1 114 -0 123 c 0,9,10
 -2 133 -2 133 -3 146 c 0,11,12
 -4 157 -4 157 -5 172.5 c 128,-1,13
 -6 188 -6 188 -6 208 c 1,14,-1
 122 209 l 1,15,16
 122 202 122 202 122 198 c 128,-1,17
 122 194 122 194 123 191 c 2,18,-1
 124 185 l 2,19,20
 126 174 126 174 138 160 c 128,-1,21
 150 146 150 146 170 146 c 0,22,23
 186 146 186 146 196 151.5 c 128,-1,24
 206 157 206 157 211.5 165 c 128,-1,25
 217 173 217 173 218 181.5 c 128,-1,26
 219 190 219 190 219 196 c 1,27,28
 218 200 218 200 218 218.5 c 128,-1,29
 218 237 218 237 218.5 263.5 c 128,-1,30
 219 290 219 290 219 320.5 c 128,-1,31
 219 351 219 351 219.5 379 c 128,-1,32
 220 407 220 407 220 428 c 128,-1,33
 220 449 220 449 220 456 c 0,34,35
 220 482 220 482 204 496.5 c 128,-1,36
 188 511 188 511 165 511 c 0,37,38
 141 511 141 511 127 496 c 128,-1,39
 113 481 113 481 113 449 c 0,40,41
 113 431 113 431 120.5 418.5 c 128,-1,42
 128 406 128 406 138 398.5 c 128,-1,43
 148 391 148 391 159 387.5 c 128,-1,44
 170 384 170 384 177 384 c 128,-1,45
 184 384 184 384 190 385 c 0,46,47
 199 386 199 386 211 390 c 1,48,-1
 211 313 l 1,49,50
 200 308 200 308 188.5 306.5 c 128,-1,51
 177 305 177 305 167 303 c 0,52,53
 156 301 156 301 144 301 c 0,54,55
 96 301 96 301 66 313.5 c 128,-1,56
 36 326 36 326 20 342 c 128,-1,57
 4 358 4 358 -2 373 c 128,-1,58
 -8 388 -8 388 -9 394 c 0,59,60
 -10 401 -10 401 -11.5 414.5 c 128,-1,61
 -13 428 -13 428 -13 444 c 128,-1,62
 -13 460 -13 460 -12.5 476 c 128,-1,63
 -12 492 -12 492 -11 504 c 0,64,65
 -8 545 -8 545 9.5 575.5 c 128,-1,66
 27 606 27 606 55 626 c 128,-1,67
 83 646 83 646 118.5 656 c 128,-1,68
 154 666 154 666 191 666 c 0,69,70
 249 666 249 666 284 648 c 128,-1,71
 319 630 319 630 338.5 607 c 128,-1,72
 358 584 358 584 364.5 560.5 c 128,-1,73
 371 537 371 537 372 527 c 0,74,75
 372 519 372 519 373 490.5 c 128,-1,76
 374 462 374 462 374.5 422 c 128,-1,77
 375 382 375 382 376 337 c 128,-1,78
 377 292 377 292 377.5 252.5 c 0,79,80
 378 214 378 214 378 184 c 0,81,82
 378 174 378 174 379 166 c 0,83,84
 379 151 379 151 378 146 c 0,0,1
EndSplineSet
EndChar

StartChar: colon
Encoding: 58 58 47
Width: 292
Flags: W
LayerCount: 2
Fore
SplineSet
201 398 m 1,0,-1
 199 250 l 1,1,-1
 44 250 l 1,2,-1
 46 398 l 1,3,-1
 201 398 l 1,0,-1
198 148 m 1,4,-1
 196 0 l 1,5,-1
 41 0 l 1,6,-1
 43 148 l 1,7,-1
 198 148 l 1,4,-1
EndSplineSet
EndChar

StartChar: semicolon
Encoding: 59 59 48
AltUni2: 00037e.ffffffff.0 00037e.ffffffff.0
Width: 292
Flags: W
LayerCount: 2
Fore
SplineSet
178 -117 m 1,0,-1
 113 -118 l 1,1,-1
 118 0 l 1,2,-1
 30 0 l 1,3,-1
 33 158 l 1,4,-1
 182 158 l 1,5,6
 188 126 188 126 192 95 c 0,7,8
 196 68 196 68 198 40 c 0,9,10
 200 20 200 20 199 4 c 0,11,12
 199 -2 199 -2 199 -8 c 0,13,14
 199 -25 199 -25 197 -37 c 128,-1,15
 195 -49 195 -49 192 -60.5 c 128,-1,16
 189 -72 189 -72 185.5 -85 c 128,-1,17
 182 -98 182 -98 178 -117 c 1,0,-1
188 398 m 1,18,-1
 186 250 l 1,19,-1
 31 250 l 1,20,-1
 33 398 l 1,21,-1
 188 398 l 1,18,-1
EndSplineSet
EndChar

StartChar: less
Encoding: 60 60 49
Width: 435
Flags: W
LayerCount: 2
Fore
SplineSet
271 316 m 1,0,-1
 182 252 l 1,1,-1
 278 158 l 1,2,-1
 277 0 l 1,3,-1
 -25 271 l 1,4,-1
 274 483 l 1,5,-1
 271 316 l 1,0,-1
EndSplineSet
EndChar

StartChar: equal
Encoding: 61 61 50
Width: 388
Flags: W
LayerCount: 2
Fore
SplineSet
52 358 m 1,0,-1
 297 358 l 1,1,-1
 297 228 l 1,2,-1
 52 228 l 1,3,-1
 52 358 l 1,0,-1
51 188 m 1,4,-1
 296 188 l 1,5,-1
 296 58 l 1,6,-1
 51 58 l 1,7,-1
 51 188 l 1,4,-1
EndSplineSet
EndChar

StartChar: greater
Encoding: 62 62 51
Width: 414
Flags: W
LayerCount: 2
Fore
SplineSet
41 167 m 1,0,-1
 129 231 l 1,1,-1
 34 325 l 1,2,-1
 34 483 l 1,3,-1
 336 212 l 1,4,-1
 38 0 l 1,5,-1
 41 167 l 1,0,-1
EndSplineSet
EndChar

StartChar: question
Encoding: 63 63 52
Width: 505
Flags: W
LayerCount: 2
Fore
SplineSet
247 136 m 1,0,-1
 244 0 l 1,1,-1
 85 0 l 1,2,-1
 84 136 l 1,3,-1
 247 136 l 1,0,-1
-28 501 m 1,4,5
 -27 520 -27 520 -15.5 548 c 128,-1,6
 -4 576 -4 576 19 602.5 c 128,-1,7
 42 629 42 629 77.5 647.5 c 128,-1,8
 113 666 113 666 161 666 c 0,9,10
 229 666 229 666 270.5 643 c 128,-1,11
 312 620 312 620 335 589.5 c 128,-1,12
 358 559 358 559 367 529.5 c 128,-1,13
 376 500 376 500 378 487 c 0,14,15
 381 471 381 471 381 456 c 0,16,17
 382 425 382 425 370 399 c 0,18,19
 354 361 354 361 319 321 c 0,20,21
 293 291 293 291 272 255 c 0,22,23
 252 219 252 219 248 161 c 1,24,-1
 84 161 l 1,25,26
 85 209 85 209 93.5 248.5 c 128,-1,27
 102 288 102 288 122 314 c 0,28,29
 134 330 134 330 152 351 c 128,-1,30
 170 372 170 372 185.5 393 c 0,31,32
 202 414 202 414 212 432 c 0,33,34
 221 448 221 448 220 458 c 0,35,36
 220 482 220 482 201 494 c 0,37,38
 185 504 185 504 173 503 c 0,39,40
 158 503 158 503 146 494 c 128,-1,41
 134 485 134 485 125.5 472.5 c 128,-1,42
 117 460 117 460 112 446.5 c 128,-1,43
 107 433 107 433 106 424 c 1,44,-1
 -28 501 l 1,4,5
EndSplineSet
EndChar

StartChar: at
Encoding: 64 64 53
Width: 830
Flags: W
LayerCount: 2
Fore
SplineSet
379 678 m 0,0,1
 409 678 409 678 447.5 672.5 c 128,-1,2
 486 667 486 667 526.5 652.5 c 128,-1,3
 567 638 567 638 605.5 613 c 128,-1,4
 644 588 644 588 674 549.5 c 128,-1,5
 704 511 704 511 722.5 456.5 c 128,-1,6
 741 402 741 402 741 329 c 0,7,8
 741 300 741 300 737.5 264 c 128,-1,9
 734 228 734 228 720.5 196.5 c 128,-1,10
 707 165 707 165 680.5 143.5 c 128,-1,11
 654 122 654 122 607 122 c 0,12,13
 565 122 565 122 534 134 c 128,-1,14
 503 146 503 146 482 168 c 1,15,16
 476 176 476 176 468.5 189.5 c 128,-1,17
 461 203 461 203 454 217 c 0,18,19
 445 233 445 233 436 251 c 1,20,21
 436 254 436 254 436 274 c 0,22,23
 436 281 436 281 435 288 c 0,24,25
 435 302 435 302 436 318 c 0,26,27
 436 345 436 345 437 378 c 1,28,-1
 391 378 l 2,29,30
 370 378 370 378 361 354 c 128,-1,31
 352 330 352 330 352 265 c 1,32,33
 351 256 351 256 356 250 c 128,-1,34
 361 244 361 244 367 240.5 c 128,-1,35
 373 237 373 237 380 235.5 c 128,-1,36
 387 234 387 234 391 234 c 128,-1,37
 395 234 395 234 401.5 236 c 128,-1,38
 408 238 408 238 415 240 c 0,39,40
 423 243 423 243 430 246 c 1,41,-1
 476 165 l 1,42,43
 471 162 471 162 460 157 c 128,-1,44
 449 152 449 152 432.5 147 c 128,-1,45
 416 142 416 142 395 138.5 c 128,-1,46
 374 135 374 135 350 135 c 0,47,48
 327 135 327 135 301.5 144 c 128,-1,49
 276 153 276 153 254 171 c 128,-1,50
 232 189 232 189 218 216 c 0,51,52
 205 241 205 241 206 273 c 0,53,54
 206 340 206 340 226 384 c 0,55,56
 244 422 244 422 270.5 441 c 128,-1,57
 297 460 297 460 327.5 464.5 c 128,-1,58
 358 469 358 469 385 469 c 2,59,-1
 555 469 l 1,60,61
 555 443 555 443 554.5 418.5 c 128,-1,62
 554 394 554 394 555 373 c 0,63,64
 555 355 555 355 555 337 c 128,-1,65
 555 319 555 319 555 304.5 c 128,-1,66
 555 290 555 290 555.5 281 c 128,-1,67
 556 272 556 272 556 271 c 0,68,69
 557 265 557 265 562.5 255.5 c 128,-1,70
 568 246 568 246 583 246 c 0,71,72
 590 246 590 246 595 259.5 c 128,-1,73
 600 273 600 273 602.5 294.5 c 0,74,75
 606 316 606 316 606 342 c 0,76,77
 606 351 606 351 606 360 c 0,78,79
 606 378 606 378 605 395 c 0,80,81
 604 428 604 428 593 455 c 128,-1,82
 582 482 582 482 557 502 c 128,-1,83
 532 522 532 522 494 533 c 128,-1,84
 456 544 456 544 402 544 c 0,85,86
 367 544 367 544 325 538 c 128,-1,87
 283 532 283 532 246 507 c 128,-1,88
 209 482 209 482 183.5 431.5 c 128,-1,89
 158 381 158 381 156 293 c 0,90,91
 156 290 156 290 156 288 c 0,92,93
 156 228 156 228 179 188 c 0,94,95
 203 146 203 146 235.5 122 c 128,-1,96
 268 98 268 98 303 88 c 128,-1,97
 338 78 338 78 357 78 c 0,98,99
 373 78 373 78 392.5 82.5 c 128,-1,100
 412 87 412 87 431 92 c 0,101,102
 452 98 452 98 475 107 c 1,103,-1
 552 31 l 1,104,105
 530 11 530 11 502 -4 c 0,106,107
 477 -17 477 -17 442 -27.5 c 128,-1,108
 407 -38 407 -38 362 -38 c 0,109,110
 287 -38 287 -38 221.5 -8 c 128,-1,111
 156 22 156 22 108 72.5 c 128,-1,112
 60 123 60 123 33 188 c 0,113,114
 9 246 9 246 9 309 c 0,115,116
 9 316 9 316 9 323 c 0,117,118
 15 498 15 498 104.5 588 c 128,-1,119
 194 678 194 678 379 678 c 0,0,1
EndSplineSet
EndChar

StartChar: A
Encoding: 65 65 54
Width: 629
Flags: W
LayerCount: 2
Fore
SplineSet
295 408 m 1,0,-1
 252 240 l 1,1,-1
 327 240 l 1,2,-1
 354 117 l 1,3,-1
 200 117 l 1,4,-1
 159 0 l 1,5,-1
 -35 0 l 1,6,-1
 211 666 l 1,7,-1
 404 666 l 1,8,-1
 559 0 l 1,9,-1
 391 1 l 1,10,-1
 295 408 l 1,0,-1
EndSplineSet
EndChar

StartChar: B
Encoding: 66 66 55
Width: 588
Flags: W
LayerCount: 2
Fore
SplineSet
394 336 m 1,0,1
 435 311 435 311 459 280.5 c 128,-1,2
 483 250 483 250 498 222 c 1,3,4
 514 189 514 189 521 156 c 0,5,6
 523 145 523 145 523 134 c 0,7,8
 522 109 522 109 512 89 c 0,9,10
 498 61 498 61 476 42 c 128,-1,11
 454 23 454 23 431.5 12.5 c 128,-1,12
 409 2 409 2 397 -1 c 1,13,-1
 29 -1 l 1,14,-1
 42 665 l 1,15,-1
 211 665 l 1,16,-1
 206 161 l 1,17,18
 226 158 226 158 246 158 c 0,19,20
 248 158 248 158 249 158 c 0,21,22
 267 158 267 158 283 163 c 0,23,24
 300 168 300 168 310 182 c 0,25,26
 318 192 318 192 317 207 c 0,27,28
 317 213 317 213 316 219 c 0,29,30
 316 220 316 220 311.5 228.5 c 128,-1,31
 307 237 307 237 296.5 246 c 0,32,33
 286 256 286 256 268 262 c 0,34,35
 257 266 257 266 240 266 c 0,36,37
 230 266 230 266 219 264 c 1,38,-1
 219 400 l 1,39,40
 248 408 248 408 263 420.5 c 128,-1,41
 278 433 278 433 286 444.5 c 128,-1,42
 294 456 294 456 295.5 464.5 c 128,-1,43
 297 473 297 473 297 474 c 0,44,45
 295 487 295 487 288 495.5 c 128,-1,46
 281 504 281 504 273 509 c 128,-1,47
 265 514 265 514 257 515.5 c 128,-1,48
 249 517 249 517 245 517 c 2,49,-1
 221 517 l 1,50,-1
 223 665 l 1,51,-1
 340 665 l 1,52,53
 363 660 363 660 385.5 646.5 c 128,-1,54
 408 633 408 633 427 612.5 c 128,-1,55
 446 592 446 592 460 564 c 128,-1,56
 474 536 474 536 479 503 c 0,57,58
 479 497 479 497 479 491 c 0,59,60
 479 470 479 470 474 448 c 0,61,62
 467 424 467 424 449 394.5 c 128,-1,63
 431 365 431 365 394 336 c 1,0,1
EndSplineSet
EndChar

StartChar: C
Encoding: 67 67 56
Width: 495
Flags: W
LayerCount: 2
Fore
SplineSet
245 423 m 1,0,1
 244 449 244 449 238 463.5 c 128,-1,2
 232 478 232 478 224.5 485.5 c 128,-1,3
 217 493 217 493 210 495 c 128,-1,4
 203 497 203 497 201 497 c 0,5,6
 184 497 184 497 174.5 486.5 c 128,-1,7
 165 476 165 476 159 462 c 1,8,9
 157 405 157 405 154 342.5 c 128,-1,10
 151 280 151 280 150 223 c 1,11,12
 151 219 151 219 152 211 c 128,-1,13
 153 203 153 203 158 194.5 c 128,-1,14
 163 186 163 186 170.5 180 c 128,-1,15
 178 174 178 174 191 174 c 0,16,17
 209 174 209 174 219.5 181.5 c 128,-1,18
 230 189 230 189 235 200.5 c 128,-1,19
 240 212 240 212 241.5 225.5 c 128,-1,20
 243 239 243 239 242 252 c 0,21,22
 242 257 242 257 241.5 260.5 c 128,-1,23
 241 264 241 264 241 268 c 1,24,25
 251 268 251 268 281.5 270 c 128,-1,26
 312 272 312 272 384 276 c 1,27,28
 385 266 385 266 385 255.5 c 128,-1,29
 385 245 385 245 385 236 c 0,30,31
 383 195 383 195 375 152.5 c 128,-1,32
 367 110 367 110 346 76 c 128,-1,33
 325 42 325 42 288.5 20.5 c 128,-1,34
 252 -1 252 -1 194 -1 c 0,35,36
 143 -1 143 -1 108 13 c 128,-1,37
 73 27 73 27 51 46.5 c 128,-1,38
 29 66 29 66 18.5 86.5 c 128,-1,39
 8 107 8 107 6 121 c 0,40,41
 5 126 5 126 4.5 136 c 128,-1,42
 4 146 4 146 4 160 c 0,43,44
 4 188 4 188 4 227.5 c 128,-1,45
 4 267 4 267 4.5 310.5 c 128,-1,46
 5 354 5 354 6 397 c 128,-1,47
 7 440 7 440 10 476 c 0,48,49
 11 490 11 490 12.5 501.5 c 128,-1,50
 14 513 14 513 15 522 c 0,51,52
 21 557 21 557 41.5 583.5 c 128,-1,53
 62 610 62 610 91 628 c 128,-1,54
 120 646 120 646 153.5 655 c 128,-1,55
 187 664 187 664 219 664 c 1,56,-1
 230 664 l 2,57,58
 240 664 240 664 256 659.5 c 128,-1,59
 272 655 272 655 291.5 647 c 128,-1,60
 311 639 311 639 329.5 624 c 128,-1,61
 348 609 348 609 362.5 586.5 c 128,-1,62
 377 564 377 564 384 531 c 1,63,-1
 385 428 l 1,64,-1
 245 423 l 1,0,1
EndSplineSet
EndChar

StartChar: D
Encoding: 68 68 57
Width: 535
Flags: W
LayerCount: 2
Fore
SplineSet
362 58 m 1,0,1
 333 31 333 31 290.5 18.5 c 128,-1,2
 248 6 248 6 200 2 c 0,3,4
 162 -1 162 -1 124 -1 c 2,5,-1
 106 -1 l 2,6,7
 58 0 58 0 20 0 c 1,8,-1
 24 666 l 1,9,-1
 172 665 l 1,10,-1
 179 163 l 1,11,12
 192 166 192 166 205.5 171 c 128,-1,13
 219 176 219 176 230.5 185 c 128,-1,14
 242 194 242 194 250 209.5 c 128,-1,15
 258 225 258 225 260 249 c 0,16,17
 262 276 262 276 262 310 c 0,18,19
 262 327 262 327 262.5 343 c 0,20,21
 262 360 262 360 262 376 c 0,22,23
 262 408 262 408 260.5 435.5 c 128,-1,24
 259 463 259 463 256 477 c 0,25,26
 254 489 254 489 246.5 497.5 c 128,-1,27
 239 506 239 506 228 511 c 128,-1,28
 217 516 217 516 205 518.5 c 128,-1,29
 193 521 193 521 183 521 c 1,30,-1
 183 666 l 1,31,-1
 274 666 l 1,32,33
 320 658 320 658 348 631 c 128,-1,34
 376 604 376 604 393.5 567.5 c 128,-1,35
 411 531 411 531 419 490 c 128,-1,36
 427 449 427 449 433 413 c 0,37,38
 440 360 440 360 440 314 c 0,39,40
 440 253 440 253 428 204 c 0,41,42
 406 117 406 117 362 58 c 1,0,1
EndSplineSet
EndChar

StartChar: E
Encoding: 69 69 58
Width: 452
Flags: W
LayerCount: 2
Fore
SplineSet
184 522 m 1,0,-1
 185 395 l 1,1,-1
 323 395 l 1,2,-1
 323 267 l 1,3,-1
 181 267 l 1,4,-1
 179 146 l 1,5,-1
 323 147 l 1,6,-1
 318 0 l 1,7,-1
 28 0 l 1,8,-1
 31 666 l 1,9,-1
 319 665 l 1,10,-1
 323 522 l 1,11,-1
 184 522 l 1,0,-1
EndSplineSet
EndChar

StartChar: F
Encoding: 70 70 59
Width: 492
Flags: W
LayerCount: 2
Fore
SplineSet
202 515 m 1,0,-1
 204 406 l 1,1,-1
 353 406 l 1,2,-1
 354 266 l 1,3,-1
 202 266 l 1,4,-1
 197 0 l 1,5,-1
 38 -1 l 1,6,7
 38 174 38 174 39 317 c 0,8,9
 39 377 39 377 39 436.5 c 128,-1,10
 39 496 39 496 39 544 c 128,-1,11
 39 592 39 592 39 624.5 c 128,-1,12
 39 657 39 657 39 665 c 1,13,-1
 348 665 l 1,14,-1
 353 514 l 1,15,-1
 202 515 l 1,0,-1
EndSplineSet
EndChar

StartChar: G
Encoding: 71 71 60
Width: 503
Flags: W
LayerCount: 2
Fore
SplineSet
252 423 m 1,0,1
 252 429 252 429 252 433.5 c 128,-1,2
 252 438 252 438 251 441 c 2,3,-1
 250 448 l 2,4,5
 249 454 249 454 245.5 462 c 128,-1,6
 242 470 242 470 235.5 478 c 128,-1,7
 229 486 229 486 219.5 491.5 c 128,-1,8
 210 497 210 497 200 497 c 0,9,10
 180 498 180 498 168 478 c 0,11,12
 156 460 156 460 156 438 c 0,13,14
 156 426 156 426 158 406 c 0,15,16
 160 386 160 386 160.5 361 c 128,-1,17
 161 336 161 336 162 308.5 c 128,-1,18
 163 281 163 281 164.5 257.5 c 128,-1,19
 166 234 166 234 167 217.5 c 128,-1,20
 168 201 168 201 169 198 c 0,21,22
 171 185 171 185 183 176 c 128,-1,23
 195 167 195 167 209 167 c 1,24,-1
 219 168 l 2,25,26
 229 170 229 170 240.5 178 c 128,-1,27
 252 186 252 186 259 204 c 0,28,29
 263 214 263 214 263 230 c 0,30,31
 263 241 263 241 261 254 c 1,32,-1
 228 254 l 1,33,-1
 225 331 l 1,34,-1
 393 331 l 1,35,-1
 393 251 l 2,36,37
 393 236 393 236 393 221 c 128,-1,38
 393 206 393 206 393.5 194 c 128,-1,39
 394 182 394 182 394.5 174.5 c 128,-1,40
 395 167 395 167 395 166 c 0,41,42
 386 81 386 81 340 36 c 128,-1,43
 294 -9 294 -9 200 -9 c 0,44,45
 140 -9 140 -9 104 11.5 c 128,-1,46
 68 32 68 32 48.5 59 c 128,-1,47
 29 86 29 86 22.5 111.5 c 128,-1,48
 16 137 16 137 15 147 c 0,49,50
 13 158 13 158 11.5 168 c 128,-1,51
 10 178 10 178 10 191 c 0,52,53
 9 262 9 262 7.5 333.5 c 128,-1,54
 6 405 6 405 6 474 c 1,55,56
 13 522 13 522 34 556.5 c 128,-1,57
 55 591 55 591 83.5 612.5 c 128,-1,58
 112 634 112 634 143 644.5 c 128,-1,59
 174 655 174 655 201 655 c 0,60,61
 250 655 250 655 282 640.5 c 128,-1,62
 314 626 314 626 334.5 605 c 128,-1,63
 355 584 355 584 366 561 c 128,-1,64
 377 538 377 538 382 522 c 1,65,66
 384 510 384 510 386 495 c 0,67,68
 387 482 387 482 388.5 463.5 c 128,-1,69
 390 445 390 445 390 423 c 1,70,-1
 252 423 l 1,0,1
EndSplineSet
EndChar

StartChar: H
Encoding: 72 72 61
Width: 562
Flags: W
LayerCount: 2
Fore
SplineSet
277 0 m 1,0,-1
 279 234 l 1,1,-1
 178 234 l 1,2,-1
 175 0 l 1,3,-1
 31 -1 l 1,4,-1
 34 666 l 1,5,-1
 183 665 l 1,6,-1
 184 389 l 1,7,-1
 272 389 l 1,8,-1
 274 666 l 1,9,-1
 428 665 l 1,10,-1
 427 0 l 1,11,-1
 277 0 l 1,0,-1
EndSplineSet
EndChar

StartChar: I
Encoding: 73 73 62
Width: 320
Flags: W
LayerCount: 2
Fore
SplineSet
36 -1 m 1,0,-1
 41 665 l 1,1,-1
 191 666 l 1,2,-1
 184 -1 l 1,3,-1
 36 -1 l 1,0,-1
EndSplineSet
EndChar

StartChar: J
Encoding: 74 74 63
Width: 521
Flags: W
LayerCount: 2
Fore
SplineSet
381 168 m 2,0,1
 381 141 381 141 373 110.5 c 128,-1,2
 365 80 365 80 344.5 54.5 c 128,-1,3
 324 29 324 29 290 12 c 128,-1,4
 256 -5 256 -5 204 -5 c 0,5,6
 173 -5 173 -5 139 -0.5 c 128,-1,7
 105 4 105 4 75.5 16.5 c 128,-1,8
 46 29 46 29 23 51.5 c 128,-1,9
 0 74 0 74 -10 111 c 0,10,11
 -20 146 -20 146 -20 182 c 0,12,13
 -20 190 -20 190 -20 197 c 0,14,15
 -18 241 -18 241 -12 280 c 1,16,-1
 116 310 l 1,17,18
 113 278 113 278 112 257.5 c 128,-1,19
 111 237 111 237 111 225 c 0,20,21
 110 211 110 211 113 204 c 1,22,23
 117 181 117 181 136 169 c 128,-1,24
 155 157 155 157 171 157 c 0,25,26
 186 157 186 157 198.5 166 c 128,-1,27
 211 175 211 175 212 186 c 2,28,-1
 221 534 l 1,29,-1
 114 533 l 1,30,-1
 109 666 l 1,31,-1
 385 666 l 1,32,-1
 381 168 l 2,0,1
EndSplineSet
EndChar

StartChar: K
Encoding: 75 75 64
Width: 572
Flags: W
LayerCount: 2
Fore
SplineSet
486 0 m 1,0,-1
 319 0 l 1,1,-1
 192 185 l 1,2,-1
 185 0 l 1,3,-1
 25 0 l 1,4,-1
 39 666 l 1,5,-1
 200 665 l 1,6,-1
 198 416 l 1,7,-1
 374 633 l 1,8,-1
 470 518 l 1,9,-1
 298 285 l 1,10,-1
 486 0 l 1,0,-1
EndSplineSet
EndChar

StartChar: L
Encoding: 76 76 65
Width: 423
Flags: W
LayerCount: 2
Fore
SplineSet
30 0 m 1,0,-1
 36 666 l 1,1,-1
 212 666 l 1,2,-1
 210 161 l 1,3,-1
 356 161 l 1,4,-1
 349 0 l 1,5,-1
 30 0 l 1,0,-1
EndSplineSet
EndChar

StartChar: M
Encoding: 77 77 66
Width: 657
Flags: W
LayerCount: 2
Fore
SplineSet
339 0 m 1,0,-1
 338 312 l 1,1,-1
 257 221 l 1,2,-1
 198 293 l 1,3,-1
 198 0 l 1,4,-1
 30 0 l 1,5,-1
 36 666 l 1,6,-1
 180 666 l 1,7,-1
 278 485 l 1,8,-1
 348 666 l 1,9,-1
 512 666 l 1,10,-1
 508 0 l 1,11,-1
 339 0 l 1,0,-1
EndSplineSet
EndChar

StartChar: N
Encoding: 78 78 67
Width: 555
Flags: W
LayerCount: 2
Fore
SplineSet
284 0 m 1,0,-1
 284 202 l 1,1,-1
 208 309 l 1,2,-1
 197 0 l 1,3,-1
 36 0 l 1,4,-1
 42 666 l 1,5,-1
 177 665 l 1,6,-1
 280 498 l 1,7,-1
 285 666 l 1,8,-1
 448 666 l 1,9,-1
 438 0 l 1,10,-1
 284 0 l 1,0,-1
EndSplineSet
EndChar

StartChar: O
Encoding: 79 79 68
Width: 508
Flags: W
LayerCount: 2
Fore
SplineSet
165 449 m 1,0,1
 163 440 163 440 161.5 418.5 c 128,-1,2
 160 397 160 397 159.5 370 c 128,-1,3
 159 343 159 343 158.5 313.5 c 128,-1,4
 158 284 158 284 158 258.5 c 128,-1,5
 158 233 158 233 158.5 215.5 c 128,-1,6
 159 198 159 198 159 194 c 0,7,8
 161 181 161 181 168.5 171.5 c 128,-1,9
 176 162 176 162 196 162 c 0,10,11
 211 162 211 162 220 164.5 c 128,-1,12
 229 167 229 167 233.5 174 c 128,-1,13
 238 181 238 181 240 192 c 128,-1,14
 242 203 242 203 242 220 c 2,15,-1
 251 661 l 1,16,17
 297 657 297 657 324 640 c 128,-1,18
 351 623 351 623 366 603 c 0,19,20
 384 580 384 580 392 551 c 1,21,22
 391 545 391 545 391 530 c 0,23,24
 391 522 391 522 391.5 512.5 c 128,-1,25
 392 503 392 503 392 492 c 0,26,27
 392 470 392 470 391 443 c 0,28,29
 390 403 390 403 389.5 357.5 c 128,-1,30
 389 312 389 312 388.5 271 c 128,-1,31
 388 230 388 230 387.5 198 c 128,-1,32
 387 166 387 166 387 153 c 0,33,34
 387 134 387 134 380.5 107.5 c 128,-1,35
 374 81 374 81 356 56.5 c 128,-1,36
 338 32 338 32 305.5 15 c 128,-1,37
 273 -2 273 -2 221 -2 c 0,38,39
 187 -2 187 -2 154 4 c 128,-1,40
 121 10 121 10 93.5 25 c 128,-1,41
 66 40 66 40 46 65 c 128,-1,42
 26 90 26 90 18 128 c 0,43,44
 16 140 16 140 15 149 c 128,-1,45
 14 158 14 158 13 162 c 0,46,47
 12 169 12 169 10.5 200.5 c 0,48,49
 8 232 8 232 8 278 c 0,50,51
 8 290 8 290 8 302 c 0,52,53
 8 340 8 340 10 382 c 0,54,55
 12 438 12 438 16 497 c 0,56,57
 19 534 19 534 34 560.5 c 128,-1,58
 49 587 49 587 69.5 605.5 c 128,-1,59
 90 624 90 624 114 635.5 c 128,-1,60
 138 647 138 647 158 653.5 c 128,-1,61
 178 660 178 660 193.5 662 c 128,-1,62
 209 664 209 664 213 664 c 2,63,-1
 224 664 l 2,64,65
 229 664 229 664 233 663.5 c 128,-1,66
 237 663 237 663 241 663 c 1,67,-1
 236 496 l 1,68,69
 225 496 225 496 213.5 492.5 c 128,-1,70
 202 489 202 489 191.5 483 c 128,-1,71
 181 477 181 477 173.5 468.5 c 128,-1,72
 166 460 166 460 165 449 c 1,0,1
EndSplineSet
EndChar

StartChar: P
Encoding: 80 80 69
Width: 468
Flags: W
LayerCount: 2
Fore
SplineSet
194 248 m 1,0,1
 194 261 194 261 194 287 c 128,-1,2
 194 313 194 313 194 336 c 2,3,-1
 194 370 l 1,4,5
 227 386 227 386 246 403.5 c 128,-1,6
 265 421 265 421 275 436 c 128,-1,7
 285 451 285 451 287 462 c 128,-1,8
 289 473 289 473 288 477 c 0,9,10
 284 501 284 501 270.5 511.5 c 128,-1,11
 257 522 257 522 241 526 c 0,12,13
 231 528 231 528 221 528 c 0,14,15
 216 528 216 528 210 527 c 0,16,17
 194 525 194 525 187 524 c 1,18,-1
 179 0 l 1,19,-1
 30 0 l 1,20,-1
 35 665 l 1,21,-1
 247 667 l 2,22,23
 249 667 249 667 251 667 c 0,24,25
 276 666 276 666 302 656 c 0,26,27
 330 644 330 644 353 622 c 128,-1,28
 376 600 376 600 393.5 568 c 128,-1,29
 411 536 411 536 417 496 c 0,30,31
 420 480 420 480 420 465 c 0,32,33
 420 428 420 428 404 398 c 0,34,35
 382 356 382 356 345 325 c 128,-1,36
 308 294 308 294 266.5 275 c 128,-1,37
 225 256 225 256 194 248 c 1,0,1
EndSplineSet
EndChar

StartChar: Q
Encoding: 81 81 70
Width: 525
Flags: W
LayerCount: 2
Fore
SplineSet
318 61 m 1,0,1
 302 37 302 37 279.5 24.5 c 128,-1,2
 257 12 257 12 237 6 c 0,3,4
 212 -1 212 -1 188 -2 c 1,5,6
 137 -2 137 -2 103.5 16.5 c 128,-1,7
 70 35 70 35 50.5 59 c 128,-1,8
 31 83 31 83 22.5 105 c 128,-1,9
 14 127 14 127 13 134 c 0,10,11
 11 147 11 147 9 162 c 128,-1,12
 7 177 7 177 7 194 c 0,13,14
 7 230 7 230 7.5 273.5 c 128,-1,15
 8 317 8 317 8.5 360 c 128,-1,16
 9 403 9 403 9.5 442.5 c 128,-1,17
 10 482 10 482 11 512 c 0,18,19
 12 540 12 540 26.5 567.5 c 128,-1,20
 41 595 41 595 65.5 616.5 c 128,-1,21
 90 638 90 638 121.5 651.5 c 128,-1,22
 153 665 153 665 187 665 c 128,-1,23
 221 665 221 665 253 653.5 c 128,-1,24
 285 642 285 642 311 621 c 128,-1,25
 337 600 337 600 354.5 571 c 128,-1,26
 372 542 372 542 378 507 c 1,27,28
 383 467 383 467 388 413 c 1,29,30
 391 367 391 367 393.5 302 c 128,-1,31
 396 237 396 237 397 152 c 1,32,33
 349 168 349 168 314 175.5 c 128,-1,34
 279 183 279 183 265 185 c 1,35,36
 265 200 265 200 263 238 c 128,-1,37
 261 276 261 276 259.5 317.5 c 128,-1,38
 258 359 258 359 257 393.5 c 128,-1,39
 256 428 256 428 256 436 c 0,40,41
 256 443 256 443 254 454.5 c 128,-1,42
 252 466 252 466 247 477 c 128,-1,43
 242 488 242 488 231.5 495.5 c 128,-1,44
 221 503 221 503 205 503 c 0,45,46
 190 503 190 503 182.5 495 c 128,-1,47
 175 487 175 487 171.5 475 c 128,-1,48
 168 463 168 463 167 449.5 c 128,-1,49
 166 436 166 436 167 425 c 1,50,51
 167 417 167 417 166.5 405.5 c 128,-1,52
 166 394 166 394 167 378 c 0,53,54
 167 351 167 351 168 303.5 c 128,-1,55
 169 256 169 256 170 181 c 1,56,57
 183 179 183 179 195.5 178.5 c 128,-1,58
 208 178 208 178 217 178 c 2,59,-1
 237 178 l 2,60,61
 253 178 253 178 276 174 c 0,62,63
 296 171 296 171 326.5 163.5 c 128,-1,64
 357 156 357 156 397 143 c 1,65,66
 441 105 441 105 471.5 72.5 c 128,-1,67
 502 40 502 40 515 26 c 1,68,69
 501 24 501 24 467 18 c 128,-1,70
 433 12 433 12 365 1 c 1,71,-1
 318 61 l 1,0,1
EndSplineSet
EndChar

StartChar: R
Encoding: 82 82 71
Width: 601
Flags: W
LayerCount: 2
Fore
SplineSet
546 0 m 1,0,-1
 366 0 l 1,1,-1
 268 220 l 1,2,-1
 223 212 l 1,3,-1
 228 344 l 1,4,5
 260 359 260 359 276 381 c 128,-1,6
 292 403 292 403 299.5 423 c 0,7,8
 308 444 308 444 308 458 c 2,9,-1
 308 472 l 1,10,11
 304 496 304 496 289.5 505.5 c 128,-1,12
 275 515 275 515 253 515 c 0,13,14
 250 515 250 515 247 514 c 0,15,16
 243 513 243 513 237 512 c 128,-1,17
 231 511 231 511 220 509 c 1,18,-1
 208 0 l 1,19,-1
 37 0 l 1,20,-1
 41 666 l 1,21,-1
 296 666 l 2,22,23
 318 666 318 666 346.5 661.5 c 128,-1,24
 375 657 375 657 403 639 c 128,-1,25
 431 621 431 621 453.5 584 c 128,-1,26
 476 547 476 547 486 483 c 0,27,28
 487 472 487 472 487 460 c 0,29,30
 487 433 487 433 482 406 c 1,31,32
 474 372 474 372 454.5 332.5 c 128,-1,33
 435 293 435 293 390 258 c 1,34,-1
 546 0 l 1,0,-1
EndSplineSet
EndChar

StartChar: S
Encoding: 83 83 72
Width: 489
Flags: W
LayerCount: 2
Fore
SplineSet
261 467 m 1,0,1
 257 488 257 488 248 499.5 c 128,-1,2
 239 511 239 511 229.5 516.5 c 128,-1,3
 220 522 220 522 213 523 c 2,4,-1
 206 524 l 1,5,6
 193 524 193 524 183.5 517 c 128,-1,7
 174 510 174 510 168 500.5 c 128,-1,8
 162 491 162 491 159.5 480.5 c 128,-1,9
 157 470 157 470 158 464 c 0,10,11
 161 443 161 443 176.5 428 c 128,-1,12
 192 413 192 413 213.5 400 c 128,-1,13
 235 387 235 387 261 373.5 c 128,-1,14
 287 360 287 360 311.5 342 c 128,-1,15
 336 324 336 324 356.5 298.5 c 128,-1,16
 377 273 377 273 388 237 c 1,17,18
 389 222 389 222 389 206 c 0,19,20
 390 186 390 186 388 166 c 0,21,22
 386 129 386 129 378 97 c 0,23,24
 374 83 374 83 361 66 c 128,-1,25
 348 49 348 49 326 34 c 128,-1,26
 304 19 304 19 272 9 c 128,-1,27
 240 -1 240 -1 199 -1 c 0,28,29
 157 -1 157 -1 125 8.5 c 128,-1,30
 93 18 93 18 71.5 31 c 128,-1,31
 50 44 50 44 38.5 57.5 c 128,-1,32
 27 71 27 71 25 80 c 0,33,34
 22 91 22 91 22 110 c 1,35,36
 22 127 22 127 20 154 c 0,37,38
 19 166 19 166 19 180 c 0,39,40
 19 199 19 199 20 222 c 1,41,-1
 149 223 l 1,42,43
 148 213 148 213 147.5 206.5 c 128,-1,44
 147 200 147 200 147 195 c 128,-1,45
 147 190 147 190 148 186 c 0,46,47
 150 174 150 174 159.5 158 c 128,-1,48
 169 142 169 142 193 142 c 0,49,50
 214 142 214 142 223.5 153.5 c 128,-1,51
 233 165 233 165 236 181 c 0,52,53
 238 192 238 192 238 203 c 0,54,55
 238 208 238 208 238 214 c 0,56,57
 236 232 236 232 235 243 c 1,58,59
 227 259 227 259 209.5 274.5 c 128,-1,60
 192 290 192 290 170 304.5 c 128,-1,61
 148 319 148 319 124.5 332.5 c 128,-1,62
 101 346 101 346 80.5 360 c 128,-1,63
 60 374 60 374 45.5 387.5 c 128,-1,64
 31 401 31 401 29 416 c 0,65,66
 25 439 25 439 24 474 c 0,67,68
 24 479 24 479 24 484 c 0,69,70
 24 514 24 514 29 541 c 0,71,72
 35 576 35 576 53.5 600 c 128,-1,73
 72 624 72 624 96 639 c 128,-1,74
 120 654 120 654 147 660.5 c 128,-1,75
 174 667 174 667 197 667 c 128,-1,76
 220 667 220 667 246 661 c 128,-1,77
 272 655 272 655 296 643 c 128,-1,78
 320 631 320 631 339 612.5 c 128,-1,79
 358 594 358 594 368 569 c 0,80,81
 371 559 371 559 374 544 c 0,82,83
 377 531 377 531 379.5 512 c 128,-1,84
 382 493 382 493 383 467 c 1,85,-1
 261 467 l 1,0,1
EndSplineSet
EndChar

StartChar: T
Encoding: 84 84 73
Width: 478
Flags: W
LayerCount: 2
Fore
SplineSet
265 509 m 1,0,-1
 267 0 l 1,1,-1
 92 0 l 1,2,-1
 92 508 l 1,3,-1
 -32 508 l 1,4,-1
 -35 666 l 1,5,-1
 368 667 l 1,6,-1
 373 509 l 1,7,-1
 265 509 l 1,0,-1
EndSplineSet
EndChar

StartChar: U
Encoding: 85 85 74
Width: 542
Flags: W
LayerCount: 2
Fore
SplineSet
411 139 m 2,0,1
 411 115 411 115 399.5 90.5 c 128,-1,2
 388 66 388 66 364.5 45.5 c 128,-1,3
 341 25 341 25 307.5 12 c 128,-1,4
 274 -1 274 -1 229 -1 c 0,5,6
 159 -1 159 -1 117.5 21.5 c 128,-1,7
 76 44 76 44 53.5 73 c 128,-1,8
 31 102 31 102 23.5 129 c 128,-1,9
 16 156 16 156 15 165 c 1,10,-1
 15 666 l 1,11,-1
 170 666 l 1,12,-1
 171 281 l 2,13,14
 171 218 171 218 185.5 192 c 128,-1,15
 200 166 200 166 229 166 c 0,16,17
 241 166 241 166 247.5 173 c 128,-1,18
 254 180 254 180 258 191 c 128,-1,19
 262 202 262 202 263.5 214.5 c 128,-1,20
 265 227 265 227 265 238 c 2,21,-1
 268 666 l 1,22,-1
 415 666 l 1,23,-1
 411 139 l 2,0,1
EndSplineSet
EndChar

StartChar: V
Encoding: 86 86 75
Width: 552
Flags: W
LayerCount: 2
Fore
SplineSet
86 0 m 1,0,-1
 -38 666 l 1,1,-1
 135 666 l 1,2,-1
 205 281 l 1,3,-1
 353 666 l 1,4,-1
 528 666 l 1,5,-1
 294 0 l 1,6,-1
 86 0 l 1,0,-1
EndSplineSet
EndChar

StartChar: W
Encoding: 87 87 76
Width: 752
Flags: W
LayerCount: 2
Fore
SplineSet
343 0 m 1,0,-1
 309 172 l 1,1,-1
 235 0 l 1,2,-1
 109 0 l 1,3,-1
 -36 666 l 1,4,-1
 134 666 l 1,5,-1
 183 428 l 1,6,-1
 274 666 l 1,7,-1
 384 667 l 1,8,-1
 426 442 l 1,9,-1
 515 666 l 1,10,-1
 684 666 l 1,11,-1
 462 0 l 1,12,-1
 343 0 l 1,0,-1
EndSplineSet
EndChar

StartChar: X
Encoding: 88 88 77
Width: 620
Flags: W
LayerCount: 2
Fore
SplineSet
453 0 m 1,0,-1
 287 0 l 1,1,-1
 225 132 l 1,2,-1
 167 0 l 1,3,-1
 -28 0 l 1,4,-1
 148 329 l 1,5,-1
 -12 666 l 1,6,-1
 153 666 l 1,7,-1
 233 494 l 1,8,-1
 333 666 l 1,9,-1
 529 666 l 1,10,-1
 317 312 l 1,11,-1
 453 0 l 1,0,-1
EndSplineSet
EndChar

StartChar: Y
Encoding: 89 89 78
Width: 571
Flags: W
LayerCount: 2
Fore
SplineSet
327 0 m 1,0,-1
 139 -1 l 1,1,-1
 130 377 l 1,2,-1
 -60 666 l 1,3,-1
 118 666 l 1,4,-1
 206 509 l 1,5,-1
 275 666 l 1,6,-1
 472 666 l 1,7,-1
 303 303 l 1,8,-1
 327 0 l 1,0,-1
EndSplineSet
EndChar

StartChar: Z
Encoding: 90 90 79
Width: 538
Flags: W
LayerCount: 2
Fore
SplineSet
220 163 m 1,0,-1
 383 163 l 1,1,-1
 382 0 l 1,2,-1
 31 0 l 1,3,-1
 33 205 l 1,4,-1
 200 507 l 1,5,-1
 39 506 l 1,6,-1
 37 666 l 1,7,-1
 404 665 l 1,8,-1
 397 481 l 1,9,-1
 220 163 l 1,0,-1
EndSplineSet
EndChar

StartChar: bracketleft
Encoding: 91 91 80
Width: 366
Flags: W
LayerCount: 2
Fore
SplineSet
212 599 m 1,0,1
 206 599 206 599 198.5 598 c 128,-1,2
 191 597 191 597 185 591.5 c 128,-1,3
 179 586 179 586 175 573.5 c 128,-1,4
 171 561 171 561 171 538 c 2,5,-1
 168 194 l 1,6,7
 169 171 169 171 172.5 157.5 c 128,-1,8
 176 144 176 144 182.5 136 c 128,-1,9
 189 128 189 128 196.5 125 c 128,-1,10
 204 122 204 122 210 120 c 1,11,-1
 211 -53 l 1,12,13
 159 -36 159 -36 118 -6 c 0,14,15
 100 6 100 6 83 22.5 c 128,-1,16
 66 39 66 39 52.5 60 c 128,-1,17
 39 81 39 81 31 106.5 c 128,-1,18
 23 132 23 132 23 162 c 0,19,20
 24 287 24 287 25 386 c 0,21,22
 25 428 25 428 25 468.5 c 128,-1,23
 25 509 25 509 25 540.5 c 0,24,25
 26 572 26 572 26 592 c 2,26,-1
 26 611 l 2,27,28
 26 642 26 642 34.5 665 c 128,-1,29
 43 688 43 688 56.5 704.5 c 128,-1,30
 70 721 70 721 86.5 732 c 128,-1,31
 103 743 103 743 120 750 c 0,32,33
 160 766 160 766 213 766 c 1,34,-1
 212 599 l 1,0,1
EndSplineSet
EndChar

StartChar: backslash
Encoding: 92 92 81
Width: 514
Flags: W
LayerCount: 2
Fore
SplineSet
82 688 m 1,0,-1
 447 36 l 1,1,-1
 316 -23 l 1,2,-1
 -44 626 l 1,3,-1
 82 688 l 1,0,-1
EndSplineSet
EndChar

StartChar: bracketright
Encoding: 93 93 82
Width: 366
Flags: W
LayerCount: 2
Fore
SplineSet
40 114 m 1,0,1
 46 114 46 114 53.5 115 c 128,-1,2
 61 116 61 116 67 121.5 c 128,-1,3
 73 127 73 127 77 139.5 c 128,-1,4
 81 152 81 152 81 175 c 2,5,-1
 84 519 l 1,6,7
 83 542 83 542 78.5 555.5 c 128,-1,8
 74 569 74 569 68 577 c 128,-1,9
 62 585 62 585 55 588 c 128,-1,10
 48 591 48 591 42 593 c 1,11,-1
 41 766 l 1,12,13
 93 749 93 749 134 720 c 0,14,15
 152 708 152 708 169 691.5 c 128,-1,16
 186 675 186 675 200 654 c 128,-1,17
 214 633 214 633 222.5 607.5 c 128,-1,18
 231 582 231 582 233 551 c 1,19,20
 231 425 231 425 229 326 c 0,21,22
 228 284 228 284 227.5 244 c 128,-1,23
 227 204 227 204 227 172 c 0,24,25
 227 135 227 135 226 102 c 0,26,27
 226 71 226 71 217.5 48 c 128,-1,28
 209 25 209 25 195.5 8.5 c 128,-1,29
 182 -8 182 -8 165.5 -19 c 128,-1,30
 149 -30 149 -30 132 -37 c 0,31,32
 92 -53 92 -53 39 -53 c 1,33,-1
 40 114 l 1,0,1
EndSplineSet
EndChar

StartChar: asciicircum
Encoding: 94 94 83
Width: 602
Flags: W
LayerCount: 2
Fore
SplineSet
6 361 m 1,0,-1
 251 619 l 1,1,-1
 503 359 l 1,2,-1
 365 358 l 1,3,-1
 270 450 l 1,4,-1
 149 361 l 1,5,-1
 6 361 l 1,0,-1
EndSplineSet
EndChar

StartChar: underscore
Encoding: 95 95 84
Width: 661
Flags: W
LayerCount: 2
Fore
SplineSet
79 -21 m 1,0,-1
 610 -21 l 1,1,-1
 607 -162 l 1,2,-1
 78 -162 l 1,3,-1
 79 -21 l 1,0,-1
EndSplineSet
EndChar

StartChar: grave
Encoding: 96 96 85
Width: 260
Flags: W
LayerCount: 2
Fore
SplineSet
52 781 m 1,0,-1
 117 639 l 1,1,-1
 -39 639 l 1,2,-1
 -104 781 l 1,3,-1
 52 781 l 1,0,-1
EndSplineSet
EndChar

StartChar: a
Encoding: 97 97 86
Width: 623
Flags: W
LayerCount: 2
Fore
SplineSet
503 469 m 1,0,-1
 498 -1 l 1,1,-1
 332 0 l 1,2,-1
 337 337 l 1,3,-1
 333 348 l 1,4,5
 328 356 328 356 320 363 c 0,6,7
 312 369 312 369 300 374 c 128,-1,8
 288 379 288 379 268 379 c 128,-1,9
 248 379 248 379 235 370 c 128,-1,10
 222 361 222 361 214 349.5 c 128,-1,11
 206 338 206 338 203 327 c 128,-1,12
 200 316 200 316 200 312 c 0,13,14
 200 307 200 307 198.5 289 c 128,-1,15
 197 271 197 271 196 248.5 c 128,-1,16
 195 226 195 226 195 204.5 c 128,-1,17
 195 183 195 183 197 172 c 0,18,19
 199 160 199 160 208 153.5 c 128,-1,20
 217 147 217 147 228.5 143 c 128,-1,21
 240 139 240 139 251.5 138 c 128,-1,22
 263 137 263 137 270 137 c 0,23,24
 278 137 278 137 287.5 142.5 c 128,-1,25
 297 148 297 148 305 156 c 1,26,27
 315 164 315 164 325 175 c 1,28,-1
 322 61 l 1,29,30
 302 44 302 44 286 32 c 128,-1,31
 270 20 270 20 254.5 12.5 c 128,-1,32
 239 5 239 5 222.5 2 c 128,-1,33
 206 -1 206 -1 185 -1 c 0,34,35
 152 -1 152 -1 122.5 8.5 c 128,-1,36
 93 18 93 18 70 33 c 128,-1,37
 47 48 47 48 32 67 c 128,-1,38
 17 86 17 86 15 104 c 0,39,40
 14 111 14 111 13 122 c 0,41,42
 13 128 13 128 12.5 134 c 128,-1,43
 12 140 12 140 13 148 c 0,44,45
 14 193 14 193 14 231 c 1,46,47
 15 263 15 263 16.5 294 c 128,-1,48
 18 325 18 325 19 337 c 1,49,50
 29 372 29 372 49 397 c 128,-1,51
 69 422 69 422 95 438 c 128,-1,52
 121 454 121 454 151 461.5 c 128,-1,53
 181 469 181 469 213 469 c 0,54,55
 227 469 227 469 245.5 465.5 c 128,-1,56
 264 462 264 462 283 455.5 c 128,-1,57
 302 449 302 449 319 440 c 128,-1,58
 336 431 336 431 348 419 c 1,59,-1
 348 469 l 1,60,-1
 503 469 l 1,0,-1
EndSplineSet
EndChar

StartChar: b
Encoding: 98 98 87
Width: 617
Flags: W
LayerCount: 2
Fore
SplineSet
234 666 m 1,0,-1
 229 124 l 1,1,2
 237 115 237 115 248 108 c 0,3,4
 257 102 257 102 268 97.5 c 128,-1,5
 279 93 279 93 293 93 c 0,6,7
 312 93 312 93 325 99 c 128,-1,8
 338 105 338 105 346.5 113.5 c 128,-1,9
 355 122 355 122 359 130.5 c 128,-1,10
 363 139 363 139 365 145 c 0,11,12
 366 150 366 150 367.5 164 c 128,-1,13
 369 178 369 178 369.5 194 c 128,-1,14
 370 210 370 210 370 223.5 c 128,-1,15
 370 237 370 237 371 242 c 0,16,17
 372 251 372 251 368.5 269.5 c 128,-1,18
 365 288 365 288 358 300 c 0,19,20
 350 312 350 312 338 316 c 0,21,22
 330 318 330 318 320 319 c 0,23,24
 314 319 314 319 307 318 c 0,25,26
 297 317 297 317 286 312 c 128,-1,27
 275 307 275 307 265 300 c 0,28,29
 254 292 254 292 244 282 c 1,30,-1
 244 409 l 1,31,32
 260 424 260 424 280 436 c 0,33,34
 297 447 297 447 321.5 456 c 128,-1,35
 346 465 346 465 376 467 c 0,36,37
 378 467 378 467 380 467 c 0,38,39
 398 468 398 468 422 460 c 0,40,41
 450 452 450 452 475.5 435 c 128,-1,42
 501 418 501 418 521.5 393.5 c 128,-1,43
 542 369 542 369 546 338 c 0,44,45
 552 297 552 297 552 260 c 0,46,47
 552 246 552 246 552 232 c 0,48,49
 548 182 548 182 544 146 c 0,50,51
 543 135 543 135 532.5 111 c 128,-1,52
 522 87 522 87 501 62 c 128,-1,53
 480 37 480 37 447 18.5 c 128,-1,54
 414 0 414 0 366 0 c 0,55,56
 305 0 305 0 271.5 13 c 128,-1,57
 238 26 238 26 224 35 c 1,58,-1
 223 0 l 1,59,-1
 50 0 l 1,60,-1
 54 666 l 1,61,-1
 234 666 l 1,0,-1
EndSplineSet
EndChar

StartChar: c
Encoding: 99 99 88
Width: 511
Flags: W
LayerCount: 2
Fore
SplineSet
404 403 m 0,0,1
 424 377 424 377 426 351 c 0,2,3
 426 347 426 347 426 343 c 0,4,5
 426 323 426 323 415 315 c 0,6,7
 404 307 404 307 395 307 c 0,8,9
 388 307 388 307 382 311 c 0,10,11
 367 320 367 320 358 331 c 1,12,13
 347 348 347 348 327.5 365.5 c 128,-1,14
 308 383 308 383 282 383 c 0,15,16
 276 383 276 383 265.5 382 c 128,-1,17
 255 381 255 381 244 376.5 c 128,-1,18
 233 372 233 372 224 363.5 c 128,-1,19
 215 355 215 355 211 340 c 1,20,21
 206 304 206 304 202 270 c 0,22,23
 201 257 201 257 201 244 c 0,24,25
 201 221 201 221 205 197 c 0,26,27
 206 189 206 189 208.5 181 c 128,-1,28
 211 173 211 173 216.5 166.5 c 128,-1,29
 222 160 222 160 231.5 155.5 c 128,-1,30
 241 151 241 151 256 151 c 0,31,32
 285 151 285 151 305.5 167.5 c 128,-1,33
 326 184 326 184 346 203 c 1,34,35
 360 210 360 210 375 208.5 c 128,-1,36
 390 207 390 207 402 198.5 c 128,-1,37
 414 190 414 190 420.5 176.5 c 128,-1,38
 427 163 427 163 424 148 c 1,39,40
 394 73 394 73 329.5 36 c 128,-1,41
 265 -1 265 -1 180 -1 c 0,42,43
 158 -1 158 -1 135.5 6.5 c 128,-1,44
 113 14 113 14 92 27.5 c 128,-1,45
 71 41 71 41 54 59 c 128,-1,46
 37 77 37 77 26 98 c 0,47,48
 23 105 23 105 19.5 119.5 c 128,-1,49
 16 134 16 134 16 145 c 0,50,51
 17 171 17 171 17 198 c 0,52,53
 17 221 17 221 17 248 c 128,-1,54
 17 275 17 275 18 299 c 0,55,56
 18 322 18 322 27.5 341.5 c 128,-1,57
 37 361 37 361 48 376 c 0,58,59
 61 392 61 392 81.5 409 c 128,-1,60
 102 426 102 426 126 439.5 c 128,-1,61
 150 453 150 453 179 462 c 128,-1,62
 208 471 208 471 240 471 c 0,63,64
 308 471 308 471 345 452 c 128,-1,65
 382 433 382 433 404 403 c 0,0,1
EndSplineSet
EndChar

StartChar: d
Encoding: 100 100 89
Width: 625
Flags: W
LayerCount: 2
Fore
SplineSet
492 0 m 1,0,-1
 323 -1 l 1,1,-1
 323 42 l 1,2,3
 302 28 302 28 276 18.5 c 0,4,5
 250 10 250 10 220 4 c 0,6,7
 178 -1 178 -1 165 -2 c 0,8,-1
 165 -2 l 1,9,10
 162 -2 162 -2 160 -2 c 0,11,12
 130 -2 130 -2 102 7 c 1,13,14
 57 28 57 28 31 70 c 128,-1,15
 5 112 5 112 0 157 c 1,16,17
 -1 181 -1 181 -1 207 c 0,18,19
 -0 220 -0 220 -0 233 c 0,20,21
 0 273 0 273 2 305 c 1,22,23
 7 333 7 333 22 359.5 c 128,-1,24
 37 386 37 386 62 407 c 128,-1,25
 87 428 87 428 122 441 c 128,-1,26
 157 454 157 454 200 456 c 0,27,28
 207 456 207 456 214 456 c 0,29,30
 238 456 238 456 259 451 c 0,31,32
 286 444 286 444 320 427 c 1,33,-1
 319 320 l 1,34,35
 311 338 311 338 298.5 346.5 c 128,-1,36
 286 355 286 355 271 354 c 0,37,38
 237 353 237 353 221 339.5 c 128,-1,39
 205 326 205 326 199 305 c 128,-1,40
 193 284 193 284 192.5 258.5 c 128,-1,41
 192 233 192 233 190 207 c 0,42,43
 190 202 190 202 190 197 c 0,44,45
 190 185 190 185 192 175 c 0,46,47
 194 160 194 160 200.5 149 c 128,-1,48
 207 138 207 138 220 132 c 0,49,50
 230 127 230 127 244 127 c 0,51,52
 248 127 248 127 253 127 c 0,53,54
 282 129 282 129 301.5 147.5 c 128,-1,55
 321 166 321 166 325 192 c 1,56,-1
 335 666 l 1,57,-1
 504 666 l 1,58,-1
 492 0 l 1,0,-1
EndSplineSet
EndChar

StartChar: e
Encoding: 101 101 90
Width: 471
Flags: W
LayerCount: 2
Fore
SplineSet
200 470 m 0,0,1
 227 470 227 470 253.5 464 c 128,-1,2
 280 458 280 458 304 445 c 128,-1,3
 328 432 328 432 346 411 c 128,-1,4
 364 390 364 390 372 361 c 0,5,6
 377 341 377 341 377 324.5 c 128,-1,7
 377 308 377 308 372 296 c 0,8,9
 362 271 362 271 343 257 c 128,-1,10
 324 243 324 243 301.5 237 c 128,-1,11
 279 231 279 231 266 230 c 0,12,13
 258 229 258 229 243.5 229 c 128,-1,14
 229 229 229 229 214 230 c 1,15,16
 196 230 196 230 176 231 c 1,17,-1
 183 287 l 1,18,19
 189 288 189 288 196 289 c 128,-1,20
 203 290 203 290 211.5 291 c 128,-1,21
 220 292 220 292 228 294 c 1,22,23
 260 297 260 297 268 312.5 c 128,-1,24
 276 328 276 328 272 339 c 0,25,26
 272 340 272 340 270.5 344 c 128,-1,27
 269 348 269 348 265 352.5 c 128,-1,28
 261 357 261 357 255 360.5 c 128,-1,29
 249 364 249 364 239 364 c 0,30,31
 180 364 180 364 174 286 c 0,32,33
 173 272 173 272 171.5 255 c 128,-1,34
 170 238 170 238 169.5 223 c 128,-1,35
 169 208 169 208 169 197 c 128,-1,36
 169 186 169 186 169 182 c 0,37,38
 170 173 170 173 177 167.5 c 128,-1,39
 184 162 184 162 193 160 c 128,-1,40
 202 158 202 158 210 157.5 c 128,-1,41
 218 157 218 157 222 157 c 0,42,43
 235 157 235 157 255 170 c 128,-1,44
 275 183 275 183 295 197 c 0,45,46
 305 204 305 204 319 201 c 128,-1,47
 333 198 333 198 345 188.5 c 128,-1,48
 357 179 357 179 363 164 c 0,49,50
 367 155 367 155 367 146 c 0,51,52
 367 140 367 140 365 133 c 0,53,54
 364 128 364 128 351 106.5 c 128,-1,55
 338 85 338 85 314.5 61.5 c 128,-1,56
 291 38 291 38 256.5 19 c 128,-1,57
 222 0 222 0 178 0 c 0,58,59
 132 0 132 0 99.5 14.5 c 128,-1,60
 67 29 67 29 47 48 c 128,-1,61
 27 67 27 67 17.5 85.5 c 128,-1,62
 8 104 8 104 7 111 c 2,63,-1
 5 270 l 1,64,65
 6 310 6 310 21.5 346.5 c 128,-1,66
 37 383 37 383 63 410.5 c 128,-1,67
 89 438 89 438 124 454 c 128,-1,68
 159 470 159 470 200 470 c 0,0,1
EndSplineSet
EndChar

StartChar: f
Encoding: 102 102 91
Width: 472
Flags: W
LayerCount: 2
Fore
SplineSet
421 583 m 1,0,1
 419 584 419 584 410 584.5 c 128,-1,2
 401 585 401 585 390.5 586 c 128,-1,3
 380 587 380 587 370.5 587.5 c 128,-1,4
 361 588 361 588 357 588 c 0,5,6
 310 588 310 588 287.5 571 c 128,-1,7
 265 554 265 554 257 530 c 128,-1,8
 249 506 249 506 249 480 c 128,-1,9
 249 454 249 454 249 436 c 1,10,-1
 353 436 l 1,11,-1
 352 335 l 1,12,-1
 243 334 l 1,13,-1
 237 0 l 1,14,-1
 75 -1 l 1,15,-1
 81 336 l 1,16,-1
 -18 337 l 1,17,18
 -18 363 -18 363 -18 384 c 0,19,20
 -18 402 -18 402 -17.5 418.5 c 128,-1,21
 -17 435 -17 435 -16 438 c 1,22,-1
 86 438 l 1,23,24
 87 499 87 499 90 541 c 128,-1,25
 93 583 93 583 108.5 608.5 c 128,-1,26
 124 634 124 634 158 645 c 128,-1,27
 192 656 192 656 255 656 c 0,28,29
 274 656 274 656 296.5 655 c 128,-1,30
 319 654 319 654 341 652 c 128,-1,31
 363 650 363 650 384 647 c 128,-1,32
 405 644 405 644 421 641 c 1,33,-1
 421 583 l 1,0,1
EndSplineSet
EndChar

StartChar: g
Encoding: 103 103 92
Width: 608
Flags: W
LayerCount: 2
Fore
SplineSet
481 -3 m 1,0,1
 478 -56 478 -56 460 -90 c 128,-1,2
 442 -124 442 -124 406 -150 c 1,3,4
 381 -164 381 -164 355.5 -175.5 c 128,-1,5
 330 -187 330 -187 302 -193 c 0,6,7
 275 -198 275 -198 246 -199.5 c 128,-1,8
 217 -201 217 -201 193 -201 c 0,9,10
 165 -201 165 -201 137 -200 c 1,11,12
 138 -197 138 -197 137.5 -188 c 128,-1,13
 137 -179 137 -179 138 -169 c 1,14,15
 138 -158 138 -158 139 -144 c 1,16,17
 177 -141 177 -141 208 -135 c 0,18,19
 236 -130 236 -130 262 -120.5 c 128,-1,20
 288 -111 288 -111 297 -94 c 128,-1,21
 306 -77 306 -77 313.5 -52.5 c 128,-1,22
 321 -28 321 -28 322 0 c 0,23,24
 324 38 324 38 324 80 c 0,25,26
 324 101 324 101 324 121.5 c 128,-1,27
 324 142 324 142 324 162 c 0,28,29
 324 202 324 202 322.5 238.5 c 128,-1,30
 321 275 321 275 320 302 c 1,31,32
 318 328 318 328 304 347 c 0,33,34
 291 365 291 365 261 365 c 0,35,36
 259 365 259 365 258 365 c 0,37,38
 219 365 219 365 202 341.5 c 128,-1,39
 185 318 185 318 179 285 c 0,40,41
 174 260 174 260 174 233 c 0,42,43
 174 224 174 224 175 215 c 0,44,45
 177 178 177 178 178 150 c 1,46,47
 180 133 180 133 202.5 122 c 128,-1,48
 225 111 225 111 255 109 c 0,49,50
 259 109 259 109 268 109 c 128,-1,51
 277 109 277 109 286 110.5 c 128,-1,52
 295 112 295 112 303.5 113.5 c 128,-1,53
 312 115 312 115 314 118 c 1,54,-1
 313 33 l 1,55,56
 285 18 285 18 251 9 c 128,-1,57
 217 0 217 0 182 0 c 128,-1,58
 147 0 147 0 115.5 10 c 128,-1,59
 84 20 84 20 59.5 39.5 c 128,-1,60
 35 59 35 59 19 88 c 128,-1,61
 3 117 3 117 0 155 c 1,62,-1
 5 329 l 1,63,64
 13 357 13 357 33 382.5 c 128,-1,65
 53 408 53 408 81.5 427.5 c 128,-1,66
 110 447 110 447 143.5 458 c 128,-1,67
 177 469 177 469 208 469 c 0,68,69
 236 469 236 469 265.5 461.5 c 128,-1,70
 295 454 295 454 320 442 c 1,71,-1
 321 469 l 1,72,-1
 484 469 l 1,73,-1
 481 -3 l 1,0,1
EndSplineSet
EndChar

StartChar: h
Encoding: 104 104 93
Width: 628
Flags: W
LayerCount: 2
Fore
SplineSet
553 0 m 1,0,-1
 366 0 l 1,1,-1
 371 267 l 2,2,3
 371 293 371 293 355 311 c 0,4,5
 340 328 340 328 316 328 c 0,6,7
 315 328 315 328 313 328 c 0,8,9
 278 327 278 327 259.5 312 c 128,-1,10
 241 297 241 297 232 274 c 128,-1,11
 223 251 223 251 221.5 223.5 c 128,-1,12
 220 196 220 196 220 170 c 2,13,-1
 219 0 l 1,14,-1
 38 0 l 1,15,-1
 40 666 l 1,16,-1
 220 666 l 1,17,-1
 219 395 l 1,18,19
 240 408 240 408 261.5 421 c 128,-1,20
 283 434 283 434 305 444.5 c 128,-1,21
 327 455 327 455 351 461.5 c 128,-1,22
 375 468 375 468 401 468 c 0,23,24
 458 468 458 468 501 435 c 128,-1,25
 544 402 544 402 555 342 c 1,26,-1
 553 0 l 1,0,-1
EndSplineSet
EndChar

StartChar: i
Encoding: 105 105 94
Width: 354
Flags: W
LayerCount: 2
Fore
SplineSet
229 469 m 1,0,-1
 168 469 l 1,1,-1
 169 445 l 1,2,-1
 228 445 l 1,3,-1
 220 0 l 1,4,-1
 59 0 l 1,5,-1
 63 446 l 1,6,-1
 124 446 l 1,7,-1
 125 469 l 1,8,-1
 64 469 l 1,9,-1
 63 594 l 1,10,-1
 227 594 l 1,11,-1
 229 469 l 1,0,-1
EndSplineSet
EndChar

StartChar: j
Encoding: 106 106 95
Width: 377
Flags: W
LayerCount: 2
Fore
SplineSet
258 469 m 1,0,-1
 233 469 l 2,1,2
 222 469 222 469 211.5 468.5 c 128,-1,3
 201 468 201 468 193 469 c 1,4,-1
 193 445 l 1,5,-1
 257 445 l 1,6,-1
 253 36 l 2,7,8
 253 -20 253 -20 233.5 -64 c 128,-1,9
 214 -108 214 -108 180 -138 c 128,-1,10
 146 -168 146 -168 99.5 -183.5 c 128,-1,11
 53 -199 53 -199 -1 -200 c 1,12,-1
 -57 -200 l 1,13,-1
 -54 -130 l 1,14,15
 22 -122 22 -122 50 -86 c 0,16,17
 77 -51 77 -51 76 19 c 0,18,19
 76 22 76 22 76 24 c 0,20,21
 76 45 76 45 76 74.5 c 128,-1,22
 76 104 76 104 76 137.5 c 128,-1,23
 76 171 76 171 76 207 c 128,-1,24
 76 243 76 243 76 277 c 0,25,26
 76 317 76 317 76 359.5 c 128,-1,27
 76 402 76 402 76 446 c 1,28,-1
 144 446 l 1,29,-1
 145 468 l 1,30,-1
 77 468 l 1,31,-1
 78 594 l 1,32,-1
 256 594 l 1,33,-1
 258 469 l 1,0,-1
EndSplineSet
EndChar

StartChar: k
Encoding: 107 107 96
Width: 571
Flags: W
LayerCount: 2
Fore
SplineSet
503 316 m 1,0,1
 472 290 472 290 442 262 c 128,-1,2
 412 234 412 234 385 205 c 1,3,4
 392 197 392 197 403 184 c 128,-1,5
 414 171 414 171 427.5 155.5 c 128,-1,6
 441 140 441 140 457 122 c 128,-1,7
 473 104 473 104 487 87 c 0,8,9
 522 47 522 47 563 0 c 1,10,-1
 446 0 l 1,11,-1
 221 243 l 1,12,-1
 215 0 l 1,13,-1
 33 0 l 1,14,-1
 38 666 l 1,15,-1
 223 666 l 1,16,-1
 224 366 l 1,17,-1
 258 337 l 1,18,-1
 385 445 l 1,19,20
 416 411 416 411 444.5 378.5 c 128,-1,21
 473 346 473 346 503 316 c 1,0,1
EndSplineSet
EndChar

StartChar: l
Encoding: 108 108 97
Width: 374
Flags: W
LayerCount: 2
Fore
SplineSet
335 23 m 1,0,1
 307 14 307 14 281 7 c 128,-1,2
 255 0 255 0 223 -1 c 0,3,4
 197 -1 197 -1 165.5 3 c 128,-1,5
 134 7 134 7 103.5 20.5 c 128,-1,6
 73 34 73 34 46.5 60.5 c 128,-1,7
 20 87 20 87 5 131 c 1,8,-1
 -3 177 l 1,9,10
 -2 211 -2 211 -1 250 c 128,-1,11
 0 289 0 289 1 330 c 128,-1,12
 2 371 2 371 3 411.5 c 128,-1,13
 4 452 4 452 5 490 c 0,14,15
 7 577 7 577 11 666 c 1,16,-1
 195 666 l 1,17,-1
 172 181 l 2,18,19
 172 177 172 177 172 172 c 0,20,21
 172 116 172 116 196 92 c 0,22,23
 222 66 222 66 283 67 c 0,24,25
 285 67 285 67 288 67 c 0,26,27
 299 67 299 67 312 70 c 128,-1,28
 325 73 325 73 336 75 c 1,29,-1
 335 23 l 1,0,1
EndSplineSet
EndChar

StartChar: m
Encoding: 109 109 98
Width: 955
Flags: W
LayerCount: 2
Fore
SplineSet
866 359 m 0,0,1
 866 353 866 353 865 334 c 128,-1,2
 864 315 864 315 863.5 288.5 c 128,-1,3
 863 262 863 262 861 230.5 c 128,-1,4
 859 199 859 199 858 167 c 0,5,6
 854 91 854 91 849 0 c 1,7,-1
 668 0 l 1,8,-1
 684 304 l 2,9,10
 684 330 684 330 668 348 c 0,11,12
 653 364 653 364 629 364 c 0,13,14
 626 364 626 364 624 364 c 0,15,16
 591 363 591 363 568.5 346 c 128,-1,17
 546 329 546 329 543 296 c 1,18,-1
 529 0 l 1,19,-1
 351 0 l 1,20,21
 353 45 353 45 355 87 c 0,22,23
 357 122 357 122 359 160 c 128,-1,24
 361 198 361 198 362 222 c 0,25,26
 362 241 362 241 363 265 c 0,27,28
 363 269 363 269 363 273 c 0,29,30
 363 292 363 292 359 310 c 0,31,32
 354 332 354 332 341 347 c 128,-1,33
 328 362 328 362 299 362 c 0,34,35
 252 362 252 362 235 334.5 c 128,-1,36
 218 307 218 307 217 261 c 2,37,-1
 209 0 l 1,38,-1
 46 0 l 1,39,-1
 55 469 l 1,40,-1
 234 469 l 1,41,-1
 233 416 l 1,42,43
 262 439 262 439 299.5 453 c 128,-1,44
 337 467 337 467 379 469 c 0,45,46
 388 469 388 469 397 469 c 0,47,48
 410 468 410 468 422 468 c 0,49,50
 444 466 444 466 463.5 459.5 c 128,-1,51
 483 453 483 453 500.5 439 c 128,-1,52
 518 425 518 425 531 403 c 1,53,54
 536 408 536 408 555 419 c 128,-1,55
 574 430 574 430 601.5 441 c 128,-1,56
 629 452 629 452 665 460.5 c 128,-1,57
 701 469 701 469 740 469 c 0,58,59
 763 469 763 469 785.5 461.5 c 128,-1,60
 808 454 808 454 826.5 439.5 c 128,-1,61
 845 425 845 425 855.5 404.5 c 128,-1,62
 866 384 866 384 866 359 c 0,0,1
EndSplineSet
EndChar

StartChar: n
Encoding: 110 110 99
Width: 643
Flags: W
LayerCount: 2
Fore
SplineSet
567 0 m 1,0,-1
 368 0 l 1,1,-1
 375 323 l 2,2,3
 376 351 376 351 360.5 363.5 c 128,-1,4
 345 376 345 376 321 376 c 0,5,6
 279 376 279 376 255.5 356.5 c 128,-1,7
 232 337 232 337 230 315 c 0,8,9
 229 297 229 297 228 274 c 128,-1,10
 227 251 227 251 226 225.5 c 128,-1,11
 225 200 225 200 224.5 173.5 c 128,-1,12
 224 147 224 147 224 122 c 0,13,14
 222 63 222 63 222 0 c 1,15,-1
 47 0 l 1,16,-1
 58 469 l 1,17,-1
 234 469 l 1,18,-1
 233 411 l 1,19,20
 246 424 246 424 269.5 435 c 128,-1,21
 293 446 293 446 321.5 454.5 c 128,-1,22
 350 463 350 463 377 467.5 c 128,-1,23
 404 472 404 472 423 472 c 0,24,25
 451 472 451 472 476 466 c 128,-1,26
 501 460 501 460 519.5 446.5 c 128,-1,27
 538 433 538 433 549.5 412 c 128,-1,28
 561 391 561 391 562 361 c 2,29,-1
 567 0 l 1,0,-1
EndSplineSet
EndChar

StartChar: o
Encoding: 111 111 100
Width: 500
Flags: W
LayerCount: 2
Fore
SplineSet
251 472 m 1,0,1
 262 472 262 472 288.5 467.5 c 128,-1,2
 315 463 315 463 343.5 450 c 128,-1,3
 372 437 372 437 395.5 415.5 c 128,-1,4
 419 394 419 394 425 361 c 0,5,6
 427 350 427 350 427 327 c 128,-1,7
 427 304 427 304 426.5 277.5 c 128,-1,8
 426 251 426 251 425 226 c 128,-1,9
 424 201 424 201 423 188 c 0,10,11
 421 159 421 159 405.5 126 c 128,-1,12
 390 93 390 93 359.5 64.5 c 128,-1,13
 329 36 329 36 282 17.5 c 128,-1,14
 235 -1 235 -1 169 -1 c 0,15,16
 121 -1 121 -1 90.5 12 c 128,-1,17
 60 25 60 25 43 43.5 c 128,-1,18
 26 62 26 62 18.5 81.5 c 128,-1,19
 11 101 11 101 9 114 c 0,20,21
 6 128 6 128 6 159 c 128,-1,22
 6 190 6 190 6 222 c 0,23,24
 6 260 6 260 8 304 c 1,25,26
 17 341 17 341 39 368.5 c 128,-1,27
 61 396 61 396 90 416 c 128,-1,28
 119 436 119 436 152 449 c 128,-1,29
 185 462 185 462 215 468 c 1,30,-1
 213 342 l 1,31,32
 209 338 209 338 205.5 333 c 128,-1,33
 202 328 202 328 199 320 c 0,34,35
 193 305 193 305 190.5 284 c 128,-1,36
 188 263 188 263 187 242 c 128,-1,37
 186 221 186 221 186 203 c 128,-1,38
 186 185 186 185 186 175 c 0,39,40
 186 171 186 171 187 166 c 128,-1,41
 188 161 188 161 193 156.5 c 128,-1,42
 198 152 198 152 207.5 148.5 c 128,-1,43
 217 145 217 145 234 145 c 0,44,45
 277 145 277 145 295.5 161 c 128,-1,46
 314 177 314 177 317 189 c 0,47,48
 318 195 318 195 320 212.5 c 128,-1,49
 322 230 322 230 323 250 c 128,-1,50
 324 270 324 270 325 289 c 128,-1,51
 326 308 326 308 327 316 c 1,52,53
 327 332 327 332 316.5 347.5 c 128,-1,54
 306 363 306 363 280 363 c 0,55,56
 263 363 263 363 252 360 c 128,-1,57
 241 357 241 357 235 354 c 0,58,59
 228 350 228 350 223 346 c 1,60,-1
 225 469 l 1,61,-1
 251 472 l 1,0,1
EndSplineSet
EndChar

StartChar: p
Encoding: 112 112 101
Width: 631
Flags: W
LayerCount: 2
Fore
SplineSet
223 469 m 1,0,-1
 222 417 l 1,1,2
 233 422 233 422 249.5 431 c 128,-1,3
 266 440 266 440 285.5 448.5 c 128,-1,4
 305 457 305 457 325.5 463.5 c 128,-1,5
 346 470 346 470 366 470 c 0,6,7
 394 470 394 470 421.5 462 c 128,-1,8
 449 454 449 454 472.5 439.5 c 128,-1,9
 496 425 496 425 512.5 405 c 128,-1,10
 529 385 529 385 534 361 c 0,11,12
 537 350 537 350 538.5 324.5 c 128,-1,13
 540 299 540 299 540.5 270.5 c 128,-1,14
 541 242 541 242 541 216.5 c 128,-1,15
 541 191 541 191 540 180 c 0,16,17
 537 140 537 140 521 106.5 c 128,-1,18
 505 73 505 73 478 49 c 128,-1,19
 451 25 451 25 414 12 c 128,-1,20
 377 -1 377 -1 335 -1 c 0,21,22
 319 -1 319 -1 301 1 c 128,-1,23
 283 3 283 3 266 6 c 0,24,25
 248 9 248 9 229 13 c 1,26,-1
 229 94 l 1,27,28
 233 91 233 91 240 89 c 0,29,30
 245 87 245 87 253.5 86 c 128,-1,31
 262 85 262 85 272 86 c 0,32,33
 287 87 287 87 302.5 95 c 128,-1,34
 318 103 318 103 330.5 118.5 c 128,-1,35
 343 134 343 134 351 156 c 128,-1,36
 359 178 359 178 360 207 c 0,37,38
 360 212 360 212 360.5 224.5 c 128,-1,39
 361 237 361 237 361.5 251.5 c 128,-1,40
 362 266 362 266 361.5 278.5 c 128,-1,41
 361 291 361 291 360 296 c 0,42,43
 356 307 356 307 342 317 c 0,44,45
 330 325 330 325 315 325 c 0,46,47
 312 325 312 325 308 325 c 0,48,49
 268 323 268 323 245.5 305 c 128,-1,50
 223 287 223 287 222 262 c 0,51,52
 221 259 221 259 221 238 c 128,-1,53
 221 217 221 217 220 184 c 128,-1,54
 219 151 219 151 218 110 c 128,-1,55
 217 69 217 69 217 26 c 0,56,57
 215 -74 215 -74 214 -200 c 1,58,-1
 43 -200 l 1,59,-1
 52 469 l 1,60,-1
 223 469 l 1,0,-1
EndSplineSet
EndChar

StartChar: q
Encoding: 113 113 102
Width: 611
Flags: W
LayerCount: 2
Fore
SplineSet
499 468 m 1,0,-1
 501 -200 l 1,1,-1
 329 -201 l 1,2,3
 328 -52 328 -52 327 67 c 0,4,5
 327 117 327 117 327 165.5 c 128,-1,6
 327 214 327 214 327 252.5 c 128,-1,7
 327 291 327 291 326.5 315.5 c 128,-1,8
 326 340 326 340 326 342 c 0,9,10
 324 349 324 349 307 360 c 128,-1,11
 290 371 290 371 269 371 c 0,12,13
 251 371 251 371 238 365 c 128,-1,14
 225 359 225 359 216.5 350 c 128,-1,15
 208 341 208 341 203.5 330 c 128,-1,16
 199 319 199 319 200 309 c 1,17,18
 199 278 199 278 198 251 c 0,19,20
 197 228 197 228 197 205.5 c 128,-1,21
 197 183 197 183 200 172 c 1,22,23
 202 160 202 160 209 152 c 128,-1,24
 216 144 216 144 224.5 139.5 c 128,-1,25
 233 135 233 135 241.5 133 c 128,-1,26
 250 131 250 131 256 131 c 0,27,28
 267 131 267 131 277.5 136 c 128,-1,29
 288 141 288 141 297 148 c 0,30,31
 307 156 307 156 316 166 c 1,32,-1
 316 50 l 1,33,34
 304 40 304 40 291.5 30 c 128,-1,35
 279 20 279 20 264 11.5 c 128,-1,36
 249 3 249 3 229.5 -3 c 128,-1,37
 210 -9 210 -9 184 -10 c 0,38,39
 181 -10 181 -10 179 -10 c 0,40,41
 158 -10 158 -10 132 -3 c 0,42,43
 104 5 104 5 79 20 c 128,-1,44
 54 35 54 35 36.5 56.5 c 128,-1,45
 19 78 19 78 15 104 c 0,46,47
 14 110 14 110 14 123 c 0,48,49
 14 129 14 129 13.5 136.5 c 0,50,51
 14 144 14 144 14 153 c 0,52,53
 14 170 14 170 15 190.5 c 128,-1,54
 16 211 16 211 16 232 c 0,55,56
 18 280 18 280 22 337 c 1,57,58
 29 368 29 368 47 392.5 c 128,-1,59
 65 417 65 417 89 434 c 128,-1,60
 113 451 113 451 140.5 460 c 128,-1,61
 168 469 168 469 195 469 c 0,62,63
 221 469 221 469 240 465.5 c 128,-1,64
 259 462 259 462 273.5 457 c 128,-1,65
 288 452 288 452 300.5 446.5 c 128,-1,66
 313 441 313 441 326 436 c 1,67,-1
 328 469 l 1,68,-1
 499 468 l 1,0,-1
EndSplineSet
EndChar

StartChar: r
Encoding: 114 114 103
Width: 552
Flags: W
LayerCount: 2
Fore
SplineSet
489 346 m 1,0,1
 462 317 462 317 433 288.5 c 128,-1,2
 404 260 404 260 376 231 c 1,3,4
 380 244 380 244 382 268 c 0,5,6
 383 277 383 277 383 285 c 0,7,8
 382 300 382 300 380 316 c 0,9,10
 376 340 376 340 363.5 357.5 c 128,-1,11
 351 375 351 375 324 375 c 0,12,13
 288 375 288 375 266 358.5 c 128,-1,14
 244 342 244 342 231.5 316.5 c 128,-1,15
 219 291 219 291 214.5 260 c 128,-1,16
 210 229 210 229 208 199 c 1,17,-1
 204 0 l 1,18,-1
 31 0 l 1,19,-1
 34 469 l 1,20,-1
 217 469 l 1,21,-1
 217 419 l 1,22,23
 232 426 232 426 246.5 434.5 c 128,-1,24
 261 443 261 443 276 450.5 c 128,-1,25
 291 458 291 458 308.5 463.5 c 128,-1,26
 326 469 326 469 347 469 c 0,27,28
 370 469 370 469 385.5 465.5 c 128,-1,29
 401 462 401 462 413 454.5 c 128,-1,30
 425 447 425 447 436 436.5 c 128,-1,31
 447 426 447 426 460 412 c 1,32,33
 473 396 473 396 479 380 c 128,-1,34
 485 364 485 364 489 346 c 1,0,1
EndSplineSet
EndChar

StartChar: s
Encoding: 115 115 104
Width: 489
Flags: W
LayerCount: 2
Fore
SplineSet
404 404 m 0,0,1
 412 390 412 390 416.5 374.5 c 128,-1,2
 421 359 421 359 419 346.5 c 128,-1,3
 417 334 417 334 407.5 325 c 128,-1,4
 398 316 398 316 379 315 c 0,5,6
 363 314 363 314 352 324 c 128,-1,7
 341 334 341 334 331 346 c 128,-1,8
 321 358 321 358 310.5 368 c 128,-1,9
 300 378 300 378 284 377 c 0,10,11
 267 376 267 376 251.5 365 c 128,-1,12
 236 354 236 354 234 337 c 1,13,14
 235 327 235 327 242 319.5 c 128,-1,15
 249 312 249 312 256 307 c 1,16,17
 278 300 278 300 306 290.5 c 128,-1,18
 334 281 334 281 359.5 265.5 c 128,-1,19
 385 250 385 250 403 227 c 128,-1,20
 421 204 421 204 422 170 c 1,21,22
 419 79 419 79 357 39.5 c 128,-1,23
 295 0 295 0 192 0 c 0,24,25
 165 0 165 0 137.5 5.5 c 128,-1,26
 110 11 110 11 86.5 24.5 c 128,-1,27
 63 38 63 38 45.5 59.5 c 128,-1,28
 28 81 28 81 21 113 c 0,29,30
 18 128 18 128 18 140 c 0,31,32
 18 164 18 164 29 182 c 0,33,34
 46 210 46 210 87 215 c 0,35,36
 95 216 95 216 103 216 c 0,37,38
 124 216 124 216 140 208 c 0,39,40
 164 197 164 197 184.5 182.5 c 128,-1,41
 205 168 205 168 226 156 c 0,42,43
 244 146 244 146 266 147 c 0,44,45
 270 147 270 147 274 147 c 0,46,47
 289 150 289 150 296 162 c 0,48,49
 304 177 304 177 304 191 c 0,50,51
 304 209 304 209 288 222 c 1,52,53
 277 229 277 229 252.5 232.5 c 128,-1,54
 228 236 228 236 199.5 238.5 c 128,-1,55
 171 241 171 241 144.5 244.5 c 128,-1,56
 118 248 118 248 103 254 c 0,57,58
 91 259 91 259 79 266.5 c 128,-1,59
 67 274 67 274 56.5 283.5 c 128,-1,60
 46 293 46 293 39 304.5 c 128,-1,61
 32 316 32 316 32 329 c 0,62,63
 32 359 32 359 52 385 c 128,-1,64
 72 411 72 411 104.5 429.5 c 128,-1,65
 137 448 137 448 178.5 458.5 c 128,-1,66
 220 469 220 469 263 469 c 0,67,68
 283 469 283 469 303.5 465.5 c 128,-1,69
 324 462 324 462 343 454.5 c 128,-1,70
 362 447 362 447 377.5 434.5 c 128,-1,71
 393 422 393 422 404 404 c 0,0,1
EndSplineSet
EndChar

StartChar: t
Encoding: 116 116 105
Width: 469
Flags: W
LayerCount: 2
Fore
SplineSet
407 340 m 1,0,-1
 263 340 l 1,1,-1
 265 0 l 1,2,-1
 101 0 l 1,3,-1
 104 319 l 1,4,-1
 -18 320 l 1,5,-1
 -16 431 l 1,6,-1
 101 431 l 1,7,8
 105 440 105 440 105.5 453 c 128,-1,9
 106 466 106 466 116 473 c 0,10,11
 159 502 159 502 187 541 c 128,-1,12
 215 580 215 580 234 625 c 1,13,14
 243 641 243 641 261 644 c 1,15,-1
 258 447 l 1,16,-1
 406 448 l 1,17,-1
 407 340 l 1,0,-1
EndSplineSet
EndChar

StartChar: u
Encoding: 117 117 106
Width: 608
Flags: W
LayerCount: 2
Fore
SplineSet
507 0 m 1,0,-1
 331 0 l 1,1,-1
 332 47 l 1,2,3
 317 40 317 40 300.5 32 c 128,-1,4
 284 24 284 24 265 16.5 c 128,-1,5
 246 9 246 9 222.5 4 c 128,-1,6
 199 -1 199 -1 170 -1 c 0,7,8
 126 -1 126 -1 98 11.5 c 128,-1,9
 70 24 70 24 53.5 44.5 c 128,-1,10
 37 65 37 65 30.5 90 c 128,-1,11
 24 115 24 115 23 140 c 0,12,13
 23 144 23 144 23 160.5 c 128,-1,14
 23 177 23 177 23 201 c 128,-1,15
 23 225 23 225 23.5 254 c 128,-1,16
 24 283 24 283 24 313 c 0,17,18
 24 383 24 383 25 469 c 1,19,-1
 109 469 l 1,20,-1
 209 469 l 1,21,-1
 208 448 l 2,22,23
 207 427 207 427 206.5 395 c 128,-1,24
 206 363 206 363 204.5 325.5 c 128,-1,25
 203 288 203 288 202 254 c 128,-1,26
 201 220 201 220 200 194.5 c 128,-1,27
 199 169 199 169 199 162 c 0,28,29
 200 133 200 133 219 124.5 c 128,-1,30
 238 116 238 116 263 116 c 0,31,32
 271 116 271 116 282 121 c 128,-1,33
 293 126 293 126 304 134 c 128,-1,34
 315 142 315 142 322 153 c 128,-1,35
 329 164 329 164 330 175 c 0,36,37
 330 182 330 182 331 198.5 c 128,-1,38
 332 215 332 215 332.5 237 c 128,-1,39
 333 259 333 259 334 285 c 128,-1,40
 335 311 335 311 336 337 c 0,41,42
 337 398 337 398 341 469 c 1,43,-1
 508 469 l 1,44,-1
 507 0 l 1,0,-1
EndSplineSet
EndChar

StartChar: v
Encoding: 118 118 107
Width: 518
Flags: W
LayerCount: 2
Fore
SplineSet
240 0 m 1,0,-1
 69 0 l 1,1,-1
 -46 469 l 1,2,-1
 111 469 l 1,3,4
 129 406 129 406 143 351 c 0,5,6
 155 304 155 304 168 259 c 128,-1,7
 181 214 181 214 186 194 c 1,8,9
 190 197 190 197 198.5 211 c 128,-1,10
 207 225 207 225 220 245 c 128,-1,11
 233 265 233 265 248 289.5 c 128,-1,12
 263 314 263 314 278 339 c 0,13,14
 314 397 314 397 358 469 c 1,15,-1
 502 469 l 1,16,-1
 240 0 l 1,0,-1
EndSplineSet
EndChar

StartChar: w
Encoding: 119 119 108
Width: 905
Flags: W
LayerCount: 2
Fore
SplineSet
589 0 m 1,0,-1
 407 0 l 1,1,-1
 362 161 l 1,2,-1
 240 0 l 1,3,-1
 47 0 l 1,4,-1
 -43 469 l 1,5,-1
 135 469 l 1,6,-1
 195 199 l 1,7,-1
 367 469 l 1,8,-1
 476 469 l 1,9,10
 486 410 486 410 497 355 c 0,11,12
 502 332 502 332 506 307 c 128,-1,13
 510 282 510 282 515 259 c 128,-1,14
 520 236 520 236 524 215.5 c 128,-1,15
 528 195 528 195 531 180 c 1,16,17
 534 184 534 184 544 198 c 128,-1,18
 554 212 554 212 568.5 233 c 128,-1,19
 583 254 583 254 599 280 c 128,-1,20
 615 306 615 306 631 332 c 0,21,22
 669 394 669 394 717 469 c 1,23,-1
 871 469 l 1,24,-1
 589 0 l 1,0,-1
EndSplineSet
EndChar

StartChar: x
Encoding: 120 120 109
Width: 551
Flags: W
LayerCount: 2
Fore
SplineSet
311 258 m 1,0,-1
 469 0 l 1,1,-1
 282 0 l 1,2,-1
 202 131 l 1,3,-1
 85 0 l 1,4,-1
 -68 0 l 1,5,-1
 134 234 l 1,6,-1
 -14 469 l 1,7,-1
 172 469 l 1,8,-1
 246 358 l 1,9,-1
 344 469 l 1,10,-1
 496 469 l 1,11,-1
 311 258 l 1,0,-1
EndSplineSet
EndChar

StartChar: y
Encoding: 121 121 110
Width: 651
Flags: W
LayerCount: 2
Fore
SplineSet
534 -52 m 2,0,1
 533 -86 533 -86 517 -113.5 c 128,-1,2
 501 -141 501 -141 475 -160.5 c 128,-1,3
 449 -180 449 -180 415.5 -190.5 c 128,-1,4
 382 -201 382 -201 346 -201 c 0,5,6
 279 -201 279 -201 210.5 -182.5 c 128,-1,7
 142 -164 142 -164 78 -132 c 1,8,9
 75 -120 75 -120 76 -108 c 128,-1,10
 77 -96 77 -96 76 -83 c 1,11,12
 112 -91 112 -91 151 -100 c 0,13,14
 180 -107 180 -107 211 -107 c 0,15,16
 221 -107 221 -107 231 -106 c 0,17,18
 277 -103 277 -103 304.5 -95 c 128,-1,19
 332 -87 332 -87 347 -70.5 c 128,-1,20
 362 -54 362 -54 365 -28 c 0,21,22
 367 -15 367 -15 366.5 2 c 128,-1,23
 366 19 366 19 365 39 c 1,24,25
 331 15 331 15 297 -3 c 128,-1,26
 263 -21 263 -21 219 -24 c 0,27,28
 211 -24 211 -24 204 -24 c 0,29,30
 179 -24 179 -24 154 -20 c 0,31,32
 122 -14 122 -14 94.5 3 c 128,-1,33
 67 20 67 20 46.5 45.5 c 128,-1,34
 26 71 26 71 18 106 c 1,35,-1
 19 469 l 1,36,-1
 197 469 l 1,37,38
 196 408 196 408 193 351 c 0,39,40
 192 327 192 327 191.5 301 c 128,-1,41
 191 275 191 275 191 250 c 128,-1,42
 191 225 191 225 191 203 c 128,-1,43
 191 181 191 181 191 163 c 0,44,45
 191 150 191 150 198 140 c 128,-1,46
 205 130 205 130 215.5 123 c 128,-1,47
 226 116 226 116 238 112.5 c 128,-1,48
 250 109 250 109 261 109 c 0,49,50
 303 109 303 109 328.5 136 c 128,-1,51
 354 163 354 163 354 207 c 2,52,-1
 355 469 l 1,53,-1
 541 469 l 1,54,-1
 534 -52 l 2,0,1
EndSplineSet
EndChar

StartChar: z
Encoding: 122 122 111
Width: 601
Flags: W
LayerCount: 2
Fore
SplineSet
480 366 m 1,0,-1
 301 108 l 1,1,-1
 467 108 l 1,2,-1
 464 0 l 1,3,-1
 31 0 l 1,4,-1
 33 78 l 1,5,-1
 228 353 l 1,6,-1
 35 353 l 1,7,-1
 34 469 l 1,8,-1
 479 469 l 1,9,-1
 480 366 l 1,0,-1
EndSplineSet
EndChar

StartChar: braceleft
Encoding: 123 123 112
Width: 391
Flags: W
LayerCount: 2
Fore
SplineSet
205 503 m 0,0,1
 205 487 205 487 197.5 469.5 c 128,-1,2
 190 452 190 452 179 435 c 128,-1,3
 168 418 168 418 153.5 402 c 128,-1,4
 139 386 139 386 123 373 c 1,5,6
 136 354 136 354 151 333 c 128,-1,7
 166 312 166 312 178 292 c 128,-1,8
 190 272 190 272 197.5 255 c 128,-1,9
 205 238 205 238 205 228 c 0,10,11
 204 215 204 215 203.5 207.5 c 128,-1,12
 203 200 203 200 203 193.5 c 128,-1,13
 203 187 203 187 203 180.5 c 128,-1,14
 203 174 203 174 203 162 c 0,15,16
 204 133 204 133 220.5 113.5 c 128,-1,17
 237 94 237 94 255 85 c 1,18,-1
 258 -68 l 1,19,20
 207 -52 207 -52 166 -23 c 0,21,22
 130 2 130 2 99 43.5 c 128,-1,23
 68 85 68 85 63 147 c 1,24,25
 63 162 63 162 63 176 c 0,26,27
 63 188 63 188 63.5 199.5 c 128,-1,28
 64 211 64 211 64 219 c 0,29,30
 64 234 64 234 53.5 255 c 128,-1,31
 43 276 43 276 28.5 297.5 c 128,-1,32
 14 319 14 319 -2.5 339.5 c 128,-1,33
 -19 360 -19 360 -33 374 c 1,34,35
 -22 384 -22 384 -5.5 400 c 128,-1,36
 11 416 11 416 26.5 435 c 128,-1,37
 42 454 42 454 53 473.5 c 128,-1,38
 64 493 64 493 65 510 c 1,39,-1
 65 598 l 2,40,41
 65 629 65 629 73.5 652 c 128,-1,42
 82 675 82 675 95.5 692 c 128,-1,43
 109 709 109 709 126 720.5 c 128,-1,44
 143 732 143 732 162 740 c 0,45,46
 204 758 204 758 259 760 c 1,47,-1
 256 615 l 1,48,49
 243 611 243 611 225.5 594.5 c 128,-1,50
 208 578 208 578 205 546 c 0,51,52
 205 538 205 538 205 530 c 0,53,54
 205 523 205 523 205 515.5 c 128,-1,55
 205 508 205 508 205 503 c 0,0,1
EndSplineSet
EndChar

StartChar: bar
Encoding: 124 124 113
Width: 341
Flags: W
LayerCount: 2
Fore
SplineSet
185 666 m 1,0,-1
 181 0 l 1,1,-1
 39 0 l 1,2,-1
 45 666 l 1,3,-1
 185 666 l 1,0,-1
EndSplineSet
EndChar

StartChar: braceright
Encoding: 125 125 114
Width: 391
Flags: W
LayerCount: 2
Fore
SplineSet
91 189 m 1,0,1
 91 205 91 205 98.5 222.5 c 128,-1,2
 106 240 106 240 117.5 257 c 128,-1,3
 129 274 129 274 143 290.5 c 128,-1,4
 157 307 157 307 173 320 c 1,5,6
 159 339 159 339 145 360 c 128,-1,7
 131 381 131 381 118.5 400.5 c 128,-1,8
 106 420 106 420 98.5 436.5 c 128,-1,9
 91 453 91 453 92 464 c 1,10,11
 92 477 92 477 92 484.5 c 128,-1,12
 92 492 92 492 92.5 498.5 c 128,-1,13
 93 505 93 505 93 511.5 c 128,-1,14
 93 518 93 518 93 530 c 0,15,16
 92 559 92 559 75 578.5 c 128,-1,17
 58 598 58 598 42 607 c 1,18,-1
 39 760 l 1,19,20
 90 744 90 744 131 715 c 0,21,22
 149 703 149 703 166 686.5 c 128,-1,23
 183 670 183 670 197.5 649 c 128,-1,24
 212 628 212 628 221.5 602 c 128,-1,25
 231 576 231 576 234 545 c 1,26,27
 234 530 234 530 233 516 c 0,28,29
 233 504 233 504 233 492 c 128,-1,30
 233 480 233 480 232 473 c 1,31,32
 232 458 232 458 242.5 437 c 128,-1,33
 253 416 253 416 267.5 394.5 c 128,-1,34
 282 373 282 373 298.5 352.5 c 128,-1,35
 315 332 315 332 330 318 c 1,36,37
 319 308 319 308 302 292 c 128,-1,38
 285 276 285 276 269.5 257 c 128,-1,39
 254 238 254 238 243 218.5 c 128,-1,40
 232 199 232 199 231 182 c 1,41,-1
 231 94 l 2,42,43
 231 63 231 63 222.5 39.5 c 128,-1,44
 214 16 214 16 200.5 -1 c 128,-1,45
 187 -18 187 -18 170 -30 c 128,-1,46
 153 -42 153 -42 135 -49 c 0,47,48
 92 -67 92 -67 38 -68 c 1,49,-1
 40 77 l 1,50,51
 53 81 53 81 70.5 97.5 c 128,-1,52
 88 114 88 114 92 147 c 0,53,54
 92 154 92 154 91 162 c 0,55,56
 91 169 91 169 90.5 176 c 128,-1,57
 90 183 90 183 91 189 c 1,0,1
EndSplineSet
EndChar

StartChar: asciitilde
Encoding: 126 126 115
Width: 446
Flags: W
LayerCount: 2
Fore
SplineSet
34 259 m 1,0,1
 42 265 42 265 57 269.5 c 128,-1,2
 72 274 72 274 87 277 c 128,-1,3
 102 280 102 280 114.5 281.5 c 128,-1,4
 127 283 127 283 131 283 c 0,5,6
 151 283 151 283 172 279 c 128,-1,7
 193 275 193 275 215 270 c 128,-1,8
 237 265 237 265 259.5 261 c 128,-1,9
 282 257 282 257 305 257 c 0,10,11
 325 257 325 257 336.5 265 c 128,-1,12
 348 273 348 273 358 279 c 1,13,-1
 357 147 l 1,14,15
 344 142 344 142 333 138 c 0,16,17
 322 135 322 135 312.5 132.5 c 128,-1,18
 303 130 303 130 296 130 c 0,19,20
 278 130 278 130 257.5 134.5 c 128,-1,21
 237 139 237 139 214.5 145 c 128,-1,22
 192 151 192 151 169 155.5 c 128,-1,23
 146 160 146 160 125 160 c 128,-1,24
 104 160 104 160 87 156 c 128,-1,25
 70 152 70 152 58 147 c 0,26,27
 44 141 44 141 33 134 c 1,28,-1
 34 259 l 1,0,1
EndSplineSet
EndChar

StartChar: exclamdown
Encoding: 161 161 181
Width: 341
Flags: W
LayerCount: 2
Fore
SplineSet
50 532 m 1,0,-1
 50 666 l 1,1,-1
 190 666 l 1,2,-1
 187 532 l 1,3,-1
 50 532 l 1,0,-1
47 0 m 1,4,-1
 47 481 l 1,5,-1
 190 481 l 1,6,-1
 188 0 l 1,7,-1
 47 0 l 1,4,-1
EndSplineSet
EndChar

StartChar: cent
Encoding: 162 162 150
Width: 511
Flags: W
LayerCount: 2
Fore
SplineSet
78 37 m 1,0,1
 42 64 42 64 26 98 c 0,2,3
 23 105 23 105 19.5 119.5 c 128,-1,4
 16 134 16 134 16 145 c 0,5,6
 17 171 17 171 17 198 c 0,7,8
 17 221 17 221 17 248 c 128,-1,9
 17 275 17 275 18 299 c 0,10,11
 18 322 18 322 27.5 341.5 c 128,-1,12
 37 361 37 361 48 376 c 1,13,14
 69 401 69 401 104 426 c 128,-1,15
 139 451 139 451 184 463 c 1,16,-1
 214 581 l 1,17,-1
 364 532 l 1,18,-1
 345 452 l 1,19,20
 364 443 364 443 379 430.5 c 128,-1,21
 394 418 394 418 404 403 c 0,22,23
 424 376 424 376 426 350 c 0,24,25
 426 346 426 346 426 342 c 0,26,27
 426 322 426 322 415 315 c 0,28,29
 404 307 404 307 395 307 c 0,30,31
 388 307 388 307 382 311 c 0,32,33
 367 320 367 320 358 331 c 1,34,35
 347 348 347 348 327.5 365.5 c 128,-1,36
 308 383 308 383 282 383 c 0,37,38
 276 383 276 383 265.5 382 c 128,-1,39
 255 381 255 381 244 376.5 c 128,-1,40
 233 372 233 372 224 363.5 c 128,-1,41
 215 355 215 355 211 340 c 1,42,43
 206 304 206 304 202 270 c 0,44,45
 201 257 201 257 201 244 c 0,46,47
 201 221 201 221 205 197 c 0,48,49
 206 189 206 189 208.5 181 c 128,-1,50
 211 173 211 173 216.5 166.5 c 128,-1,51
 222 160 222 160 231.5 155.5 c 128,-1,52
 241 151 241 151 256 151 c 0,53,54
 285 151 285 151 305.5 167.5 c 128,-1,55
 326 184 326 184 346 203 c 1,56,57
 360 210 360 210 375 208.5 c 128,-1,58
 390 207 390 207 402 198.5 c 128,-1,59
 414 190 414 190 420.5 176.5 c 128,-1,60
 427 163 427 163 424 148 c 1,61,62
 399 85 399 85 349 49 c 128,-1,63
 299 13 299 13 234 3 c 1,64,-1
 214 -86 l 1,65,-1
 60 -36 l 1,66,-1
 78 37 l 1,0,1
EndSplineSet
EndChar

StartChar: sterling
Encoding: 163 163 151
Width: 556
Flags: W
LayerCount: 2
Fore
SplineSet
50 271 m 1,0,-1
 50 288 l 1,1,-1
 -4 288 l 1,2,-1
 -3 393 l 1,3,-1
 51 393 l 1,4,-1
 52 487 l 2,5,6
 52 514 52 514 62.5 545.5 c 128,-1,7
 73 577 73 577 96.5 604 c 128,-1,8
 120 631 120 631 159.5 648.5 c 128,-1,9
 199 666 199 666 257 666 c 0,10,11
 273 666 273 666 299 661.5 c 128,-1,12
 325 657 325 657 352.5 644.5 c 128,-1,13
 380 632 380 632 404.5 609.5 c 128,-1,14
 429 587 429 587 443 551 c 0,15,16
 455 520 455 520 455 490.5 c 128,-1,17
 455 461 455 461 452 437 c 1,18,-1
 319 416 l 1,19,-1
 320 458 l 2,20,21
 321 479 321 479 304.5 491.5 c 128,-1,22
 288 504 288 504 263 504 c 0,23,24
 248 504 248 504 235 492 c 128,-1,25
 222 480 222 480 222 469 c 2,26,-1
 220 393 l 1,27,-1
 276 393 l 1,28,-1
 275 288 l 1,29,-1
 217 288 l 1,30,-1
 216 271 l 1,31,-1
 274 271 l 1,32,-1
 274 166 l 1,33,-1
 214 166 l 1,34,-1
 213 128 l 1,35,-1
 522 127 l 1,36,-1
 520 0 l 1,37,-1
 48 0 l 1,38,-1
 50 166 l 1,39,-1
 -5 166 l 1,40,-1
 -6 271 l 1,41,-1
 50 271 l 1,0,-1
EndSplineSet
EndChar

StartChar: Euro
Encoding: 164 164 206
Width: 542
Flags: W
LayerCount: 2
Fore
SplineSet
76 445 m 1,0,1
 77 457 77 457 77 471 c 128,-1,2
 77 485 77 485 78 499.5 c 128,-1,3
 79 514 79 514 79.5 526 c 128,-1,4
 80 538 80 538 82 546 c 0,5,6
 91 581 91 581 112 606.5 c 128,-1,7
 133 632 133 632 161 648.5 c 128,-1,8
 189 665 189 665 221 673 c 128,-1,9
 253 681 253 681 285 681 c 0,10,11
 296 681 296 681 314.5 679 c 128,-1,12
 333 677 333 677 355 671.5 c 128,-1,13
 377 666 377 666 399.5 655 c 128,-1,14
 422 644 422 644 442 626 c 1,15,-1
 390 504 l 1,16,17
 373 513 373 513 362 518.5 c 128,-1,18
 351 524 351 524 342.5 527 c 128,-1,19
 334 530 334 530 324 530.5 c 128,-1,20
 314 531 314 531 298 531 c 0,21,22
 261 531 261 531 242.5 516.5 c 128,-1,23
 224 502 224 502 225 486 c 1,24,-1
 225 451 l 1,25,-1
 280 451 l 1,26,27
 281 433 281 433 281 418 c 0,28,29
 281 404 281 404 281.5 391.5 c 128,-1,30
 282 379 282 379 282 372 c 1,31,-1
 223 372 l 1,32,-1
 223 334 l 1,33,-1
 282 334 l 1,34,35
 282 319 282 319 283 299 c 0,36,37
 283 289 283 289 283.5 277.5 c 128,-1,38
 284 266 284 266 283 253 c 1,39,-1
 223 255 l 1,40,-1
 221 216 l 2,41,42
 221 208 221 208 223 197 c 128,-1,43
 225 186 225 186 231 175.5 c 128,-1,44
 237 165 237 165 249 158 c 128,-1,45
 261 151 261 151 282 151 c 0,46,47
 328 151 328 151 360 159 c 128,-1,48
 392 167 392 167 400 172 c 1,49,-1
 471 55 l 1,50,51
 456 47 456 47 437 37 c 128,-1,52
 418 27 418 27 392 18.5 c 128,-1,53
 366 10 366 10 334.5 4.5 c 128,-1,54
 303 -1 303 -1 264 -1 c 0,55,56
 213 -1 213 -1 177 12 c 128,-1,57
 141 25 141 25 118.5 44 c 128,-1,58
 96 63 96 63 86 83.5 c 128,-1,59
 76 104 76 104 74 119 c 1,60,61
 74 137 74 137 74 175 c 128,-1,62
 74 213 74 213 74 254 c 1,63,-1
 26 254 l 1,64,-1
 25 327 l 1,65,-1
 80 327 l 1,66,-1
 82 363 l 1,67,-1
 23 363 l 1,68,69
 23 368 23 368 23 381.5 c 128,-1,70
 23 395 23 395 23 409 c 0,71,72
 23 426 23 426 24 445 c 1,73,-1
 76 445 l 1,0,1
EndSplineSet
EndChar

StartChar: yen
Encoding: 165 165 168
Width: 611
Flags: W
LayerCount: 2
Fore
SplineSet
148 315 m 1,0,-1
 147 340 l 1,1,-1
 1 340 l 1,2,-1
 2 460 l 1,3,-1
 92 460 l 1,4,-1
 -44 666 l 1,5,-1
 134 666 l 1,6,-1
 222 509 l 1,7,-1
 291 666 l 1,8,-1
 488 666 l 1,9,-1
 392 460 l 1,10,-1
 485 460 l 1,11,-1
 482 340 l 1,12,-1
 337 340 l 1,13,-1
 325 315 l 1,14,-1
 482 315 l 1,15,-1
 479 195 l 1,16,-1
 328 195 l 1,17,-1
 343 0 l 1,18,-1
 155 -1 l 1,19,-1
 150 195 l 1,20,-1
 -2 195 l 1,21,-1
 -1 315 l 1,22,-1
 148 315 l 1,0,-1
EndSplineSet
EndChar

StartChar: brokenbar
Encoding: 166 166 18
Width: 341
Flags: W
LayerCount: 2
Fore
SplineSet
187 666 m 1,0,-1
 185 362 l 1,1,-1
 43 362 l 1,2,-1
 47 666 l 1,3,-1
 187 666 l 1,0,-1
183 304 m 1,4,-1
 181 0 l 1,5,-1
 39 0 l 1,6,-1
 43 304 l 1,7,-1
 183 304 l 1,4,-1
EndSplineSet
EndChar

StartChar: section
Encoding: 167 167 152
Width: 489
Flags: W
LayerCount: 2
Fore
SplineSet
149 387 m 0,0,1
 152 370 152 370 178 349.5 c 128,-1,2
 204 329 204 329 235 303 c 2,3,-1
 370 187 l 1,4,5
 373 182 373 182 376.5 170 c 128,-1,6
 380 158 380 158 379 153 c 0,7,8
 378 120 378 120 374.5 94.5 c 128,-1,9
 371 69 371 69 366 37 c 0,10,11
 364 23 364 23 351.5 6 c 128,-1,12
 339 -11 339 -11 316.5 -26 c 128,-1,13
 294 -41 294 -41 262 -51 c 128,-1,14
 230 -61 230 -61 188 -61 c 128,-1,15
 146 -61 146 -61 114.5 -51.5 c 128,-1,16
 83 -42 83 -42 61.5 -29 c 128,-1,17
 40 -16 40 -16 28 -2.5 c 128,-1,18
 16 11 16 11 15 20 c 1,19,20
 12 30 12 30 12 48 c 0,21,22
 11 59 11 59 11 74 c 0,23,24
 12 82 12 82 12 90 c 0,25,26
 12 116 12 116 13 158 c 1,27,-1
 138 159 l 1,28,29
 138 149 138 149 137.5 142.5 c 128,-1,30
 137 136 137 136 137 131 c 128,-1,31
 137 126 137 126 138 121 c 0,32,33
 140 109 140 109 149 95.5 c 128,-1,34
 158 82 158 82 182 82 c 0,35,36
 203 82 203 82 213 91.5 c 128,-1,37
 223 101 223 101 226.5 115 c 128,-1,38
 230 129 230 129 228.5 144.5 c 128,-1,39
 227 160 227 160 225 172 c 1,40,41
 217 188 217 188 199 204.5 c 128,-1,42
 181 221 181 221 158 236.5 c 128,-1,43
 135 252 135 252 110.5 268 c 128,-1,44
 86 284 86 284 65.5 299.5 c 0,45,46
 46 315 46 315 32 331 c 0,47,48
 19 346 19 346 19 361 c 0,49,50
 18 385 18 385 18 394 c 0,51,52
 18 405 18 405 18 413.5 c 128,-1,53
 18 422 18 422 18.5 431.5 c 128,-1,54
 19 441 19 441 20 459 c 0,55,56
 21 473 21 473 26 483.5 c 128,-1,57
 31 494 31 494 38 500 c 1,58,59
 32 505 32 505 28 514.5 c 128,-1,60
 24 524 24 524 23 531 c 0,61,62
 22 547 22 547 22 556 c 128,-1,63
 22 565 22 565 22 573 c 128,-1,64
 22 581 22 581 22.5 590.5 c 128,-1,65
 23 600 23 600 25 616 c 0,66,67
 29 647 29 647 50 670 c 128,-1,68
 71 693 71 693 97.5 708 c 128,-1,69
 124 723 124 723 151 730 c 128,-1,70
 178 737 178 737 195 737 c 0,71,72
 217 737 217 737 243 731 c 128,-1,73
 269 725 269 725 293 713 c 128,-1,74
 317 701 317 701 336.5 682.5 c 128,-1,75
 356 664 356 664 366 639 c 0,76,77
 369 629 369 629 372 614 c 0,78,79
 375 601 375 601 377 582.5 c 128,-1,80
 379 564 379 564 380 538 c 1,81,-1
 257 538 l 1,82,83
 254 559 254 559 245 570.5 c 128,-1,84
 236 582 236 582 227 587 c 128,-1,85
 218 592 218 592 211 593 c 2,86,-1
 204 594 l 1,87,88
 178 594 178 594 164 578 c 0,89,90
 152 564 152 564 152 553 c 0,91,92
 152 536 152 536 172 522 c 0,93,94
 190 510 190 510 216.5 497 c 128,-1,95
 243 484 243 484 273 469.5 c 128,-1,96
 303 455 303 455 328.5 435.5 c 128,-1,97
 354 416 354 416 371 390.5 c 128,-1,98
 388 365 388 365 390 330 c 0,99,100
 392 276 392 276 392 261 c 0,101,102
 392 233 392 233 384 216 c 0,103,104
 382 211 382 211 380 204 c 128,-1,105
 378 197 378 197 375 195 c 1,106,-1
 240 311 l 1,107,108
 241 316 241 316 241.5 318 c 128,-1,109
 242 320 242 320 242.5 321 c 128,-1,110
 243 322 243 322 243 324 c 2,111,-1
 244 335 l 1,112,113
 244 350 244 350 238 362 c 0,114,115
 230 376 230 376 218 388.5 c 128,-1,116
 206 401 206 401 192 410 c 128,-1,117
 178 419 178 419 165 427 c 1,118,119
 155 418 155 418 151.5 406.5 c 128,-1,120
 148 395 148 395 149 387 c 0,0,1
EndSplineSet
EndChar

StartChar: dieresis
Encoding: 168 168 160
Width: 523
Flags: W
LayerCount: 2
Fore
SplineSet
190 781 m 1,0,-1
 346 781 l 1,1,-1
 347 620 l 1,2,-1
 190 620 l 1,3,-1
 190 781 l 1,0,-1
104 781 m 1,4,-1
 105 621 l 1,5,-1
 -48 621 l 1,6,-1
 -48 781 l 1,7,-1
 104 781 l 1,4,-1
EndSplineSet
EndChar

StartChar: copyright
Encoding: 169 169 157
Width: 689
Flags: W
LayerCount: 2
Fore
SplineSet
231 669 m 0,0,1
 241 669 241 669 251 669 c 0,2,3
 306 670 306 670 352 656 c 0,4,5
 406 640 406 640 446.5 609 c 128,-1,6
 487 578 487 578 513.5 537 c 128,-1,7
 540 496 540 496 552 450 c 1,8,-1
 412 449 l 1,9,10
 411 460 411 460 412 470 c 0,11,12
 413 478 413 478 412.5 486 c 128,-1,13
 412 494 412 494 411 497 c 0,14,15
 410 505 410 505 404.5 521 c 128,-1,16
 399 537 399 537 386 552.5 c 128,-1,17
 373 568 373 568 350.5 580 c 128,-1,18
 328 592 328 592 294 592 c 0,19,20
 259 592 259 592 235.5 582.5 c 128,-1,21
 212 573 212 573 197.5 558.5 c 128,-1,22
 183 544 183 544 175.5 526.5 c 128,-1,23
 168 509 168 509 168 493 c 128,-1,24
 168 477 168 477 166.5 446.5 c 128,-1,25
 165 416 165 416 165 382 c 128,-1,26
 165 348 165 348 166 316.5 c 128,-1,27
 167 285 167 285 170 268 c 128,-1,28
 173 251 173 251 179.5 234 c 128,-1,29
 186 217 186 217 199.5 203.5 c 128,-1,30
 213 190 213 190 234.5 181.5 c 128,-1,31
 256 173 256 173 288 173 c 128,-1,32
 320 173 320 173 342 185.5 c 128,-1,33
 364 198 364 198 378 214 c 128,-1,34
 392 230 392 230 399 246 c 128,-1,35
 406 262 406 262 408 268 c 0,36,37
 410 275 410 275 411.5 287 c 128,-1,38
 413 299 413 299 414.5 312 c 128,-1,39
 416 325 416 325 416 337 c 128,-1,40
 416 349 416 349 414 358 c 1,41,-1
 315 358 l 1,42,43
 317 341 317 341 315 329 c 0,44,45
 313 318 313 318 306.5 309 c 128,-1,46
 300 300 300 300 286 300 c 0,47,48
 278 300 278 300 274 304 c 128,-1,49
 270 308 270 308 267.5 313.5 c 128,-1,50
 265 319 265 319 265 325 c 128,-1,51
 265 331 265 331 265 336 c 0,52,53
 265 342 265 342 265.5 359.5 c 128,-1,54
 266 377 266 377 267.5 396 c 128,-1,55
 269 415 269 415 270 431.5 c 128,-1,56
 271 448 271 448 271 453 c 0,57,58
 271 463 271 463 277.5 472.5 c 128,-1,59
 284 482 284 482 296 482 c 0,60,61
 305 482 305 482 309.5 475.5 c 128,-1,62
 314 469 314 469 315 461 c 0,63,64
 316 452 316 452 316 441 c 1,65,-1
 552 442 l 1,66,67
 555 428 555 428 557 413 c 128,-1,68
 559 398 559 398 559 384 c 0,69,70
 559 325 559 325 547 275 c 128,-1,71
 535 225 535 225 507.5 187 c 128,-1,72
 480 149 480 149 434.5 125.5 c 128,-1,73
 389 102 389 102 321 98 c 0,74,75
 307 97 307 97 294 97 c 0,76,77
 234 98 234 98 186 116 c 0,78,79
 126 138 126 138 84 178 c 128,-1,80
 42 218 42 218 19.5 271.5 c 128,-1,81
 -3 325 -3 325 -7 384 c 0,82,83
 -8 398 -8 398 -8 411 c 0,84,85
 -8 456 -8 456 2 495 c 0,86,87
 16 546 16 546 45 584 c 128,-1,88
 74 622 74 622 120.5 644 c 128,-1,89
 167 666 167 666 231 669 c 0,0,1
EndSplineSet
EndChar

StartChar: ordfeminine
Encoding: 170 170 175
Width: 468
Flags: W
LayerCount: 2
Fore
SplineSet
159 492 m 1,0,1
 162 544 162 544 164 585 c 0,2,3
 165 603 165 603 166 620 c 128,-1,4
 167 637 167 637 167.5 651 c 128,-1,5
 168 665 168 665 168.5 674.5 c 128,-1,6
 169 684 169 684 168 686 c 1,7,8
 169 700 169 700 155.5 706 c 128,-1,9
 142 712 142 712 128 712 c 0,10,11
 117 712 117 712 109.5 706.5 c 128,-1,12
 102 701 102 701 97.5 694.5 c 128,-1,13
 93 688 93 688 91 681.5 c 128,-1,14
 89 675 89 675 88 673 c 0,15,16
 86 656 86 656 84 638 c 0,17,18
 83 631 83 631 83 624 c 0,19,20
 83 613 83 613 85 601 c 0,21,22
 87 588 87 588 98.5 584.5 c 128,-1,23
 110 581 110 581 122 582 c 128,-1,24
 134 583 134 583 143.5 594.5 c 128,-1,25
 153 606 153 606 159 617 c 1,26,-1
 152 522 l 1,27,28
 139 511 139 511 128 504.5 c 128,-1,29
 117 498 117 498 107.5 495 c 128,-1,30
 98 492 98 492 88.5 491.5 c 128,-1,31
 79 491 79 491 67 491 c 0,32,33
 44 491 44 491 22.5 500 c 128,-1,34
 1 509 1 509 -16 524 c 0,35,36
 -34 538 -34 538 -44 558 c 0,37,38
 -53 574 -53 574 -52 592 c 0,39,40
 -52 595 -52 595 -52 599 c 0,41,42
 -49 643 -49 643 -45 677 c 128,-1,43
 -41 711 -41 711 -27 734 c 128,-1,44
 -13 757 -13 757 15 769 c 128,-1,45
 43 781 43 781 93 781 c 0,46,47
 110 781 110 781 134.5 775 c 128,-1,48
 159 769 159 769 176 756 c 1,49,-1
 178 781 l 1,50,-1
 307 780 l 1,51,-1
 287 492 l 1,52,-1
 159 492 l 1,0,1
EndSplineSet
EndChar

StartChar: guillemotleft
Encoding: 171 171 187
Width: 586
Flags: W
LayerCount: 2
Fore
SplineSet
237 0 m 1,0,-1
 97 0 l 1,1,-1
 28 198 l 1,2,-1
 91 400 l 1,3,-1
 238 400 l 1,4,-1
 184 217 l 1,5,-1
 225 217 l 1,6,-1
 295 400 l 1,7,-1
 435 400 l 1,8,-1
 368 199 l 1,9,-1
 433 1 l 1,10,-1
 304 1 l 1,11,-1
 225 180 l 1,12,-1
 183 180 l 1,13,-1
 237 0 l 1,0,-1
EndSplineSet
EndChar

StartChar: logicalnot
Encoding: 172 172 182
Width: 638
Flags: W
LayerCount: 2
Fore
SplineSet
24 207 m 1,0,-1
 22 338 l 1,1,-1
 527 338 l 1,2,-1
 526 96 l 1,3,-1
 388 96 l 1,4,-1
 389 207 l 1,5,-1
 24 207 l 1,0,-1
EndSplineSet
EndChar

StartChar: registered
Encoding: 174 174 156
Width: 689
Flags: W
LayerCount: 2
Fore
SplineSet
428 464 m 0,0,1
 427 493 427 493 415 518 c 128,-1,2
 403 543 403 543 384.5 561 c 128,-1,3
 366 579 366 579 344 589.5 c 128,-1,4
 322 600 322 600 302 600 c 2,5,-1
 146 600 l 1,6,-1
 145 158 l 1,7,-1
 115 158 l 1,8,9
 57 198 57 198 27.5 259 c 128,-1,10
 -2 320 -2 320 -5 390 c 0,11,12
 -5 398 -5 398 -5 406 c 0,13,14
 -4 457 -4 457 12 501 c 0,15,16
 32 552 32 552 67 588.5 c 128,-1,17
 102 625 102 625 154 645.5 c 128,-1,18
 206 666 206 666 270 666 c 0,19,20
 337 666 337 666 391 641.5 c 128,-1,21
 445 617 445 617 483.5 576.5 c 128,-1,22
 522 536 522 536 543 485 c 128,-1,23
 564 434 564 434 566 381 c 0,24,25
 566 377 566 377 566 372 c 0,26,27
 566 308 566 308 552 260 c 0,28,29
 538 208 538 208 503.5 172 c 128,-1,30
 469 136 469 136 412 117 c 128,-1,31
 355 98 355 98 270 98 c 0,32,33
 231 98 231 98 196 112.5 c 128,-1,34
 161 127 161 127 122 152 c 1,35,-1
 257 153 l 1,36,-1
 257 496 l 1,37,38
 267 498 267 498 276.5 498 c 128,-1,39
 286 498 286 498 294 496 c 0,40,41
 308 494 308 494 320 486.5 c 128,-1,42
 332 479 332 479 333 462 c 1,43,44
 332 459 332 459 330.5 450.5 c 128,-1,45
 329 442 329 442 322 431 c 128,-1,46
 315 420 315 420 301 407.5 c 128,-1,47
 287 395 287 395 263 383 c 1,48,49
 262 393 262 393 262.5 385 c 0,50,51
 264 376 264 376 264 360 c 0,52,53
 264 352 264 352 264 343.5 c 0,54,55
 264 336 264 336 264 326 c 0,56,57
 264 308 264 308 264 298 c 1,58,59
 269 300 269 300 270.5 299.5 c 128,-1,60
 272 299 272 299 277 301 c 1,61,-1
 301 227 l 2,62,63
 310 199 310 199 317.5 176 c 128,-1,64
 325 153 325 153 326 153 c 2,65,-1
 445 153 l 1,66,-1
 361 343 l 1,67,68
 378 355 378 355 390 366 c 128,-1,69
 402 377 402 377 410.5 390.5 c 128,-1,70
 419 404 419 404 423.5 422 c 128,-1,71
 428 440 428 440 428 464 c 0,0,1
EndSplineSet
EndChar

StartChar: macron
Encoding: 175 175 234
AltUni2: 0002c9.ffffffff.0 0002c9.ffffffff.0
Width: 376
Flags: W
LayerCount: 2
Fore
SplineSet
-45 781 m 1,0,-1
 205 781 l 1,1,-1
 206 653 l 1,2,-1
 -44 653 l 1,3,-1
 -45 781 l 1,0,-1
EndSplineSet
EndChar

StartChar: plusminus
Encoding: 177 177 165
Width: 483
Flags: W
LayerCount: 2
Fore
SplineSet
15 179 m 1,0,-1
 398 179 l 1,1,-1
 397 60 l 1,2,-1
 14 60 l 1,3,-1
 15 179 l 1,0,-1
270 576 m 1,4,-1
 268 460 l 1,5,-1
 391 460 l 1,6,-1
 390 340 l 1,7,-1
 266 340 l 1,8,-1
 264 219 l 1,9,-1
 137 220 l 1,10,-1
 139 340 l 1,11,-1
 8 340 l 1,12,-1
 8 459 l 1,13,-1
 141 459 l 1,14,-1
 143 576 l 1,15,-1
 270 576 l 1,4,-1
EndSplineSet
EndChar

StartChar: twosuperior
Encoding: 178 178 17
Width: 420
Flags: W
LayerCount: 2
Fore
SplineSet
264 438 m 1,0,-1
 261 318 l 1,1,-1
 -18 318 l 1,2,3
 -13 399 -13 399 17.5 466.5 c 128,-1,4
 48 534 48 534 103 579 c 0,5,6
 108 584 108 584 117 591 c 128,-1,7
 126 598 126 598 134 606.5 c 128,-1,8
 142 615 142 615 147 624 c 128,-1,9
 152 633 152 633 150 641 c 0,10,11
 150 644 150 644 143.5 648.5 c 128,-1,12
 137 653 137 653 133 653 c 0,13,14
 124 653 124 653 116 647 c 128,-1,15
 108 641 108 641 102.5 633 c 128,-1,16
 97 625 97 625 93 616 c 128,-1,17
 89 607 89 607 88 600 c 1,18,-1
 -13 654 l 1,19,20
 -10 677 -10 677 -2 699.5 c 128,-1,21
 6 722 6 722 22 740 c 128,-1,22
 38 758 38 758 63.5 769.5 c 128,-1,23
 89 781 89 781 128 781 c 0,24,25
 150 781 150 781 174.5 774 c 128,-1,26
 199 767 199 767 219.5 751.5 c 128,-1,27
 240 736 240 736 255.5 711.5 c 128,-1,28
 271 687 271 687 277 653 c 0,29,30
 279 643 279 643 279 633 c 0,31,32
 279 610 279 610 269 590 c 0,33,34
 255 562 255 562 234.5 538.5 c 128,-1,35
 214 515 214 515 193 491 c 128,-1,36
 172 467 172 467 164 438 c 1,37,-1
 264 438 l 1,0,-1
EndSplineSet
EndChar

StartChar: threesuperior
Encoding: 179 179 16
Width: 394
Flags: W
LayerCount: 2
Fore
SplineSet
194 624 m 1,0,1
 219 608 219 608 225.5 592.5 c 128,-1,2
 232 577 232 577 231 573 c 1,3,4
 233 550 233 550 234 509 c 0,5,6
 234 495 234 495 234 481 c 0,7,8
 234 452 234 452 233 419 c 0,9,10
 231 365 231 365 194.5 341.5 c 128,-1,11
 158 318 158 318 88 318 c 0,12,13
 50 318 50 318 27 330 c 128,-1,14
 4 342 4 342 -8.5 358 c 128,-1,15
 -21 374 -21 374 -25.5 388.5 c 128,-1,16
 -30 403 -30 403 -31 409 c 0,17,18
 -32 414 -32 414 -32 424 c 1,19,20
 -33 432 -33 432 -33 448 c 128,-1,21
 -33 464 -33 464 -32 487 c 1,22,-1
 79 492 l 1,23,24
 79 484 79 484 78 476.5 c 128,-1,25
 77 469 77 469 78 463 c 128,-1,26
 79 457 79 457 82.5 453 c 128,-1,27
 86 449 86 449 95 449 c 0,28,29
 97 449 97 449 101.5 451.5 c 128,-1,30
 106 454 106 454 107 462 c 1,31,32
 107 478 107 478 107.5 496.5 c 128,-1,33
 108 515 108 515 109 520 c 1,34,35
 108 525 108 525 103.5 529.5 c 128,-1,36
 99 534 99 534 91 534 c 0,37,38
 86 534 86 534 82 532 c 0,39,40
 70 529 70 529 57 519 c 1,41,-1
 -35 591 l 1,42,-1
 37 656 l 1,43,-1
 -33 656 l 1,44,-1
 -36 781 l 1,45,-1
 226 781 l 1,46,-1
 228 663 l 1,47,-1
 194 624 l 1,0,1
EndSplineSet
EndChar

StartChar: acute
Encoding: 180 180 159
Width: 284
Flags: W
LayerCount: 2
Fore
SplineSet
113 781 m 1,0,-1
 113 620 l 1,1,-1
 -40 620 l 1,2,-1
 -39 781 l 1,3,-1
 113 781 l 1,0,-1
EndSplineSet
EndChar

StartChar: mu
Encoding: 181 181 169
AltUni2: 0003bc.ffffffff.0 0003bc.ffffffff.0
Width: 640
Flags: W
LayerCount: 2
Fore
SplineSet
301 93 m 0,0,1
 325 93 325 93 337.5 108.5 c 128,-1,2
 350 124 350 124 352 141 c 1,3,4
 352 153 352 153 352 173 c 128,-1,5
 352 193 352 193 352.5 218.5 c 128,-1,6
 353 244 353 244 353.5 272 c 128,-1,7
 354 300 354 300 355 328 c 0,8,9
 356 393 356 393 358 468 c 1,10,-1
 523 469 l 1,11,-1
 514 0 l 1,12,-1
 351 0 l 1,13,-1
 351 23 l 1,14,15
 338 14 338 14 324 8 c 0,16,17
 310 2 310 2 291 -0 c 0,18,19
 286 0 286 0 281 -1 c 0,20,21
 268 -1 268 -1 253 2 c 0,22,23
 233 6 233 6 212 19 c 1,24,-1
 201 -122 l 1,25,-1
 56 -122 l 1,26,-1
 64 469 l 1,27,-1
 227 469 l 1,28,-1
 226 455 l 2,29,30
 226 441 226 441 225.5 418.5 c 128,-1,31
 225 396 225 396 224 368 c 128,-1,32
 223 340 223 340 223 310 c 0,33,34
 222 240 222 240 220 151 c 1,35,36
 221 133 221 133 229.5 121.5 c 128,-1,37
 238 110 238 110 250 103.5 c 128,-1,38
 262 97 262 97 275.5 95 c 128,-1,39
 289 93 289 93 301 93 c 0,0,1
EndSplineSet
EndChar

StartChar: paragraph
Encoding: 182 182 154
Width: 639
Flags: W
LayerCount: 2
Fore
SplineSet
341 0 m 1,0,-1
 183 0 l 1,1,-1
 192 497 l 1,2,3
 184 497 184 497 167 497 c 128,-1,4
 150 497 150 497 133 493 c 128,-1,5
 116 489 116 489 102 479.5 c 128,-1,6
 88 470 88 470 87 450 c 0,7,8
 86 444 86 444 88 431 c 128,-1,9
 90 418 90 418 99.5 402 c 128,-1,10
 109 386 109 386 127.5 370.5 c 128,-1,11
 146 355 146 355 178 343 c 1,12,-1
 175 221 l 1,13,14
 144 231 144 231 106 248.5 c 128,-1,15
 68 266 68 266 35 294.5 c 0,16,17
 2 324 2 324 -20 366 c 0,18,19
 -42 407 -42 407 -42 464 c 0,20,21
 -42 467 -42 467 -42 469 c 0,22,23
 -41 521 -41 521 -23.5 555 c 128,-1,24
 -6 589 -6 589 21 609 c 128,-1,25
 48 629 48 629 82 637 c 128,-1,26
 116 645 116 645 150 645 c 2,27,-1
 525 645 l 1,28,-1
 517 0 l 1,29,-1
 369 0 l 1,30,-1
 376 494 l 1,31,-1
 350 494 l 1,32,-1
 341 0 l 1,0,-1
EndSplineSet
EndChar

StartChar: periodcentered
Encoding: 183 183 212
AltUni2: 002219.ffffffff.0 002219.ffffffff.0
Width: 282
Flags: W
LayerCount: 2
Fore
SplineSet
25 255 m 0,0,1
 27 296 27 296 44 314 c 128,-1,2
 61 332 61 332 99 332 c 0,3,4
 112 332 112 332 126.5 326 c 128,-1,5
 141 320 141 320 153 309.5 c 128,-1,6
 165 299 165 299 172 285 c 128,-1,7
 179 271 179 271 179 255 c 0,8,9
 177 215 177 215 156 197 c 128,-1,10
 135 179 135 179 99 179 c 0,11,12
 88 179 88 179 75 185 c 128,-1,13
 62 191 62 191 51 201 c 128,-1,14
 40 211 40 211 32.5 225 c 128,-1,15
 25 239 25 239 25 255 c 0,0,1
EndSplineSet
EndChar

StartChar: cedilla
Encoding: 184 184 238
Width: 1000
Flags: W
LayerCount: 2
Fore
SplineSet
270 5 m 1,0,-1
 218 -128 l 1,1,-1
 122 -128 l 1,2,-1
 142 8 l 1,3,-1
 270 5 l 1,0,-1
EndSplineSet
EndChar

StartChar: onesuperior
Encoding: 185 185 14
Width: 378
Flags: W
LayerCount: 2
Fore
SplineSet
51 318 m 1,0,-1
 62 598 l 1,1,-1
 -31 565 l 1,2,-1
 -20 688 l 1,3,-1
 86 781 l 1,4,-1
 210 781 l 1,5,-1
 202 318 l 1,6,-1
 51 318 l 1,0,-1
EndSplineSet
EndChar

StartChar: ordmasculine
Encoding: 186 186 176
Width: 500
Flags: W
LayerCount: 2
Fore
SplineSet
292 594 m 0,0,1
 290 575 290 575 280 553.5 c 128,-1,2
 270 532 270 532 250 513.5 c 128,-1,3
 230 495 230 495 198.5 483 c 128,-1,4
 167 471 167 471 124 471 c 0,5,6
 92 471 92 471 72 480 c 128,-1,7
 52 489 52 489 40.5 501 c 128,-1,8
 29 513 29 513 24 526 c 128,-1,9
 19 539 19 539 17 548 c 0,10,11
 16 556 16 556 15 576 c 0,12,13
 15 586 15 586 14.5 597 c 128,-1,14
 14 608 14 608 15 618 c 0,15,16
 15 643 15 643 17 670 c 1,17,18
 21 703 21 703 40 723.5 c 128,-1,19
 59 744 59 744 82.5 755.5 c 128,-1,20
 106 767 106 767 127 771.5 c 128,-1,21
 148 776 148 776 157 778 c 1,22,-1
 155 693 l 1,23,24
 149 688 149 688 147 678 c 1,25,26
 140 658 140 658 139 632.5 c 128,-1,27
 138 607 138 607 138 594 c 1,28,29
 137 586 137 586 143 577.5 c 128,-1,30
 149 569 149 569 169 569 c 0,31,32
 197 569 197 569 207.5 579.5 c 128,-1,33
 218 590 218 590 218 600 c 0,34,35
 218 604 218 604 219.5 614 c 128,-1,36
 221 624 221 624 222 635.5 c 128,-1,37
 223 647 223 647 223.5 657.5 c 128,-1,38
 224 668 224 668 224 673 c 0,39,40
 225 682 225 682 216 693.5 c 128,-1,41
 207 705 207 705 191 705 c 0,42,43
 184 705 184 705 179 703.5 c 128,-1,44
 174 702 174 702 170 700 c 128,-1,45
 166 698 166 698 163 696 c 1,46,-1
 164 779 l 1,47,-1
 176 782 l 1,48,49
 189 782 189 782 208 778.5 c 128,-1,50
 227 775 227 775 244.5 766.5 c 128,-1,51
 262 758 262 758 276 743 c 128,-1,52
 290 728 290 728 293 706 c 0,53,54
 294 699 294 699 294 684 c 128,-1,55
 294 669 294 669 293.5 652 c 128,-1,56
 293 635 293 635 293 619 c 128,-1,57
 293 603 293 603 292 594 c 0,0,1
EndSplineSet
EndChar

StartChar: guillemotright
Encoding: 187 187 188
Width: 533
Flags: W
LayerCount: 2
Fore
SplineSet
194 0 m 1,0,-1
 54 0 l 1,1,-1
 120 201 l 1,2,-1
 56 399 l 1,3,-1
 185 399 l 1,4,-1
 264 217 l 1,5,-1
 316 217 l 1,6,-1
 261 400 l 1,7,-1
 401 400 l 1,8,-1
 470 202 l 1,9,-1
 407 0 l 1,10,-1
 260 0 l 1,11,-1
 313 180 l 1,12,-1
 262 180 l 1,13,-1
 194 0 l 1,0,-1
EndSplineSet
EndChar

StartChar: onequarter
Encoding: 188 188 13
Width: 866
Flags: W
LayerCount: 2
Fore
SplineSet
777 180 m 1,0,-1
 777 84 l 1,1,-1
 739 84 l 1,2,-1
 736 0 l 1,3,-1
 590 0 l 1,4,5
 590 55 590 55 591 110 c 128,-1,6
 592 165 592 165 592 221 c 1,7,-1
 577 197 l 1,8,-1
 570 86 l 1,9,-1
 439 86 l 1,10,-1
 443 200 l 1,11,-1
 598 463 l 1,12,-1
 743 463 l 1,13,-1
 741 179 l 1,14,-1
 777 180 l 1,0,-1
502 671 m 1,15,-1
 348 22 l 1,16,-1
 194 72 l 1,17,-1
 352 720 l 1,18,-1
 502 671 l 1,15,-1
51 318 m 1,19,-1
 62 598 l 1,20,-1
 -31 565 l 1,21,-1
 -20 688 l 1,22,-1
 86 781 l 1,23,-1
 210 781 l 1,24,-1
 202 318 l 1,25,-1
 51 318 l 1,19,-1
EndSplineSet
EndChar

StartChar: onehalf
Encoding: 189 189 12
Width: 866
Flags: W
LayerCount: 2
Fore
SplineSet
502 671 m 1,0,-1
 348 22 l 1,1,-1
 194 72 l 1,2,-1
 352 720 l 1,3,-1
 502 671 l 1,0,-1
747 120 m 1,4,-1
 744 0 l 1,5,-1
 465 0 l 1,6,7
 469 81 469 81 500.5 148.5 c 128,-1,8
 532 216 532 216 587 261 c 0,9,10
 592 266 592 266 601 273 c 128,-1,11
 610 280 610 280 617.5 288.5 c 128,-1,12
 625 297 625 297 630 306 c 128,-1,13
 635 315 635 315 634 323 c 0,14,15
 634 326 634 326 627 330.5 c 128,-1,16
 620 335 620 335 616 335 c 0,17,18
 607 335 607 335 599.5 329 c 128,-1,19
 592 323 592 323 585.5 315 c 128,-1,20
 579 307 579 307 575.5 298 c 128,-1,21
 572 289 572 289 570 282 c 1,22,-1
 471 336 l 1,23,24
 474 359 474 359 481.5 381.5 c 128,-1,25
 489 404 489 404 505 422 c 128,-1,26
 521 440 521 440 547 451.5 c 128,-1,27
 573 463 573 463 612 463 c 0,28,29
 634 463 634 463 657.5 456 c 128,-1,30
 681 449 681 449 702 433.5 c 128,-1,31
 723 418 723 418 738.5 393.5 c 128,-1,32
 754 369 754 369 759 335 c 0,33,34
 761 325 761 325 761 315 c 0,35,36
 761 292 761 292 751 272 c 0,37,38
 737 244 737 244 717 220.5 c 128,-1,39
 697 197 697 197 676 173 c 128,-1,40
 655 149 655 149 647 120 c 1,41,-1
 747 120 l 1,4,-1
51 318 m 1,42,-1
 62 598 l 1,43,-1
 -31 565 l 1,44,-1
 -20 688 l 1,45,-1
 86 781 l 1,46,-1
 210 781 l 1,47,-1
 202 318 l 1,48,-1
 51 318 l 1,42,-1
EndSplineSet
EndChar

StartChar: questiondown
Encoding: 191 191 180
Width: 505
Flags: W
LayerCount: 2
Fore
SplineSet
153 530 m 1,0,-1
 157 666 l 1,1,-1
 316 666 l 1,2,-1
 316 530 l 1,3,-1
 153 530 l 1,0,-1
295 242 m 1,4,-1
 429 165 l 1,5,6
 428 146 428 146 416.5 118 c 128,-1,7
 405 90 405 90 381.5 63.5 c 128,-1,8
 358 37 358 37 323 18.5 c 128,-1,9
 288 0 288 0 240 0 c 0,10,11
 172 0 172 0 130.5 23 c 128,-1,12
 89 46 89 46 65.5 76.5 c 128,-1,13
 42 107 42 107 33.5 136.5 c 128,-1,14
 25 166 25 166 23 179 c 0,15,16
 20 196 20 196 20 212 c 0,17,18
 20 242 20 242 30 267 c 0,19,20
 46 305 46 305 81 345 c 0,21,22
 108 375 108 375 128.5 411 c 128,-1,23
 149 447 149 447 153 505 c 1,24,-1
 316 505 l 1,25,26
 315 457 315 457 306.5 417.5 c 128,-1,27
 298 378 298 378 278 352 c 0,28,29
 266 335 266 335 248 314.5 c 128,-1,30
 230 294 230 294 214.5 273 c 128,-1,31
 199 252 199 252 189 233.5 c 128,-1,32
 179 215 179 215 181 204 c 0,33,34
 184 182 184 182 199.5 172.5 c 128,-1,35
 215 163 215 163 227 163 c 0,36,37
 242 163 242 163 254 172 c 128,-1,38
 266 181 266 181 274.5 193.5 c 128,-1,39
 283 206 283 206 288 219.5 c 128,-1,40
 293 233 293 233 295 242 c 1,4,-1
EndSplineSet
EndChar

StartChar: Agrave
Encoding: 192 192 190
Width: 629
Flags: W
LayerCount: 2
Fore
SplineSet
162 781 m 1,0,-1
 305 781 l 1,1,-1
 359 667 l 1,2,-1
 419 666 l 1,3,-1
 572 0 l 1,4,-1
 406 0 l 1,5,-1
 310 408 l 1,6,-1
 267 240 l 1,7,-1
 342 239 l 1,8,-1
 369 117 l 1,9,-1
 215 117 l 1,10,-1
 174 0 l 1,11,-1
 -20 0 l 1,12,13
 47 180 47 180 101 323 c 0,14,15
 123 384 123 384 145 443.5 c 128,-1,16
 167 503 167 503 184 550.5 c 128,-1,17
 201 598 201 598 212.5 628.5 c 128,-1,18
 224 659 224 659 225 664 c 1,19,-1
 162 781 l 1,0,-1
EndSplineSet
EndChar

StartChar: Aacute
Encoding: 193 193 218
Width: 629
Flags: W
LayerCount: 2
Fore
SplineSet
570 0 m 1,0,-1
 404 0 l 1,1,-1
 307 408 l 1,2,-1
 264 240 l 1,3,-1
 339 239 l 1,4,-1
 366 117 l 1,5,-1
 212 117 l 1,6,-1
 171 0 l 1,7,-1
 -23 0 l 1,8,9
 53 198 53 198 101 327 c 128,-1,10
 149 456 149 456 176 531 c 0,11,12
 208 619 208 619 223 666 c 1,13,-1
 277 666 l 1,14,-1
 302 781 l 1,15,-1
 431 781 l 1,16,-1
 417 666 l 1,17,-1
 570 0 l 1,0,-1
EndSplineSet
EndChar

StartChar: Acircumflex
Encoding: 194 194 216
Width: 629
Flags: W
LayerCount: 2
Fore
SplineSet
245 724 m 1,0,-1
 370 795 l 1,1,-1
 498 744 l 1,2,-1
 468 664 l 1,3,-1
 368 701 l 1,4,-1
 316 665 l 1,5,-1
 403 666 l 1,6,-1
 559 0 l 1,7,-1
 392 0 l 1,8,-1
 295 408 l 1,9,-1
 251 240 l 1,10,-1
 327 239 l 1,11,-1
 353 117 l 1,12,-1
 199 117 l 1,13,-1
 158 0 l 1,14,-1
 -34 0 l 1,15,-1
 209 665 l 1,16,-1
 247 666 l 1,17,-1
 245 724 l 1,0,-1
EndSplineSet
EndChar

StartChar: Atilde
Encoding: 195 195 191
Width: 629
Flags: W
LayerCount: 2
Fore
SplineSet
139 763 m 1,0,1
 154 771 154 771 180.5 779.5 c 128,-1,2
 207 788 207 788 233 788 c 0,3,4
 252 788 252 788 275 784 c 128,-1,5
 298 780 298 780 323 774.5 c 128,-1,6
 348 769 348 769 372.5 765 c 128,-1,7
 397 761 397 761 420 761 c 0,8,9
 426 761 426 761 434.5 764.5 c 128,-1,10
 443 768 443 768 452 773 c 0,11,12
 462 778 462 778 472 785 c 1,13,-1
 481 662 l 1,14,15
 476 658 476 658 458 654 c 0,16,17
 447 652 447 652 438 652 c 0,18,19
 431 652 431 652 426 653 c 1,20,-1
 574 0 l 1,21,-1
 408 0 l 1,22,-1
 310 408 l 1,23,-1
 267 240 l 1,24,-1
 342 239 l 1,25,-1
 369 117 l 1,26,-1
 215 117 l 1,27,-1
 174 0 l 1,28,-1
 -16 0 l 1,29,30
 49 167 49 167 102 306 c 0,31,32
 125 365 125 365 147 423.5 c 128,-1,33
 169 482 169 482 187.5 531.5 c 128,-1,34
 206 581 206 581 219.5 616.5 c 128,-1,35
 233 652 233 652 237 666 c 1,36,37
 222 669 222 669 206 667.5 c 128,-1,38
 190 666 190 666 176 662 c 0,39,40
 161 658 161 658 147 651 c 1,41,-1
 139 763 l 1,0,1
EndSplineSet
EndChar

StartChar: Adieresis
Encoding: 196 196 116
Width: 629
Flags: W
LayerCount: 2
Fore
SplineSet
522 780 m 1,0,-1
 523 635 l 1,1,-1
 430 634 l 1,2,-1
 572 0 l 1,3,-1
 406 0 l 1,4,-1
 310 408 l 1,5,-1
 267 240 l 1,6,-1
 341 240 l 1,7,-1
 368 117 l 1,8,-1
 215 117 l 1,9,-1
 174 0 l 1,10,-1
 -17 0 l 1,11,12
 37 139 37 139 75.5 244.5 c 128,-1,13
 114 350 114 350 140.5 427 c 128,-1,14
 167 504 167 504 183 554 c 128,-1,15
 199 604 199 604 209 633 c 1,16,-1
 101 633 l 1,17,-1
 104 781 l 1,18,-1
 271 781 l 1,19,-1
 270 666 l 1,20,-1
 362 665 l 1,21,-1
 363 781 l 1,22,-1
 522 780 l 1,0,-1
EndSplineSet
EndChar

StartChar: Aring
Encoding: 197 197 117
Width: 629
Flags: W
LayerCount: 2
Fore
SplineSet
558 0 m 1,0,-1
 391 0 l 1,1,-1
 295 408 l 1,2,-1
 251 240 l 1,3,-1
 327 239 l 1,4,-1
 352 117 l 1,5,-1
 199 117 l 1,6,-1
 158 0 l 1,7,-1
 -33 0 l 1,8,-1
 214 649 l 1,9,10
 211 653 211 653 209 657 c 0,11,12
 205 664 205 664 203 676 c 0,13,14
 201 686 201 686 201 697 c 0,15,16
 200 706 200 706 202 714 c 0,17,18
 204 733 204 733 215 748 c 128,-1,19
 226 763 226 763 246 772 c 128,-1,20
 266 781 266 781 298 781 c 0,21,22
 336 781 336 781 360 769.5 c 128,-1,23
 384 758 384 758 398 741.5 c 128,-1,24
 412 725 412 725 418 706.5 c 128,-1,25
 424 688 424 688 426 674 c 0,26,27
 428 659 428 659 425 644.5 c 128,-1,28
 422 630 422 630 418 624 c 1,29,-1
 344 667 l 1,30,31
 345 673 345 673 338.5 686 c 128,-1,32
 332 699 332 699 316 699 c 0,33,34
 299 699 299 699 293.5 689.5 c 128,-1,35
 288 680 288 680 289 673 c 0,36,37
 291 662 291 662 300 653.5 c 128,-1,38
 309 645 309 645 320 645 c 0,39,40
 332 645 332 645 338 652 c 1,41,42
 342 655 342 655 343 659 c 1,43,-1
 416 617 l 1,44,-1
 558 0 l 1,0,-1
EndSplineSet
EndChar

StartChar: AE
Encoding: 198 198 162
Width: 829
Flags: W
LayerCount: 2
Fore
SplineSet
231 0 m 1,0,-1
 37 0 l 1,1,-1
 315 666 l 1,2,-1
 686 666 l 1,3,-1
 690 528 l 1,4,-1
 555 528 l 1,5,-1
 556 401 l 1,6,-1
 685 401 l 1,7,-1
 688 269 l 1,8,-1
 555 269 l 1,9,-1
 558 148 l 1,10,-1
 689 149 l 1,11,-1
 690 0 l 1,12,-1
 396 0 l 1,13,-1
 398 468 l 1,14,-1
 297 235 l 1,15,-1
 388 236 l 1,16,-1
 387 117 l 1,17,-1
 272 117 l 1,18,-1
 231 0 l 1,0,-1
EndSplineSet
EndChar

StartChar: Ccedilla
Encoding: 199 199 118
Width: 515
Flags: W
LayerCount: 2
Fore
SplineSet
281 431 m 1,0,1
 282 440 282 440 281 447 c 128,-1,2
 280 454 280 454 280 459 c 0,3,4
 280 465 280 465 281 470 c 0,5,6
 281 475 281 475 278.5 486 c 128,-1,7
 276 497 276 497 270.5 508 c 128,-1,8
 265 519 265 519 254.5 527 c 128,-1,9
 244 535 244 535 229 535 c 0,10,11
 215 535 215 535 206.5 524 c 128,-1,12
 198 513 198 513 193 497 c 128,-1,13
 188 481 188 481 186.5 463 c 128,-1,14
 185 445 185 445 184 430 c 128,-1,15
 183 415 183 415 182 388 c 128,-1,16
 181 361 181 361 179 331 c 128,-1,17
 177 301 177 301 176 272 c 128,-1,18
 175 243 175 243 175 222 c 0,19,20
 176 180 176 180 187.5 158 c 128,-1,21
 199 136 199 136 225 136 c 0,22,23
 237 136 237 136 246 144 c 128,-1,24
 255 152 255 152 260.5 163 c 128,-1,25
 266 174 266 174 269.5 185.5 c 128,-1,26
 273 197 273 197 273 204 c 0,27,28
 273 209 273 209 273 217 c 0,29,30
 273 224 273 224 272.5 233 c 128,-1,31
 272 242 272 242 271 256 c 1,32,-1
 394 256 l 1,33,34
 393 204 393 204 393 185 c 1,35,36
 392 173 392 173 392 165 c 1,37,38
 384 126 384 126 369.5 98 c 128,-1,39
 355 70 355 70 335 50.5 c 128,-1,40
 315 31 315 31 291.5 19 c 128,-1,41
 268 7 268 7 243 1 c 1,42,43
 247 -10 247 -10 247.5 -21 c 128,-1,44
 248 -32 248 -32 250 -43 c 1,45,46
 250 -56 250 -56 246 -67 c 0,47,48
 243 -77 243 -77 233 -87.5 c 128,-1,49
 223 -98 223 -98 204 -105 c 1,50,51
 198 -84 198 -84 189.5 -72 c 128,-1,52
 181 -60 181 -60 173.5 -55 c 128,-1,53
 166 -50 166 -50 161 -49 c 128,-1,54
 156 -48 156 -48 155 -48 c 2,55,-1
 147 -48 l 2,56,57
 143 -48 143 -48 137.5 -48.5 c 128,-1,58
 132 -49 132 -49 127 -50 c 1,59,60
 125 -46 125 -46 122 -30 c 0,61,62
 121 -24 121 -24 121 -16 c 0,63,64
 121 -2 121 -2 124 18 c 1,65,66
 87 28 87 28 66.5 53.5 c 128,-1,67
 46 79 46 79 36 106 c 0,68,69
 26 132 26 132 24 154 c 2,70,-1
 21 176 l 2,71,72
 20 184 20 184 20 210 c 0,73,74
 20 223 20 223 20 238.5 c 128,-1,75
 20 254 20 254 20 272 c 0,76,77
 20 307 20 307 21 346.5 c 128,-1,78
 22 386 22 386 22 420 c 128,-1,79
 22 454 22 454 22 478 c 128,-1,80
 22 502 22 502 23 507 c 1,81,82
 23 529 23 529 36 556.5 c 128,-1,83
 49 584 49 584 74.5 608.5 c 128,-1,84
 100 633 100 633 136.5 649.5 c 128,-1,85
 173 666 173 666 220 666 c 0,86,87
 257 666 257 666 286.5 653 c 128,-1,88
 316 640 316 640 337.5 622 c 128,-1,89
 359 604 359 604 373 585.5 c 128,-1,90
 387 567 387 567 392 556 c 0,91,92
 396 546 396 546 398 529 c 0,93,94
 400 514 400 514 402 490 c 128,-1,95
 404 466 404 466 405 431 c 1,96,-1
 281 431 l 1,0,1
EndSplineSet
EndChar

StartChar: Egrave
Encoding: 200 200 220
Width: 452
Flags: W
LayerCount: 2
Fore
SplineSet
183 522 m 1,0,-1
 185 395 l 1,1,-1
 323 395 l 1,2,-1
 323 267 l 1,3,-1
 181 267 l 1,4,-1
 180 146 l 1,5,-1
 323 147 l 1,6,-1
 318 2 l 1,7,8
 243 1 243 1 182 1 c 2,9,-1
 31 1 l 1,10,11
 32 8 32 8 32 40 c 0,12,13
 32 56 32 56 32 76 c 128,-1,14
 32 96 32 96 31.5 120 c 128,-1,15
 31 144 31 144 31 171 c 0,16,17
 32 198 32 198 32 227 c 0,18,19
 32 286 32 286 32 347 c 0,20,21
 32 490 32 490 33 667 c 1,22,-1
 100 667 l 1,23,-1
 51 781 l 1,24,-1
 206 781 l 1,25,-1
 259 666 l 1,26,-1
 319 666 l 1,27,-1
 323 522 l 1,28,-1
 183 522 l 1,0,-1
EndSplineSet
EndChar

StartChar: Eacute
Encoding: 201 201 119
Width: 478
Flags: W
LayerCount: 2
Fore
SplineSet
266 781 m 1,0,-1
 263 666 l 1,1,-1
 348 666 l 1,2,-1
 349 511 l 1,3,-1
 210 511 l 1,4,-1
 211 394 l 1,5,-1
 354 394 l 1,6,-1
 357 249 l 1,7,-1
 210 249 l 1,8,-1
 210 141 l 1,9,-1
 363 141 l 1,10,-1
 366 -1 l 1,11,-1
 37 0 l 1,12,-1
 39 666 l 1,13,-1
 111 666 l 1,14,-1
 114 780 l 1,15,-1
 266 781 l 1,0,-1
EndSplineSet
EndChar

StartChar: Ecircumflex
Encoding: 202 202 217
Width: 452
Flags: W
LayerCount: 2
Fore
SplineSet
59 721 m 1,0,-1
 181 794 l 1,1,-1
 309 742 l 1,2,-1
 282 658 l 1,3,-1
 177 702 l 1,4,-1
 101 643 l 1,5,-1
 235 643 l 1,6,-1
 321 643 l 1,7,-1
 321 512 l 1,8,-1
 185 512 l 1,9,-1
 186 390 l 1,10,-1
 323 390 l 1,11,-1
 324 262 l 1,12,-1
 182 262 l 1,13,-1
 182 141 l 1,14,-1
 324 142 l 1,15,-1
 321 2 l 1,16,17
 246 1 246 1 184 1 c 2,18,-1
 31 1 l 1,19,20
 31 7 31 7 31 38 c 128,-1,21
 31 69 31 69 31 115.5 c 128,-1,22
 31 162 31 162 31.5 219 c 128,-1,23
 32 276 32 276 32 335 c 0,24,25
 32 472 32 472 33 642 c 1,26,-1
 60 642 l 1,27,-1
 59 721 l 1,0,-1
EndSplineSet
EndChar

StartChar: Edieresis
Encoding: 203 203 219
Width: 452
Flags: W
LayerCount: 2
Fore
SplineSet
344 781 m 1,0,-1
 347 645 l 1,1,-1
 320 645 l 1,2,-1
 323 522 l 1,3,-1
 183 522 l 1,4,-1
 185 395 l 1,5,-1
 323 395 l 1,6,-1
 323 267 l 1,7,-1
 181 267 l 1,8,-1
 180 146 l 1,9,-1
 323 147 l 1,10,-1
 318 2 l 1,11,12
 243 1 243 1 182 1 c 2,13,-1
 31 1 l 1,14,15
 31 7 31 7 31 38 c 128,-1,16
 31 69 31 69 31 115.5 c 128,-1,17
 31 162 31 162 31.5 219 c 128,-1,18
 32 276 32 276 33 335 c 1,19,20
 33 472 33 472 34 644 c 1,21,-1
 -26 644 l 1,22,-1
 -28 781 l 1,23,-1
 110 781 l 1,24,-1
 110 666 l 1,25,-1
 201 666 l 1,26,-1
 200 781 l 1,27,-1
 344 781 l 1,0,-1
EndSplineSet
EndChar

StartChar: Igrave
Encoding: 204 204 224
Width: 320
Flags: W
LayerCount: 2
Fore
SplineSet
37 0 m 1,0,-1
 38 666 l 1,1,-1
 75 666 l 1,2,-1
 -23 781 l 1,3,-1
 98 781 l 1,4,-1
 150 666 l 1,5,-1
 189 666 l 1,6,-1
 185 0 l 1,7,-1
 37 0 l 1,0,-1
EndSplineSet
EndChar

StartChar: Iacute
Encoding: 205 205 221
Width: 325
Flags: W
LayerCount: 2
Fore
SplineSet
36 -1 m 1,0,-1
 41 666 l 1,1,-1
 96 667 l 1,2,-1
 97 781 l 1,3,-1
 216 781 l 1,4,-1
 161 666 l 1,5,-1
 192 666 l 1,6,-1
 184 -1 l 1,7,-1
 36 -1 l 1,0,-1
EndSplineSet
EndChar

StartChar: Icircumflex
Encoding: 206 206 222
Width: 333
Flags: W
LayerCount: 2
Fore
SplineSet
5 707 m 1,0,1
 17 716 17 716 35.5 728 c 128,-1,2
 54 740 54 740 73.5 752.5 c 128,-1,3
 93 765 93 765 111 776 c 128,-1,4
 129 787 129 787 141 794 c 1,5,-1
 257 743 l 1,6,-1
 224 651 l 1,7,8
 221 652 221 652 211.5 655 c 128,-1,9
 202 658 202 658 191 661.5 c 128,-1,10
 180 665 180 665 169 668.5 c 128,-1,11
 158 672 158 672 150 674 c 1,12,13
 146 670 146 670 137.5 663.5 c 128,-1,14
 129 657 129 657 120 650 c 0,15,16
 110 642 110 642 98 634 c 1,17,-1
 192 635 l 1,18,-1
 185 0 l 1,19,-1
 37 0 l 1,20,-1
 41 622 l 1,21,22
 32 648 32 648 23 665.5 c 128,-1,23
 14 683 14 683 5 707 c 1,0,1
EndSplineSet
EndChar

StartChar: Idieresis
Encoding: 207 207 223
Width: 336
Flags: W
LayerCount: 2
Fore
SplineSet
312 781 m 1,0,-1
 306 645 l 1,1,-1
 202 645 l 1,2,-1
 192 -1 l 1,3,-1
 44 -1 l 1,4,-1
 50 646 l 1,5,-1
 -62 646 l 1,6,-1
 -63 781 l 1,7,-1
 76 781 l 1,8,-1
 76 665 l 1,9,-1
 171 665 l 1,10,-1
 173 781 l 1,11,-1
 312 781 l 1,0,-1
EndSplineSet
EndChar

StartChar: Eth
Encoding: 208 208 242
Width: 535
Flags: W
LayerCount: 2
Fore
SplineSet
22 397 m 1,0,-1
 24 666 l 1,1,-1
 172 665 l 1,2,-1
 175 397 l 1,3,-1
 219 397 l 1,4,-1
 219 264 l 1,5,-1
 177 264 l 1,6,-1
 179 163 l 1,7,8
 192 166 192 166 205.5 171 c 128,-1,9
 219 176 219 176 230.5 185 c 128,-1,10
 242 194 242 194 250 209.5 c 128,-1,11
 258 225 258 225 260 249 c 0,12,13
 262 276 262 276 262 310 c 0,14,15
 262 327 262 327 262.5 343 c 0,16,17
 262 360 262 360 262 376 c 0,18,19
 262 408 262 408 260.5 435.5 c 128,-1,20
 259 463 259 463 256 477 c 0,21,22
 254 489 254 489 246.5 497.5 c 128,-1,23
 239 506 239 506 228 511 c 128,-1,24
 217 516 217 516 205 518.5 c 128,-1,25
 193 521 193 521 183 521 c 1,26,-1
 183 666 l 1,27,-1
 274 666 l 1,28,29
 320 658 320 658 348 631 c 128,-1,30
 376 604 376 604 393.5 567.5 c 128,-1,31
 411 531 411 531 419 490 c 128,-1,32
 427 449 427 449 433 413 c 0,33,34
 440 361 440 361 440 316 c 0,35,36
 440 254 440 254 427 204 c 0,37,38
 404 117 404 117 362 58 c 1,39,40
 333 31 333 31 290.5 18.5 c 128,-1,41
 248 6 248 6 200 2 c 0,42,43
 162 -1 162 -1 124 -1 c 2,44,-1
 106 -1 l 2,45,46
 58 0 58 0 20 0 c 1,47,-1
 21 264 l 1,48,-1
 -26 264 l 1,49,-1
 -26 397 l 1,50,-1
 22 397 l 1,0,-1
EndSplineSet
EndChar

StartChar: Ntilde
Encoding: 209 209 120
Width: 581
Flags: W
LayerCount: 2
Fore
SplineSet
84 754 m 1,0,1
 98 761 98 761 112 766 c 0,2,3
 124 771 124 771 137 775.5 c 128,-1,4
 150 780 150 780 162 783 c 128,-1,5
 174 786 174 786 189.5 785 c 128,-1,6
 205 784 205 784 221 782.5 c 128,-1,7
 237 781 237 781 252 778.5 c 128,-1,8
 267 776 267 776 278 776 c 0,9,10
 289 775 289 775 302 776.5 c 128,-1,11
 315 778 315 778 325 780 c 0,12,13
 338 782 338 782 352 784 c 2,14,-1
 413 796 l 1,15,-1
 413 701 l 1,16,17
 401 697 401 697 389 693 c 0,18,19
 378 690 378 690 367.5 687.5 c 128,-1,20
 357 685 357 685 349 685 c 0,21,22
 311 685 311 685 287.5 686.5 c 128,-1,23
 264 688 264 688 248 689 c 128,-1,24
 232 690 232 690 221 689.5 c 128,-1,25
 210 689 210 689 197 685 c 0,26,27
 170 677 170 677 160 670 c 128,-1,28
 150 663 150 663 145 657 c 1,29,-1
 190 657 l 1,30,-1
 288 485 l 1,31,-1
 288 658 l 1,32,-1
 442 658 l 1,33,-1
 439 0 l 1,34,-1
 278 0 l 1,35,36
 278 58 278 58 279 103 c 0,37,38
 279 122 279 122 279.5 140.5 c 128,-1,39
 280 159 280 159 280 173.5 c 128,-1,40
 280 188 280 188 280 197 c 2,41,-1
 280 206 l 1,42,43
 274 214 274 214 268 223 c 0,44,45
 262 231 262 231 255 240 c 128,-1,46
 248 249 248 249 241 259 c 0,47,48
 223 282 223 282 202 312 c 1,49,-1
 196 0 l 1,50,-1
 37 0 l 1,51,-1
 41 656 l 1,52,-1
 85 656 l 1,53,-1
 84 754 l 1,0,1
EndSplineSet
EndChar

StartChar: Ograve
Encoding: 210 210 227
Width: 508
Flags: W
LayerCount: 2
Fore
SplineSet
200 781 m 1,0,-1
 249 666 l 1,1,2
 274 663 274 663 298 655.5 c 128,-1,3
 322 648 322 648 341.5 634.5 c 128,-1,4
 361 621 361 621 374.5 600 c 128,-1,5
 388 579 388 579 395 549 c 0,6,7
 398 536 398 536 398 529 c 128,-1,8
 398 522 398 522 399 518 c 0,9,10
 400 511 400 511 402 477 c 0,11,12
 404 444 404 444 404 394 c 0,13,14
 404 384 404 384 405 373 c 0,15,16
 405 332 405 332 403 284 c 0,17,18
 401 224 401 224 397 167 c 0,19,20
 394 130 394 130 379 103 c 128,-1,21
 364 76 364 76 343.5 57.5 c 128,-1,22
 323 39 323 39 299 27.5 c 128,-1,23
 275 16 275 16 254 10 c 128,-1,24
 233 4 233 4 218 2 c 128,-1,25
 203 0 203 0 199 0 c 2,26,-1
 171 0 l 1,27,-1
 176 167 l 1,28,29
 186 168 186 168 198 171.5 c 128,-1,30
 210 175 210 175 220.5 181 c 128,-1,31
 231 187 231 187 239 195 c 128,-1,32
 247 203 247 203 248 214 c 1,33,34
 250 223 250 223 251.5 245.5 c 128,-1,35
 253 268 253 268 253.5 297.5 c 128,-1,36
 254 327 254 327 254 358.5 c 128,-1,37
 254 390 254 390 254 418 c 0,38,39
 254 432 254 432 254.5 443 c 0,40,41
 254 454 254 454 254 464 c 0,42,43
 254 483 254 483 253 487 c 0,44,45
 251 500 251 500 243.5 509 c 128,-1,46
 236 518 236 518 216 518 c 0,47,48
 202 518 202 518 193.5 515 c 128,-1,49
 185 512 185 512 180.5 505.5 c 128,-1,50
 176 499 176 499 174.5 487.5 c 128,-1,51
 173 476 173 476 171 460 c 1,52,-1
 161 2 l 1,53,54
 115 6 115 6 88 23.5 c 128,-1,55
 61 41 61 41 45 61 c 0,56,57
 27 84 27 84 20 112 c 0,58,59
 18 122 18 122 17.5 152 c 128,-1,60
 17 182 17 182 16.5 221.5 c 0,61,62
 16 260 16 260 16 306 c 0,63,64
 16 329 16 329 15.5 350.5 c 0,65,66
 16 372 16 372 16 392 c 0,67,68
 16 432 16 432 16 464.5 c 128,-1,69
 16 497 16 497 17 510 c 0,70,71
 18 527 18 527 24.5 550.5 c 128,-1,72
 31 574 31 574 46.5 597.5 c 128,-1,73
 62 621 62 621 88 640 c 128,-1,74
 114 659 114 659 154 666 c 1,75,-1
 52 781 l 1,76,-1
 200 781 l 1,0,-1
EndSplineSet
EndChar

StartChar: Oacute
Encoding: 211 211 225
Width: 508
Flags: W
LayerCount: 2
Fore
SplineSet
197 781 m 1,0,-1
 324 781 l 1,1,-1
 287 652 l 1,2,3
 327 640 327 640 355.5 612.5 c 128,-1,4
 384 585 384 585 394 536 c 0,5,6
 402 497 402 497 404 448 c 0,7,8
 406 407 406 407 407 365 c 0,9,10
 406 356 406 356 406 348 c 0,11,12
 406 298 406 298 403 250.5 c 128,-1,13
 400 203 400 203 397 167 c 0,14,15
 392 105 392 105 365 71.5 c 128,-1,16
 338 38 338 38 305 22 c 128,-1,17
 272 6 272 6 241.5 3 c 128,-1,18
 211 0 211 0 199 0 c 2,19,-1
 189 0 l 2,20,21
 184 0 184 0 179.5 0 c 128,-1,22
 175 0 175 0 171 1 c 1,23,-1
 175 168 l 1,24,25
 199 168 199 168 213 172 c 128,-1,26
 227 176 227 176 234 183 c 128,-1,27
 241 190 241 190 243.5 198.5 c 128,-1,28
 246 207 246 207 248 215 c 1,29,30
 248 225 248 225 249 246.5 c 128,-1,31
 250 268 250 268 250.5 295 c 128,-1,32
 251 322 251 322 252 351.5 c 128,-1,33
 253 381 253 381 253 406 c 128,-1,34
 253 431 253 431 253 448.5 c 128,-1,35
 253 466 253 466 253 470 c 0,36,37
 251 483 251 483 243.5 492.5 c 128,-1,38
 236 502 236 502 216 502 c 0,39,40
 192 502 192 502 181 490 c 0,41,42
 171 479 171 479 171 450 c 0,43,44
 171 447 171 447 171 444 c 2,45,-1
 161 3 l 1,46,47
 116 6 116 6 88 25.5 c 128,-1,48
 60 45 60 45 43 67 c 0,49,50
 24 93 24 93 15 125 c 1,51,52
 14 134 14 134 13.5 163 c 128,-1,53
 13 192 13 192 13 231 c 128,-1,54
 13 270 13 270 13.5 314 c 128,-1,55
 14 358 14 358 15 397.5 c 128,-1,56
 16 437 16 437 16.5 468 c 128,-1,57
 17 499 17 499 17 512 c 0,58,59
 17 531 17 531 25 557.5 c 128,-1,60
 33 584 33 584 52 608 c 128,-1,61
 71 632 71 632 105 649 c 128,-1,62
 139 666 139 666 192 666 c 0,63,64
 200 666 200 666 204 665 c 1,65,-1
 197 781 l 1,0,-1
EndSplineSet
EndChar

StartChar: Ocircumflex
Encoding: 212 212 226
Width: 508
Flags: W
LayerCount: 2
Fore
SplineSet
138 719 m 1,0,-1
 267 792 l 1,1,-1
 391 739 l 1,2,-1
 362 656 l 1,3,-1
 257 698 l 1,4,-1
 213 662 l 1,5,6
 244 660 244 660 274.5 653.5 c 128,-1,7
 305 647 305 647 329.5 632 c 128,-1,8
 354 617 354 617 372 593 c 128,-1,9
 390 569 390 569 398 533 c 0,10,11
 401 520 401 520 401 511 c 128,-1,12
 401 502 401 502 402 498 c 0,13,14
 403 491 403 491 404.5 460 c 128,-1,15
 406 429 406 429 406 383.5 c 128,-1,16
 406 338 406 338 404.5 281.5 c 128,-1,17
 403 225 403 225 399 167 c 0,18,19
 396 130 396 130 381 103.5 c 128,-1,20
 366 77 366 77 345.5 58.5 c 128,-1,21
 325 40 325 40 301 28.5 c 128,-1,22
 277 17 277 17 256 10.5 c 128,-1,23
 235 4 235 4 220 2 c 128,-1,24
 205 0 205 0 201 0 c 2,25,-1
 173 0 l 1,26,-1
 177 168 l 1,27,28
 189 168 189 168 201 171 c 128,-1,29
 213 174 213 174 223.5 180 c 128,-1,30
 234 186 234 186 241.5 194.5 c 128,-1,31
 249 203 249 203 250 215 c 0,32,33
 251 230 251 230 252.5 267.5 c 128,-1,34
 254 305 254 305 255 346 c 128,-1,35
 256 387 256 387 256 420 c 0,36,37
 256 431 256 431 257 439 c 0,38,39
 257 455 257 455 256 459 c 0,40,41
 255 475 255 475 247.5 486.5 c 128,-1,42
 240 498 240 498 220 498 c 0,43,44
 193 498 193 498 183.5 484.5 c 128,-1,45
 174 471 174 471 174 441 c 2,46,-1
 163 2 l 1,47,48
 117 6 117 6 89.5 24.5 c 128,-1,49
 62 43 62 43 47 65 c 0,50,51
 29 90 29 90 20 121 c 1,52,53
 18 132 18 132 17.5 161 c 128,-1,54
 17 190 17 190 17 228.5 c 128,-1,55
 17 267 17 267 17 311 c 128,-1,56
 17 355 17 355 17.5 394 c 128,-1,57
 18 433 18 433 19 463.5 c 128,-1,58
 20 494 20 494 20 507 c 0,59,60
 20 523 20 523 25.5 545 c 128,-1,61
 31 567 31 567 44.5 589 c 128,-1,62
 58 611 58 611 81.5 629 c 128,-1,63
 105 647 105 647 140 656 c 1,64,-1
 138 719 l 1,0,-1
EndSplineSet
EndChar

StartChar: Otilde
Encoding: 213 213 192
Width: 508
Flags: W
LayerCount: 2
Fore
SplineSet
28 766 m 1,0,1
 39 772 39 772 53 777 c 0,2,3
 65 782 65 782 82 785.5 c 128,-1,4
 99 789 99 789 119 789 c 128,-1,5
 139 789 139 789 166 784.5 c 128,-1,6
 193 780 193 780 220 774.5 c 128,-1,7
 247 769 247 769 269.5 764.5 c 128,-1,8
 292 760 292 760 302 760 c 0,9,10
 313 760 313 760 322.5 762.5 c 128,-1,11
 332 765 332 765 340 768 c 0,12,13
 349 772 349 772 359 776 c 1,14,-1
 366 654 l 1,15,16
 361 651 361 651 356 648 c 0,17,18
 351 646 351 646 345 644 c 128,-1,19
 339 642 339 642 331 642 c 1,20,21
 355 628 355 628 372 602 c 128,-1,22
 389 576 389 576 394 544 c 0,23,24
 400 506 400 506 402 456 c 0,25,26
 404 414 404 414 405 370 c 0,27,28
 404 360 404 360 404 352 c 0,29,30
 404 300 404 300 402 251 c 128,-1,31
 400 202 400 202 397 166 c 0,32,33
 392 104 392 104 364.5 70.5 c 128,-1,34
 337 37 337 37 304.5 21 c 128,-1,35
 272 5 272 5 241.5 2 c 128,-1,36
 211 -1 211 -1 199 -1 c 2,37,-1
 189 -1 l 2,38,39
 184 -1 184 -1 179.5 -1 c 128,-1,40
 175 -1 175 -1 171 0 c 1,41,-1
 176 167 l 1,42,43
 188 167 188 167 200 169 c 128,-1,44
 212 171 212 171 222 176 c 128,-1,45
 232 181 232 181 239.5 190.5 c 128,-1,46
 247 200 247 200 248 214 c 0,47,48
 248 224 248 224 249.5 246 c 128,-1,49
 251 268 251 268 251 295.5 c 128,-1,50
 251 323 251 323 251.5 352.5 c 128,-1,51
 252 382 252 382 253 407 c 0,52,53
 254 424 254 424 254 437 c 0,54,55
 254 444 254 444 254 450 c 0,56,57
 254 468 254 468 253 471 c 0,58,59
 253 484 253 484 244.5 496.5 c 128,-1,60
 236 509 236 509 216 509 c 0,61,62
 187 509 187 509 179 494 c 128,-1,63
 171 479 171 479 171 451 c 2,64,-1
 161 2 l 1,65,66
 116 5 116 5 88.5 22.5 c 128,-1,67
 61 40 61 40 45 60 c 0,68,69
 27 83 27 83 20 112 c 0,70,71
 16 125 16 125 15 156.5 c 128,-1,72
 14 188 14 188 14 229 c 128,-1,73
 14 270 14 270 15.5 315.5 c 128,-1,74
 17 361 17 361 18 401.5 c 128,-1,75
 19 442 19 442 20.5 473.5 c 128,-1,76
 22 505 22 505 22 518 c 0,77,78
 23 532 23 532 26.5 551.5 c 128,-1,79
 30 571 30 571 39.5 590.5 c 128,-1,80
 49 610 49 610 66 628 c 128,-1,81
 83 646 83 646 109 658 c 1,82,83
 105 658 105 658 99 660 c 128,-1,84
 93 662 93 662 87 662 c 0,85,86
 78 662 78 662 68.5 660 c 128,-1,87
 59 658 59 658 50 656 c 0,88,89
 39 653 39 653 30 651 c 1,90,-1
 28 766 l 1,0,1
EndSplineSet
EndChar

StartChar: Odieresis
Encoding: 214 214 121
Width: 508
Flags: W
LayerCount: 2
Fore
SplineSet
400 781 m 1,0,-1
 398 643 l 1,1,-1
 326 643 l 1,2,3
 346 630 346 630 358.5 615 c 128,-1,4
 371 600 371 600 378 586 c 0,5,6
 387 570 387 570 391 553 c 1,7,8
 390 547 390 547 390 532 c 0,9,10
 390 524 390 524 390 514 c 0,11,12
 390 499 390 499 390.5 482 c 0,13,14
 390 465 390 465 390 445 c 0,15,16
 390 405 390 405 389 359.5 c 128,-1,17
 388 314 388 314 387.5 272.5 c 128,-1,18
 387 231 387 231 386.5 199.5 c 128,-1,19
 386 168 386 168 386 155 c 0,20,21
 386 136 386 136 380 109.5 c 128,-1,22
 374 83 374 83 356 58.5 c 128,-1,23
 338 34 338 34 305.5 17 c 128,-1,24
 273 0 273 0 221 0 c 0,25,26
 187 0 187 0 154 6 c 128,-1,27
 121 12 121 12 93 27 c 128,-1,28
 65 42 65 42 45 67 c 128,-1,29
 25 92 25 92 17 130 c 0,30,31
 15 142 15 142 14.5 151.5 c 128,-1,32
 14 161 14 161 13 164 c 1,33,34
 13 173 13 173 13 203 c 128,-1,35
 13 233 13 233 13.5 278.5 c 128,-1,36
 14 324 14 324 14.5 380.5 c 128,-1,37
 15 437 15 437 16 499 c 0,38,39
 16 525 16 525 24 548 c 128,-1,40
 32 571 32 571 43.5 589.5 c 128,-1,41
 55 608 55 608 69 621.5 c 128,-1,42
 83 635 83 635 96 643 c 1,43,-1
 11 643 l 1,44,-1
 8 781 l 1,45,-1
 156 781 l 1,46,-1
 158 663 l 1,47,48
 175 667 175 667 189 667 c 0,49,50
 191 666 191 666 192 666 c 0,51,52
 207 666 207 666 210 666 c 0,53,54
 223 666 223 666 229 665 c 128,-1,55
 235 664 235 664 241 662 c 1,56,-1
 236 498 l 1,57,58
 227 501 227 501 216 500 c 128,-1,59
 205 499 205 499 194.5 493.5 c 128,-1,60
 184 488 184 488 176 477.5 c 128,-1,61
 168 467 168 467 165 451 c 0,62,63
 163 442 163 442 161.5 420.5 c 128,-1,64
 160 399 160 399 159 372 c 128,-1,65
 158 345 158 345 158 315.5 c 128,-1,66
 158 286 158 286 158 260.5 c 128,-1,67
 158 235 158 235 158 217.5 c 128,-1,68
 158 200 158 200 159 196 c 0,69,70
 161 183 161 183 168.5 173.5 c 128,-1,71
 176 164 176 164 196 164 c 0,72,73
 225 164 225 164 233 178.5 c 128,-1,74
 241 193 241 193 242 222 c 0,75,76
 245 355 245 355 246.5 441 c 128,-1,77
 248 527 248 527 249 580 c 128,-1,78
 250 633 250 633 250.5 660.5 c 128,-1,79
 251 688 251 688 251 705.5 c 128,-1,80
 251 723 251 723 252 738 c 128,-1,81
 253 753 253 753 253 780 c 1,82,-1
 400 781 l 1,0,-1
EndSplineSet
EndChar

StartChar: multiply
Encoding: 215 215 20
Width: 544
Flags: W
LayerCount: 2
Fore
SplineSet
135 390 m 1,0,-1
 230 295 l 1,1,-1
 327 395 l 1,2,-1
 430 295 l 1,3,-1
 334 199 l 1,4,-1
 442 96 l 1,5,-1
 347 0 l 1,6,-1
 241 107 l 1,7,-1
 152 0 l 1,8,-1
 39 96 l 1,9,-1
 136 206 l 1,10,-1
 49 295 l 1,11,-1
 135 390 l 1,0,-1
EndSplineSet
EndChar

StartChar: Oslash
Encoding: 216 216 163
Width: 605
Flags: W
LayerCount: 2
Fore
SplineSet
63 162 m 2,0,1
 62 169 62 169 60.5 200.5 c 0,2,3
 58 232 58 232 58 278 c 0,4,5
 58 290 58 290 58 302 c 0,6,7
 58 340 58 340 60 382 c 0,8,9
 62 438 62 438 66 497 c 0,10,11
 69 534 69 534 84 560.5 c 128,-1,12
 99 587 99 587 119.5 605.5 c 128,-1,13
 140 624 140 624 164 635.5 c 128,-1,14
 188 647 188 647 208 653.5 c 128,-1,15
 228 660 228 660 243.5 662 c 128,-1,16
 259 664 259 664 263 664 c 2,17,-1
 274 664 l 2,18,19
 279 664 279 664 283 663.5 c 128,-1,20
 287 663 287 663 291 663 c 1,21,-1
 286 496 l 1,22,23
 275 496 275 496 263.5 492.5 c 128,-1,24
 252 489 252 489 241.5 483 c 128,-1,25
 231 477 231 477 223.5 468.5 c 128,-1,26
 216 460 216 460 215 449 c 1,27,28
 213 440 213 440 211.5 418.5 c 128,-1,29
 210 397 210 397 209.5 370 c 128,-1,30
 209 343 209 343 208.5 313.5 c 128,-1,31
 208 284 208 284 208 258.5 c 128,-1,32
 208 233 208 233 208.5 215.5 c 128,-1,33
 209 198 209 198 209 194 c 0,34,35
 211 181 211 181 218.5 171.5 c 128,-1,36
 226 162 226 162 246 162 c 0,37,38
 275 162 275 162 283.5 174 c 128,-1,39
 292 186 292 186 292 220 c 2,40,-1
 301 661 l 1,41,-1
 344 756 l 1,42,-1
 481 685 l 1,43,-1
 435 571 l 1,44,45
 438 566 438 566 438.5 562 c 128,-1,46
 439 558 439 558 440 556 c 0,47,48
 441 552 441 552 442 551 c 1,49,50
 441 545 441 545 441 530 c 0,51,52
 441 522 441 522 441.5 512.5 c 128,-1,53
 442 503 442 503 442 492 c 0,54,55
 442 470 442 470 441 443 c 0,56,57
 440 403 440 403 439.5 357.5 c 128,-1,58
 439 312 439 312 438.5 270.5 c 128,-1,59
 438 229 438 229 437.5 197.5 c 128,-1,60
 437 166 437 166 437 153 c 0,61,62
 437 134 437 134 430.5 107.5 c 128,-1,63
 424 81 424 81 406 56.5 c 128,-1,64
 388 32 388 32 355.5 15 c 128,-1,65
 323 -2 323 -2 271 -2 c 0,66,67
 245 -2 245 -2 219 2 c 128,-1,68
 193 6 193 6 169 14 c 1,69,-1
 135 -43 l 1,70,-1
 9 38 l 1,71,-1
 64 157 l 1,72,-1
 63 162 l 2,0,1
EndSplineSet
EndChar

StartChar: Ugrave
Encoding: 217 217 230
Width: 549
Flags: W
LayerCount: 2
Fore
SplineSet
316 666 m 1,0,-1
 418 666 l 1,1,-1
 418 140 l 2,2,3
 418 116 418 116 406 91.5 c 128,-1,4
 394 67 394 67 371.5 46.5 c 128,-1,5
 349 26 349 26 315 13 c 128,-1,6
 281 0 281 0 236 0 c 0,7,8
 166 0 166 0 124.5 22.5 c 128,-1,9
 83 45 83 45 60.5 74 c 128,-1,10
 38 103 38 103 30.5 130 c 128,-1,11
 23 157 23 157 22 166 c 0,12,13
 21 301 21 301 20 409 c 0,14,15
 20 455 20 455 19.5 499.5 c 128,-1,16
 19 544 19 544 18.5 580 c 128,-1,17
 18 616 18 616 18 639 c 128,-1,18
 18 662 18 662 18 666 c 1,19,-1
 175 666 l 1,20,-1
 178 282 l 2,21,22
 179 219 179 219 196 193 c 128,-1,23
 213 167 213 167 241 167 c 0,24,25
 253 167 253 167 259 174 c 128,-1,26
 265 181 265 181 268 192 c 128,-1,27
 271 203 271 203 271.5 215.5 c 128,-1,28
 272 228 272 228 272 239 c 2,29,-1
 275 625 l 1,30,-1
 236 625 l 1,31,-1
 161 781 l 1,32,-1
 272 781 l 1,33,-1
 316 666 l 1,0,-1
EndSplineSet
EndChar

StartChar: Uacute
Encoding: 218 218 228
Width: 549
Flags: W
LayerCount: 2
Fore
SplineSet
156 781 m 1,0,-1
 282 781 l 1,1,-1
 199 634 l 1,2,-1
 179 634 l 1,3,-1
 178 284 l 2,4,5
 178 222 178 222 189 195.5 c 128,-1,6
 200 169 200 169 229 169 c 0,7,8
 244 169 244 169 252.5 176 c 128,-1,9
 261 183 261 183 265.5 194 c 128,-1,10
 270 205 270 205 271 217.5 c 128,-1,11
 272 230 272 230 272 241 c 0,12,13
 272 246 272 246 272 267 c 128,-1,14
 272 288 272 288 272.5 319 c 128,-1,15
 273 350 273 350 273.5 387.5 c 128,-1,16
 274 425 274 425 274 464 c 0,17,18
 275 555 275 555 275 666 c 1,19,-1
 421 666 l 1,20,-1
 418 142 l 2,21,22
 418 118 418 118 406 93 c 128,-1,23
 394 68 394 68 371 47.5 c 128,-1,24
 348 27 348 27 314.5 13.5 c 128,-1,25
 281 0 281 0 236 0 c 0,26,27
 189 0 189 0 155.5 11 c 128,-1,28
 122 22 122 22 98 38.5 c 128,-1,29
 74 55 74 55 59.5 75 c 128,-1,30
 45 95 45 95 37 113.5 c 128,-1,31
 29 132 29 132 25.5 147 c 128,-1,32
 22 162 22 162 21 168 c 2,33,-1
 20 666 l 1,34,-1
 130 666 l 1,35,-1
 156 781 l 1,0,-1
EndSplineSet
EndChar

StartChar: Ucircumflex
Encoding: 219 219 229
Width: 549
Flags: W
LayerCount: 2
Fore
SplineSet
29 722 m 1,0,-1
 153 793 l 1,1,-1
 279 740 l 1,2,-1
 252 661 l 1,3,-1
 148 699 l 1,4,-1
 97 652 l 1,5,-1
 173 652 l 1,6,-1
 178 282 l 2,7,8
 179 219 179 219 189 193 c 128,-1,9
 199 167 199 167 227 167 c 0,10,11
 243 167 243 167 251.5 174 c 128,-1,12
 260 181 260 181 265 192 c 128,-1,13
 270 203 270 203 271 215.5 c 128,-1,14
 272 228 272 228 272 239 c 2,15,-1
 263 652 l 1,16,-1
 418 652 l 1,17,-1
 418 140 l 2,18,19
 418 116 418 116 406 91.5 c 128,-1,20
 394 67 394 67 371.5 46.5 c 128,-1,21
 349 26 349 26 315 13 c 128,-1,22
 281 0 281 0 236 0 c 0,23,24
 189 0 189 0 155.5 10.5 c 128,-1,25
 122 21 122 21 98 37 c 128,-1,26
 74 53 74 53 59 72.5 c 128,-1,27
 44 92 44 92 36.5 110.5 c 128,-1,28
 29 129 29 129 25.5 144 c 128,-1,29
 22 159 22 159 22 166 c 2,30,-1
 21 652 l 1,31,-1
 42 652 l 1,32,-1
 29 722 l 1,0,-1
EndSplineSet
EndChar

StartChar: Udieresis
Encoding: 220 220 122
Width: 581
Flags: W
LayerCount: 2
Fore
SplineSet
423 136 m 0,0,1
 422 112 422 112 410 88 c 128,-1,2
 398 64 398 64 374 44.5 c 128,-1,3
 350 25 350 25 315.5 12.5 c 128,-1,4
 281 0 281 0 236 0 c 0,5,6
 166 0 166 0 124 22 c 128,-1,7
 82 44 82 44 59.5 72 c 128,-1,8
 37 100 37 100 30 126.5 c 128,-1,9
 23 153 23 153 22 162 c 0,10,11
 20 256 20 256 20 344 c 128,-1,12
 20 432 20 432 20 501 c 0,13,14
 20 582 20 582 20 655 c 1,15,-1
 88 655 l 1,16,-1
 88 671 l 1,17,-1
 33 671 l 1,18,-1
 32 781 l 1,19,-1
 193 781 l 1,20,-1
 193 671 l 1,21,-1
 130 671 l 1,22,-1
 131 656 l 1,23,-1
 182 655 l 1,24,-1
 179 278 l 2,25,26
 179 216 179 216 189.5 189.5 c 128,-1,27
 200 163 200 163 228 163 c 0,28,29
 240 163 240 163 248.5 170 c 128,-1,30
 257 177 257 177 262 188 c 128,-1,31
 267 199 267 199 270 211.5 c 128,-1,32
 273 224 273 224 273 235 c 2,33,-1
 273 655 l 1,34,-1
 341 656 l 1,35,-1
 340 671 l 1,36,-1
 284 671 l 1,37,-1
 285 781 l 1,38,-1
 441 781 l 1,39,-1
 442 671 l 1,40,-1
 387 671 l 1,41,-1
 388 655 l 1,42,-1
 426 654 l 1,43,44
 426 540 426 540 426 439 c 0,45,46
 426 396 426 396 425.5 351.5 c 128,-1,47
 425 307 425 307 425 266.5 c 128,-1,48
 425 226 425 226 424.5 192 c 128,-1,49
 424 158 424 158 423 136 c 0,0,1
EndSplineSet
EndChar

StartChar: Yacute
Encoding: 221 221 6
Width: 571
Flags: W
LayerCount: 2
Fore
SplineSet
472 666 m 1,0,-1
 303 303 l 1,1,-1
 308 0 l 1,2,-1
 128 0 l 1,3,-1
 130 377 l 1,4,-1
 -60 666 l 1,5,-1
 39 666 l 1,6,-1
 70 780 l 1,7,-1
 232 781 l 1,8,-1
 141 624 l 1,9,-1
 206 509 l 1,10,-1
 270 666 l 1,11,-1
 472 666 l 1,0,-1
EndSplineSet
EndChar

StartChar: Thorn
Encoding: 222 222 8
Width: 597
Flags: W
LayerCount: 2
Fore
SplineSet
184 -1 m 1,0,-1
 36 -1 l 1,1,-1
 41 665 l 1,2,-1
 191 666 l 1,3,-1
 186 223 l 1,4,5
 187 221 187 221 192.5 216 c 128,-1,6
 198 211 198 211 206 206 c 128,-1,7
 214 201 214 201 225.5 196.5 c 128,-1,8
 237 192 237 192 250 192 c 0,9,10
 270 192 270 192 283 198 c 128,-1,11
 296 204 296 204 304 212.5 c 128,-1,12
 312 221 312 221 315.5 229.5 c 128,-1,13
 319 238 319 238 321 244 c 0,14,15
 323 249 323 249 324 263 c 128,-1,16
 325 277 325 277 325.5 293 c 128,-1,17
 326 309 326 309 326.5 322.5 c 128,-1,18
 327 336 327 336 327 341 c 0,19,20
 328 350 328 350 325.5 368.5 c 128,-1,21
 323 387 323 387 315 399 c 1,22,23
 308 412 308 412 296 416 c 0,24,25
 288 418 288 418 277 418 c 0,26,27
 271 418 271 418 263 417 c 0,28,29
 253 416 253 416 242.5 411 c 128,-1,30
 232 406 232 406 222 399 c 0,31,32
 211 391 211 391 201 381 c 1,33,-1
 201 508 l 1,34,35
 218 523 218 523 237 535 c 0,36,37
 254 546 254 546 278.5 555 c 128,-1,38
 303 564 303 564 332 566 c 0,39,40
 334 566 334 566 336 566 c 0,41,42
 354 566 354 566 378 558 c 0,43,44
 406 550 406 550 431.5 533.5 c 128,-1,45
 457 517 457 517 477.5 492.5 c 128,-1,46
 498 468 498 468 503 437 c 0,47,48
 509 398 509 398 509 362 c 0,49,50
 509 346 509 346 508 330 c 0,51,52
 504 280 504 280 500 245 c 0,53,54
 499 234 499 234 489 210 c 128,-1,55
 479 186 479 186 457.5 161 c 128,-1,56
 436 136 436 136 403 117.5 c 128,-1,57
 370 99 370 99 322 99 c 0,58,59
 265 99 265 99 233 110.5 c 128,-1,60
 201 122 201 122 185 131 c 1,61,-1
 184 -1 l 1,0,-1
EndSplineSet
EndChar

StartChar: germandbls
Encoding: 223 223 155
Width: 588
Flags: W
LayerCount: 2
Fore
SplineSet
364 371 m 1,0,1
 383 365 383 365 406 352 c 128,-1,2
 429 339 429 339 450.5 317.5 c 128,-1,3
 472 296 472 296 487.5 264.5 c 128,-1,4
 503 233 503 233 506 190 c 0,5,6
 506 187 506 187 506 184 c 0,7,8
 506 157 506 157 498 128 c 0,9,10
 488 95 488 95 467.5 66.5 c 128,-1,11
 447 38 447 38 414 19 c 128,-1,12
 381 0 381 0 333 0 c 1,13,14
 338 -1 338 -1 341 -1 c 1,15,16
 332 -1 332 -1 300 0 c 1,17,-1
 300 134 l 1,18,19
 308 134 308 134 317 138.5 c 128,-1,20
 326 143 326 143 334 150.5 c 128,-1,21
 342 158 342 158 347.5 168.5 c 128,-1,22
 353 179 353 179 353 190 c 0,23,24
 353 193 353 193 353 197 c 0,25,26
 353 223 353 223 346 246 c 0,27,28
 338 272 338 272 323 291.5 c 128,-1,29
 308 311 308 311 288 322 c 128,-1,30
 268 333 268 333 246 333 c 1,31,-1
 248 429 l 1,32,33
 274 429 274 429 289 433 c 128,-1,34
 304 437 304 437 311.5 443 c 128,-1,35
 319 449 319 449 321 456 c 128,-1,36
 323 463 323 463 323 469 c 0,37,38
 323 481 323 481 316 489 c 128,-1,39
 309 497 309 497 299 502 c 128,-1,40
 289 507 289 507 277.5 509 c 128,-1,41
 266 511 266 511 257 511 c 2,42,-1
 229 511 l 1,43,-1
 220 0 l 1,44,-1
 58 0 l 1,45,-1
 65 658 l 1,46,-1
 260 658 l 2,47,48
 278 658 278 658 308 649.5 c 128,-1,49
 338 641 338 641 367.5 619.5 c 128,-1,50
 397 598 397 598 419.5 561.5 c 128,-1,51
 442 525 442 525 444 469 c 0,52,53
 444 458 444 458 438 443 c 128,-1,54
 432 428 432 428 422 413.5 c 128,-1,55
 412 399 412 399 397 387 c 128,-1,56
 382 375 382 375 364 371 c 1,0,1
EndSplineSet
EndChar

StartChar: agrave
Encoding: 224 224 124
Width: 623
Flags: W
LayerCount: 2
Fore
SplineSet
271 459 m 1,0,1
 293 453 293 453 313.5 443 c 128,-1,2
 334 433 334 433 348 419 c 1,3,-1
 348 469 l 1,4,-1
 503 469 l 1,5,-1
 498 -1 l 1,6,-1
 332 0 l 1,7,-1
 337 337 l 1,8,-1
 333 348 l 1,9,10
 328 356 328 356 320 363 c 0,11,12
 312 369 312 369 300 374 c 128,-1,13
 288 379 288 379 268 379 c 128,-1,14
 248 379 248 379 235 370 c 128,-1,15
 222 361 222 361 214 349.5 c 128,-1,16
 206 338 206 338 203 327 c 128,-1,17
 200 316 200 316 200 312 c 0,18,19
 200 307 200 307 198.5 289 c 128,-1,20
 197 271 197 271 196 248.5 c 128,-1,21
 195 226 195 226 195 204.5 c 128,-1,22
 195 183 195 183 197 172 c 0,23,24
 199 160 199 160 208 153.5 c 128,-1,25
 217 147 217 147 228.5 143 c 128,-1,26
 240 139 240 139 251.5 138 c 128,-1,27
 263 137 263 137 270 137 c 0,28,29
 278 137 278 137 287.5 142.5 c 128,-1,30
 297 148 297 148 305 156 c 1,31,32
 315 164 315 164 325 175 c 1,33,-1
 322 61 l 1,34,35
 302 44 302 44 286 32 c 128,-1,36
 270 20 270 20 254.5 12.5 c 128,-1,37
 239 5 239 5 222.5 2 c 128,-1,38
 206 -1 206 -1 185 -1 c 0,39,40
 152 -1 152 -1 122.5 8.5 c 128,-1,41
 93 18 93 18 70 33 c 128,-1,42
 47 48 47 48 32 67 c 128,-1,43
 17 86 17 86 15 104 c 0,44,45
 14 111 14 111 13 122 c 0,46,47
 13 128 13 128 12.5 134 c 128,-1,48
 12 140 12 140 13 148 c 0,49,50
 14 193 14 193 14 231 c 1,51,52
 15 263 15 263 16.5 294 c 128,-1,53
 18 325 18 325 19 337 c 1,54,55
 36 393 36 393 76 424 c 128,-1,56
 116 455 116 455 165 464 c 1,57,-1
 67 594 l 1,58,-1
 217 594 l 1,59,-1
 271 459 l 1,0,1
EndSplineSet
EndChar

StartChar: aacute
Encoding: 225 225 123
Width: 623
Flags: W
LayerCount: 2
Fore
SplineSet
163 594 m 1,0,-1
 304 594 l 1,1,-1
 269 460 l 1,2,3
 291 453 291 453 312.5 443 c 128,-1,4
 334 433 334 433 348 419 c 1,5,-1
 348 469 l 1,6,-1
 503 469 l 1,7,-1
 498 -1 l 1,8,-1
 332 0 l 1,9,-1
 337 337 l 1,10,-1
 333 348 l 1,11,12
 328 356 328 356 320 363 c 0,13,14
 312 369 312 369 300 374 c 128,-1,15
 288 379 288 379 268 379 c 128,-1,16
 248 379 248 379 235 370 c 128,-1,17
 222 361 222 361 214 349.5 c 128,-1,18
 206 338 206 338 203 327 c 128,-1,19
 200 316 200 316 200 312 c 0,20,21
 200 307 200 307 198.5 289 c 128,-1,22
 197 271 197 271 196 248.5 c 128,-1,23
 195 226 195 226 195 204.5 c 128,-1,24
 195 183 195 183 197 172 c 0,25,26
 199 160 199 160 208 153.5 c 128,-1,27
 217 147 217 147 228.5 143 c 128,-1,28
 240 139 240 139 251.5 138 c 128,-1,29
 263 137 263 137 270 137 c 0,30,31
 278 137 278 137 287.5 142.5 c 128,-1,32
 297 148 297 148 305 156 c 1,33,34
 315 164 315 164 325 175 c 1,35,-1
 322 61 l 1,36,37
 302 44 302 44 286 32 c 128,-1,38
 270 20 270 20 254.5 12.5 c 128,-1,39
 239 5 239 5 222.5 2 c 128,-1,40
 206 -1 206 -1 185 -1 c 0,41,42
 152 -1 152 -1 122.5 8.5 c 128,-1,43
 93 18 93 18 70 33 c 128,-1,44
 47 48 47 48 32 67 c 128,-1,45
 17 86 17 86 15 104 c 0,46,47
 14 111 14 111 13 122 c 0,48,49
 13 128 13 128 12.5 134 c 128,-1,50
 12 140 12 140 13 148 c 0,51,52
 14 193 14 193 14 231 c 1,53,54
 15 263 15 263 16.5 294 c 128,-1,55
 18 325 18 325 19 337 c 1,56,57
 36 393 36 393 74.5 423 c 128,-1,58
 113 453 113 453 162 464 c 1,59,-1
 163 594 l 1,0,-1
EndSplineSet
EndChar

StartChar: acircumflex
Encoding: 226 226 125
Width: 623
Flags: W
LayerCount: 2
Fore
SplineSet
104 562 m 1,0,1
 125 572 125 572 144 581 c 0,2,3
 160 589 160 589 176.5 595.5 c 128,-1,4
 193 602 193 602 201 604 c 1,5,6
 210 605 210 605 231 606 c 128,-1,7
 252 607 252 607 275.5 608 c 128,-1,8
 299 609 299 609 319 609.5 c 128,-1,9
 339 610 339 610 346 612 c 0,10,11
 363 615 363 615 379.5 621 c 128,-1,12
 396 627 396 627 410 632 c 0,13,14
 427 638 427 638 442 645 c 1,15,-1
 444 530 l 1,16,17
 432 524 432 524 417 519 c 0,18,19
 404 514 404 514 387.5 510 c 128,-1,20
 371 506 371 506 353 504 c 0,21,22
 348 503 348 503 328 502.5 c 128,-1,23
 308 502 308 502 285.5 501 c 128,-1,24
 263 500 263 500 241 498.5 c 128,-1,25
 219 497 219 497 210 495 c 0,26,27
 196 492 196 492 179.5 482 c 128,-1,28
 163 472 163 472 148 461 c 1,29,30
 182 469 182 469 213 469 c 0,31,32
 227 469 227 469 245.5 465.5 c 128,-1,33
 264 462 264 462 283 455.5 c 128,-1,34
 302 449 302 449 319 440 c 128,-1,35
 336 431 336 431 348 419 c 1,36,-1
 348 469 l 1,37,-1
 503 469 l 1,38,-1
 498 -1 l 1,39,-1
 332 0 l 1,40,-1
 337 337 l 1,41,-1
 333 348 l 1,42,43
 328 356 328 356 320 363 c 0,44,45
 312 369 312 369 300 374 c 128,-1,46
 288 379 288 379 268 379 c 128,-1,47
 248 379 248 379 235 370 c 128,-1,48
 222 361 222 361 214 349.5 c 128,-1,49
 206 338 206 338 203 327 c 128,-1,50
 200 316 200 316 200 312 c 0,51,52
 200 307 200 307 198.5 289 c 128,-1,53
 197 271 197 271 196 248.5 c 128,-1,54
 195 226 195 226 195 204.5 c 128,-1,55
 195 183 195 183 197 172 c 0,56,57
 199 160 199 160 208 153.5 c 128,-1,58
 217 147 217 147 228.5 143 c 128,-1,59
 240 139 240 139 251.5 138 c 128,-1,60
 263 137 263 137 270 137 c 0,61,62
 278 137 278 137 287.5 142.5 c 128,-1,63
 297 148 297 148 305 156 c 1,64,65
 315 164 315 164 325 175 c 1,66,-1
 322 61 l 1,67,68
 302 44 302 44 286 32 c 128,-1,69
 270 20 270 20 254.5 12.5 c 128,-1,70
 239 5 239 5 222.5 2 c 128,-1,71
 206 -1 206 -1 185 -1 c 0,72,73
 152 -1 152 -1 122.5 8.5 c 128,-1,74
 93 18 93 18 70 33 c 128,-1,75
 47 48 47 48 32 67 c 128,-1,76
 17 86 17 86 15 104 c 0,77,78
 14 111 14 111 13 122 c 0,79,80
 13 128 13 128 12.5 134 c 128,-1,81
 12 140 12 140 13 148 c 0,82,83
 14 193 14 193 14 231 c 1,84,85
 15 263 15 263 16.5 294 c 128,-1,86
 18 325 18 325 19 337 c 1,87,88
 32 376 32 376 55 402.5 c 128,-1,89
 78 429 78 429 109 445 c 1,90,-1
 104 562 l 1,0,1
EndSplineSet
EndChar

StartChar: atilde
Encoding: 227 227 127
Width: 623
Flags: W
LayerCount: 2
Fore
SplineSet
498 -1 m 1,0,-1
 332 0 l 1,1,-1
 337 337 l 1,2,-1
 333 348 l 1,3,4
 328 356 328 356 320 363 c 0,5,6
 312 369 312 369 300 374 c 128,-1,7
 288 379 288 379 268 379 c 128,-1,8
 248 379 248 379 235 370 c 128,-1,9
 222 361 222 361 214 349.5 c 128,-1,10
 206 338 206 338 203 327 c 128,-1,11
 200 316 200 316 200 312 c 0,12,13
 200 307 200 307 198.5 289 c 128,-1,14
 197 271 197 271 196 248.5 c 128,-1,15
 195 226 195 226 195 204.5 c 128,-1,16
 195 183 195 183 197 172 c 0,17,18
 199 160 199 160 208 153.5 c 128,-1,19
 217 147 217 147 228.5 143 c 128,-1,20
 240 139 240 139 251.5 138 c 128,-1,21
 263 137 263 137 270 137 c 0,22,23
 278 137 278 137 287.5 142.5 c 128,-1,24
 297 148 297 148 305 156 c 1,25,26
 315 164 315 164 325 175 c 1,27,-1
 322 61 l 1,28,29
 302 44 302 44 286 32 c 128,-1,30
 270 20 270 20 254.5 12.5 c 128,-1,31
 239 5 239 5 222.5 2 c 128,-1,32
 206 -1 206 -1 185 -1 c 0,33,34
 152 -1 152 -1 122.5 8.5 c 128,-1,35
 93 18 93 18 70 33 c 128,-1,36
 47 48 47 48 32 67 c 128,-1,37
 17 86 17 86 15 104 c 0,38,39
 14 111 14 111 13 122 c 0,40,41
 13 128 13 128 12.5 134 c 128,-1,42
 12 140 12 140 13 148 c 0,43,44
 14 193 14 193 14 231 c 1,45,46
 15 263 15 263 16.5 294 c 128,-1,47
 18 325 18 325 19 337 c 1,48,49
 31 376 31 376 54.5 402.5 c 128,-1,50
 78 429 78 429 109 445 c 1,51,-1
 104 562 l 1,52,53
 122 572 122 572 142 581 c 0,54,55
 158 589 158 589 177.5 596 c 128,-1,56
 197 603 197 603 216 606 c 0,57,58
 234 609 234 609 259 609 c 0,59,60
 268 608 268 608 278 608 c 0,61,62
 287 608 287 608 295 608 c 0,63,64
 322 608 322 608 345 612 c 0,65,66
 380 618 380 618 403.5 628.5 c 128,-1,67
 427 639 427 639 442 649 c 1,68,-1
 444 530 l 1,69,70
 429 519 429 519 404 512.5 c 128,-1,71
 379 506 379 506 349 504 c 0,72,73
 317 501 317 501 290 501 c 0,74,75
 284 502 284 502 280 502 c 0,76,77
 276 502 276 502 274 502 c 0,78,79
 247 502 247 502 224 498 c 0,80,81
 209 496 209 496 192 486 c 128,-1,82
 175 476 175 476 161 462 c 1,83,84
 177 467 177 467 186.5 468 c 128,-1,85
 196 469 196 469 213 469 c 0,86,87
 227 469 227 469 245.5 465.5 c 128,-1,88
 264 462 264 462 283 455.5 c 128,-1,89
 302 449 302 449 319 440 c 128,-1,90
 336 431 336 431 348 419 c 1,91,-1
 348 469 l 1,92,-1
 503 469 l 1,93,-1
 498 -1 l 1,0,-1
EndSplineSet
EndChar

StartChar: adieresis
Encoding: 228 228 126
Width: 623
Flags: W
LayerCount: 2
Fore
SplineSet
267 481 m 1,0,-1
 234 481 l 1,1,-1
 239 594 l 1,2,-1
 373 594 l 1,3,-1
 367 480 l 1,4,-1
 309 480 l 1,5,-1
 306 446 l 1,6,7
 332 435 332 435 348 419 c 1,8,-1
 348 469 l 1,9,-1
 503 469 l 1,10,-1
 498 -1 l 1,11,-1
 332 0 l 1,12,-1
 337 337 l 1,13,-1
 333 348 l 1,14,15
 328 356 328 356 320 363 c 0,16,17
 312 369 312 369 300 374 c 128,-1,18
 288 379 288 379 268 379 c 128,-1,19
 248 379 248 379 235 370 c 128,-1,20
 222 361 222 361 214 349.5 c 128,-1,21
 206 338 206 338 203 327 c 128,-1,22
 200 316 200 316 200 312 c 0,23,24
 200 307 200 307 198.5 289 c 128,-1,25
 197 271 197 271 196 248.5 c 128,-1,26
 195 226 195 226 195 204.5 c 128,-1,27
 195 183 195 183 197 172 c 0,28,29
 199 160 199 160 208 153.5 c 128,-1,30
 217 147 217 147 228.5 143 c 128,-1,31
 240 139 240 139 251.5 138 c 128,-1,32
 263 137 263 137 270 137 c 0,33,34
 278 137 278 137 287.5 142.5 c 128,-1,35
 297 148 297 148 305 156 c 1,36,37
 315 164 315 164 325 175 c 1,38,-1
 322 61 l 1,39,40
 302 44 302 44 286 32 c 128,-1,41
 270 20 270 20 254.5 12.5 c 128,-1,42
 239 5 239 5 222.5 2 c 128,-1,43
 206 -1 206 -1 185 -1 c 0,44,45
 152 -1 152 -1 122.5 8.5 c 128,-1,46
 93 18 93 18 70 33 c 128,-1,47
 47 48 47 48 32 67 c 128,-1,48
 17 86 17 86 15 104 c 0,49,50
 14 111 14 111 13 122 c 0,51,52
 13 128 13 128 12.5 134 c 128,-1,53
 12 140 12 140 13 148 c 0,54,55
 14 193 14 193 14 231 c 1,56,57
 15 263 15 263 16.5 294 c 128,-1,58
 18 325 18 325 19 337 c 1,59,60
 34 385 34 385 65 414 c 128,-1,61
 96 443 96 443 136 457 c 1,62,-1
 135 479 l 1,63,-1
 80 479 l 1,64,-1
 83 594 l 1,65,-1
 222 594 l 1,66,-1
 217 479 l 1,67,-1
 172 479 l 1,68,-1
 172 466 l 1,69,70
 193 469 193 469 213 469 c 0,71,72
 235 469 235 469 265 461 c 1,73,-1
 267 481 l 1,0,-1
EndSplineSet
EndChar

StartChar: aring
Encoding: 229 229 128
Width: 618
Flags: W
LayerCount: 2
Fore
SplineSet
498 -1 m 1,0,-1
 332 0 l 1,1,-1
 337 337 l 1,2,-1
 333 348 l 1,3,4
 328 356 328 356 320 363 c 0,5,6
 312 369 312 369 300 374 c 128,-1,7
 288 379 288 379 268 379 c 128,-1,8
 248 379 248 379 235 370 c 128,-1,9
 222 361 222 361 214 349.5 c 128,-1,10
 206 338 206 338 203 327 c 128,-1,11
 200 316 200 316 200 312 c 0,12,13
 200 307 200 307 198.5 289 c 128,-1,14
 197 271 197 271 196 248.5 c 128,-1,15
 195 226 195 226 195 204.5 c 128,-1,16
 195 183 195 183 197 172 c 0,17,18
 199 160 199 160 208 153.5 c 128,-1,19
 217 147 217 147 228.5 143 c 128,-1,20
 240 139 240 139 251.5 138 c 128,-1,21
 263 137 263 137 270 137 c 0,22,23
 278 137 278 137 287.5 142.5 c 128,-1,24
 297 148 297 148 305 156 c 1,25,26
 315 164 315 164 325 175 c 1,27,-1
 322 61 l 1,28,29
 302 44 302 44 286 32 c 128,-1,30
 270 20 270 20 254.5 12.5 c 128,-1,31
 239 5 239 5 222.5 2 c 128,-1,32
 206 -1 206 -1 185 -1 c 0,33,34
 152 -1 152 -1 122.5 8.5 c 128,-1,35
 93 18 93 18 70 33 c 128,-1,36
 47 48 47 48 32 67 c 128,-1,37
 17 86 17 86 15 104 c 0,38,39
 14 111 14 111 13 122 c 0,40,41
 13 128 13 128 12.5 134 c 128,-1,42
 12 140 12 140 13 148 c 0,43,44
 14 193 14 193 14 231 c 1,45,46
 15 263 15 263 16.5 294 c 128,-1,47
 18 325 18 325 19 337 c 1,48,49
 34 383 34 383 64 413 c 128,-1,50
 94 443 94 443 134 455 c 1,51,52
 110 470 110 470 95 495 c 128,-1,53
 80 520 80 520 76 543 c 0,54,55
 75 553 75 553 75 562 c 0,56,57
 76 580 76 580 80 592 c 0,58,59
 88 612 88 612 102 625.5 c 128,-1,60
 116 639 116 639 135 645.5 c 128,-1,61
 154 652 154 652 172 652 c 0,62,63
 193 652 193 652 214 645.5 c 128,-1,64
 235 639 235 639 253 625.5 c 128,-1,65
 271 612 271 612 284.5 591 c 128,-1,66
 298 570 298 570 302 540 c 0,67,68
 304 530 304 530 304 521 c 128,-1,69
 304 512 304 512 302 504 c 0,70,71
 299 490 299 490 295 480 c 0,72,73
 290 469 290 469 282 462 c 1,74,-1
 215 528 l 1,75,76
 216 530 216 530 218 533 c 0,77,78
 219 535 219 535 219 538.5 c 128,-1,79
 219 542 219 542 219 545 c 0,80,81
 218 550 218 550 209.5 560.5 c 128,-1,82
 201 571 201 571 189 571 c 0,83,84
 178 571 178 571 171 563 c 128,-1,85
 164 555 164 555 166 542 c 128,-1,86
 168 529 168 529 180 522 c 128,-1,87
 192 515 192 515 197 515 c 128,-1,88
 202 515 202 515 208 519 c 0,89,90
 211 521 211 521 212 523 c 1,91,-1
 278 457 l 1,92,93
 298 451 298 451 316.5 441.5 c 128,-1,94
 335 432 335 432 348 419 c 1,95,-1
 348 469 l 1,96,-1
 503 469 l 1,97,-1
 498 -1 l 1,0,-1
EndSplineSet
EndChar

StartChar: ae
Encoding: 230 230 178
Width: 805
Flags: W
LayerCount: 2
Fore
SplineSet
565 468 m 0,0,1
 585 468 585 468 609.5 460.5 c 128,-1,2
 634 453 634 453 656 438 c 128,-1,3
 678 423 678 423 693.5 400 c 128,-1,4
 709 377 709 377 711 346 c 0,5,6
 711 341 711 341 711 336 c 0,7,8
 711 302 711 302 699 280 c 0,9,10
 685 254 685 254 662 240.5 c 128,-1,11
 639 227 639 227 612 221.5 c 128,-1,12
 585 216 585 216 561 216 c 2,13,-1
 531 216 l 2,14,15
 524 216 524 216 517 217 c 1,16,-1
 517 277 l 1,17,-1
 534 277 l 2,18,19
 549 277 549 277 569 280 c 1,20,21
 585 281 585 281 594 286.5 c 128,-1,22
 603 292 603 292 607.5 298.5 c 128,-1,23
 612 305 612 305 612.5 312.5 c 128,-1,24
 613 320 613 320 613 325 c 0,25,26
 613 334 613 334 599.5 341.5 c 128,-1,27
 586 349 586 349 566 349 c 0,28,29
 554 349 554 349 543.5 343 c 128,-1,30
 533 337 533 337 524.5 328 c 128,-1,31
 516 319 516 319 511.5 308 c 128,-1,32
 507 297 507 297 507 286 c 0,33,34
 507 256 507 256 508 226 c 128,-1,35
 509 196 509 196 510 178 c 0,36,37
 510 164 510 164 525.5 152 c 128,-1,38
 541 140 541 140 564 140 c 0,39,40
 583 140 583 140 602.5 155.5 c 128,-1,41
 622 171 622 171 643 185 c 0,42,43
 649 189 649 189 661 183.5 c 128,-1,44
 673 178 673 178 684 168 c 128,-1,45
 695 158 695 158 701.5 147 c 128,-1,46
 708 136 708 136 705 129 c 0,47,48
 703 124 703 124 688 103.5 c 128,-1,49
 673 83 673 83 646.5 60 c 128,-1,50
 620 37 620 37 581.5 18.5 c 128,-1,51
 543 0 543 0 494 0 c 0,52,53
 454 0 454 0 425.5 7 c 128,-1,54
 397 14 397 14 378 26 c 128,-1,55
 359 38 359 38 350 53.5 c 128,-1,56
 341 69 341 69 341 86 c 2,57,-1
 342 215 l 1,58,59
 336 219 336 219 330.5 223.5 c 128,-1,60
 325 228 325 228 316.5 231.5 c 128,-1,61
 308 235 308 235 295 237 c 128,-1,62
 282 239 282 239 262 239 c 0,63,64
 250 239 250 239 238.5 234.5 c 128,-1,65
 227 230 227 230 217.5 222.5 c 128,-1,66
 208 215 208 215 202.5 205.5 c 128,-1,67
 197 196 197 196 198 186 c 1,68,69
 198 170 198 170 203 160 c 128,-1,70
 208 150 208 150 217 145 c 128,-1,71
 226 140 226 140 236.5 138 c 128,-1,72
 247 136 247 136 258 137 c 128,-1,73
 269 138 269 138 281 144.5 c 128,-1,74
 293 151 293 151 305 159 c 0,75,76
 318 168 318 168 331 180 c 1,77,-1
 331 69 l 1,78,79
 315 50 315 50 302 37 c 128,-1,80
 289 24 289 24 274 15.5 c 128,-1,81
 259 7 259 7 238.5 3.5 c 128,-1,82
 218 0 218 0 185 0 c 128,-1,83
 152 0 152 0 126.5 8.5 c 128,-1,84
 101 17 101 17 83 31.5 c 128,-1,85
 65 46 65 46 53.5 64 c 128,-1,86
 42 82 42 82 38 102 c 0,87,88
 34 118 34 118 34 132 c 0,89,90
 34 135 34 135 34 138 c 0,91,92
 35 155 35 155 36 181 c 1,93,94
 36 223 36 223 57.5 252 c 128,-1,95
 79 281 79 281 110.5 298 c 128,-1,96
 142 315 142 315 179 322.5 c 128,-1,97
 216 330 216 330 249 330 c 0,98,99
 274 330 274 330 298 321.5 c 128,-1,100
 322 313 322 313 345 301 c 1,101,-1
 346 314 l 2,102,103
 346 320 346 320 344.5 333 c 128,-1,104
 343 346 343 346 336 358.5 c 128,-1,105
 329 371 329 371 314 381 c 128,-1,106
 299 391 299 391 272 391 c 0,107,108
 251 391 251 391 239 385 c 128,-1,109
 227 379 227 379 220 372 c 0,110,111
 212 363 212 363 211 353 c 1,112,-1
 118 402 l 1,113,114
 130 421 130 421 150 436 c 0,115,116
 167 449 167 449 193.5 459.5 c 128,-1,117
 220 470 220 470 260 470 c 0,118,119
 318 470 318 470 355 455 c 128,-1,120
 392 440 392 440 418 417 c 1,121,122
 424 424 424 424 435.5 433 c 128,-1,123
 447 442 447 442 464 450 c 128,-1,124
 481 458 481 458 506.5 463 c 128,-1,125
 532 468 532 468 565 468 c 0,0,1
EndSplineSet
EndChar

StartChar: ccedilla
Encoding: 231 231 129
Width: 511
Flags: W
LayerCount: 2
Fore
SplineSet
132 8 m 1,0,1
 99 19 99 19 70 43 c 128,-1,2
 41 67 41 67 26 98 c 0,3,4
 23 105 23 105 19.5 119.5 c 128,-1,5
 16 134 16 134 16 145 c 0,6,7
 17 171 17 171 17 198 c 0,8,9
 17 221 17 221 17 248 c 128,-1,10
 17 275 17 275 18 299 c 0,11,12
 18 322 18 322 27.5 341.5 c 128,-1,13
 37 361 37 361 48 376 c 0,14,15
 61 392 61 392 81.5 409 c 128,-1,16
 102 426 102 426 126 439.5 c 128,-1,17
 150 453 150 453 179 462 c 128,-1,18
 208 471 208 471 240 471 c 0,19,20
 308 471 308 471 345 452 c 128,-1,21
 382 433 382 433 404 403 c 0,22,23
 424 376 424 376 426 350 c 0,24,25
 426 346 426 346 426 342 c 0,26,27
 426 322 426 322 415 315 c 0,28,29
 404 307 404 307 395 307 c 0,30,31
 388 307 388 307 382 311 c 0,32,33
 367 320 367 320 358 331 c 1,34,35
 347 348 347 348 327.5 365.5 c 128,-1,36
 308 383 308 383 282 383 c 0,37,38
 276 383 276 383 265.5 382 c 128,-1,39
 255 381 255 381 244 376.5 c 128,-1,40
 233 372 233 372 224 363.5 c 128,-1,41
 215 355 215 355 211 340 c 1,42,43
 206 304 206 304 202 270 c 0,44,45
 201 257 201 257 201 244 c 0,46,47
 201 221 201 221 205 197 c 0,48,49
 206 189 206 189 208.5 181 c 128,-1,50
 211 173 211 173 216.5 166.5 c 128,-1,51
 222 160 222 160 231.5 155.5 c 128,-1,52
 241 151 241 151 256 151 c 0,53,54
 285 151 285 151 305.5 167.5 c 128,-1,55
 326 184 326 184 346 203 c 1,56,57
 360 210 360 210 375 208.5 c 128,-1,58
 390 207 390 207 402 198.5 c 128,-1,59
 414 190 414 190 420.5 176.5 c 128,-1,60
 427 163 427 163 424 148 c 1,61,62
 400 87 400 87 352.5 51 c 128,-1,63
 305 15 305 15 241 4 c 1,64,65
 246 -11 246 -11 252 -33 c 0,66,67
 255 -46 255 -46 255 -57 c 0,68,69
 255 -65 255 -65 253 -72 c 0,70,71
 250 -86 250 -86 243 -93 c 128,-1,72
 236 -100 236 -100 229 -105 c 0,73,74
 220 -110 220 -110 210 -112 c 1,75,76
 206 -104 206 -104 200 -96 c 1,77,78
 196 -89 196 -89 191.5 -81.5 c 128,-1,79
 187 -74 187 -74 182 -68 c 0,80,81
 177 -63 177 -63 169 -60.5 c 128,-1,82
 161 -58 161 -58 153 -58 c 0,83,84
 144 -58 144 -58 134 -59 c 1,85,86
 128 -40 128 -40 128 -28 c 0,87,88
 128 -24 128 -24 128 -22 c 0,89,90
 130 -8 130 -8 132 8 c 1,0,1
EndSplineSet
EndChar

StartChar: eacute
Encoding: 233 233 130
Width: 471
Flags: W
LayerCount: 2
Fore
SplineSet
166 594 m 1,0,-1
 302 594 l 1,1,-1
 268 460 l 1,2,3
 304 449 304 449 332 425 c 128,-1,4
 360 401 360 401 372 361 c 0,5,6
 377 341 377 341 377 324.5 c 128,-1,7
 377 308 377 308 372 296 c 0,8,9
 362 271 362 271 343 257 c 128,-1,10
 324 243 324 243 301.5 237 c 128,-1,11
 279 231 279 231 266 230 c 0,12,13
 258 229 258 229 243.5 229 c 128,-1,14
 229 229 229 229 214 230 c 1,15,16
 196 230 196 230 176 231 c 1,17,-1
 183 287 l 1,18,19
 189 288 189 288 196 289 c 128,-1,20
 203 290 203 290 211.5 291 c 128,-1,21
 220 292 220 292 228 294 c 1,22,23
 260 297 260 297 268 312.5 c 128,-1,24
 276 328 276 328 272 339 c 0,25,26
 272 340 272 340 270.5 344 c 128,-1,27
 269 348 269 348 265 352.5 c 128,-1,28
 261 357 261 357 255 360.5 c 128,-1,29
 249 364 249 364 239 364 c 0,30,31
 180 364 180 364 174 286 c 0,32,33
 173 272 173 272 171.5 255 c 128,-1,34
 170 238 170 238 169.5 223 c 128,-1,35
 169 208 169 208 169 197 c 128,-1,36
 169 186 169 186 169 182 c 0,37,38
 170 173 170 173 177 167.5 c 128,-1,39
 184 162 184 162 193 160 c 128,-1,40
 202 158 202 158 210 157.5 c 128,-1,41
 218 157 218 157 222 157 c 0,42,43
 235 157 235 157 255 170 c 128,-1,44
 275 183 275 183 295 197 c 0,45,46
 305 204 305 204 319 201 c 128,-1,47
 333 198 333 198 345 188.5 c 128,-1,48
 357 179 357 179 363 164 c 0,49,50
 367 155 367 155 367 146 c 0,51,52
 367 140 367 140 365 133 c 0,53,54
 364 128 364 128 351 106.5 c 128,-1,55
 338 85 338 85 314.5 61.5 c 128,-1,56
 291 38 291 38 256.5 19 c 128,-1,57
 222 0 222 0 178 0 c 0,58,59
 132 0 132 0 99.5 14.5 c 128,-1,60
 67 29 67 29 46.5 48 c 128,-1,61
 26 67 26 67 17 85.5 c 128,-1,62
 8 104 8 104 7 111 c 2,63,-1
 5 270 l 2,64,65
 5 273 5 273 5 276 c 0,66,67
 5 308 5 308 16 338 c 0,68,69
 28 370 28 370 49.5 396.5 c 128,-1,70
 71 423 71 423 100 441 c 128,-1,71
 129 459 129 459 163 466 c 1,72,-1
 166 594 l 1,0,-1
EndSplineSet
EndChar

StartChar: ecircumflex
Encoding: 234 234 132
Width: 471
Flags: W
LayerCount: 2
Fore
SplineSet
141 542 m 1,0,-1
 253 623 l 1,1,-1
 373 582 l 1,2,-1
 371 485 l 1,3,-1
 252 517 l 1,4,-1
 201 470 l 1,5,6
 228 470 228 470 255.5 463.5 c 128,-1,7
 283 457 283 457 306 444 c 128,-1,8
 329 431 329 431 346.5 410.5 c 128,-1,9
 364 390 364 390 372 361 c 0,10,11
 377 341 377 341 377 324.5 c 128,-1,12
 377 308 377 308 372 296 c 0,13,14
 362 271 362 271 343 257 c 128,-1,15
 324 243 324 243 301.5 237 c 128,-1,16
 279 231 279 231 266 230 c 0,17,18
 258 229 258 229 243.5 229 c 128,-1,19
 229 229 229 229 214 230 c 1,20,21
 196 230 196 230 176 231 c 1,22,-1
 183 287 l 1,23,24
 189 288 189 288 196 289 c 128,-1,25
 203 290 203 290 211.5 291 c 128,-1,26
 220 292 220 292 228 294 c 1,27,28
 260 297 260 297 268 312.5 c 128,-1,29
 276 328 276 328 272 339 c 0,30,31
 272 340 272 340 270.5 344 c 128,-1,32
 269 348 269 348 265 352.5 c 128,-1,33
 261 357 261 357 255 360.5 c 128,-1,34
 249 364 249 364 239 364 c 0,35,36
 180 364 180 364 174 286 c 0,37,38
 173 272 173 272 171.5 255 c 128,-1,39
 170 238 170 238 169.5 223 c 128,-1,40
 169 208 169 208 169 197 c 128,-1,41
 169 186 169 186 169 182 c 0,42,43
 170 173 170 173 177 167.5 c 128,-1,44
 184 162 184 162 193 160 c 128,-1,45
 202 158 202 158 210 157.5 c 128,-1,46
 218 157 218 157 222 157 c 0,47,48
 235 157 235 157 255 170 c 128,-1,49
 275 183 275 183 295 197 c 0,50,51
 305 204 305 204 319 201 c 128,-1,52
 333 198 333 198 345 188.5 c 128,-1,53
 357 179 357 179 363 164 c 0,54,55
 367 155 367 155 367 146 c 0,56,57
 367 140 367 140 365 133 c 0,58,59
 364 128 364 128 351 106.5 c 128,-1,60
 338 85 338 85 314.5 61.5 c 128,-1,61
 291 38 291 38 256.5 19 c 128,-1,62
 222 0 222 0 178 0 c 0,63,64
 132 0 132 0 99.5 14.5 c 128,-1,65
 67 29 67 29 46.5 48 c 128,-1,66
 26 67 26 67 17 85.5 c 128,-1,67
 8 104 8 104 7 111 c 2,68,-1
 5 270 l 2,69,70
 5 273 5 273 5 276 c 0,71,72
 5 306 5 306 14 334 c 0,73,74
 24 364 24 364 42.5 389 c 128,-1,75
 61 414 61 414 87 432.5 c 128,-1,76
 113 451 113 451 142 460 c 1,77,-1
 141 542 l 1,0,-1
EndSplineSet
EndChar

StartChar: edieresis
Encoding: 235 235 133
Width: 471
Flags: W
LayerCount: 2
Fore
SplineSet
355 594 m 1,0,-1
 355 478 l 1,1,-1
 310 478 l 1,2,-1
 310 441 l 1,3,4
 332 428 332 428 348 408.5 c 128,-1,5
 364 389 364 389 372 361 c 0,6,7
 377 341 377 341 377 324.5 c 128,-1,8
 377 308 377 308 372 296 c 0,9,10
 362 271 362 271 343 257 c 128,-1,11
 324 243 324 243 301.5 237 c 128,-1,12
 279 231 279 231 266 230 c 0,13,14
 258 229 258 229 243.5 229 c 128,-1,15
 229 229 229 229 214 230 c 1,16,17
 196 230 196 230 176 231 c 1,18,-1
 183 287 l 1,19,20
 189 288 189 288 196 289 c 128,-1,21
 203 290 203 290 211.5 291 c 128,-1,22
 220 292 220 292 228 294 c 1,23,24
 260 297 260 297 268 312.5 c 128,-1,25
 276 328 276 328 272 339 c 0,26,27
 272 340 272 340 270.5 344 c 128,-1,28
 269 348 269 348 265 352.5 c 128,-1,29
 261 357 261 357 255 360.5 c 128,-1,30
 249 364 249 364 239 364 c 0,31,32
 180 364 180 364 174 286 c 0,33,34
 173 272 173 272 171.5 255 c 128,-1,35
 170 238 170 238 169.5 223 c 128,-1,36
 169 208 169 208 169 197 c 128,-1,37
 169 186 169 186 169 182 c 0,38,39
 170 173 170 173 177 167.5 c 128,-1,40
 184 162 184 162 193 160 c 128,-1,41
 202 158 202 158 210 157.5 c 128,-1,42
 218 157 218 157 222 157 c 0,43,44
 235 157 235 157 255 170 c 128,-1,45
 275 183 275 183 295 197 c 0,46,47
 305 204 305 204 319 201 c 128,-1,48
 333 198 333 198 345 188.5 c 128,-1,49
 357 179 357 179 363 164 c 0,50,51
 367 155 367 155 367 146 c 0,52,53
 367 140 367 140 365 133 c 0,54,55
 364 128 364 128 351 106.5 c 128,-1,56
 338 85 338 85 314.5 61.5 c 128,-1,57
 291 38 291 38 256.5 19 c 128,-1,58
 222 0 222 0 178 0 c 0,59,60
 132 0 132 0 99.5 14.5 c 128,-1,61
 67 29 67 29 46.5 48 c 128,-1,62
 26 67 26 67 17 85.5 c 128,-1,63
 8 104 8 104 7 111 c 2,64,-1
 5 270 l 2,65,66
 5 273 5 273 5 276 c 0,67,68
 5 303 5 303 13 328 c 0,69,70
 22 356 22 356 37.5 379.5 c 128,-1,71
 53 403 53 403 75 422 c 128,-1,72
 97 441 97 441 122 453 c 1,73,-1
 122 478 l 1,74,-1
 66 478 l 1,75,-1
 65 594 l 1,76,-1
 202 594 l 1,77,-1
 202 478 l 1,78,-1
 157 478 l 1,79,-1
 157 465 l 1,80,81
 179 470 179 470 200 470 c 0,82,83
 219 470 219 470 238.5 467 c 128,-1,84
 258 464 258 464 276 457 c 1,85,-1
 275 478 l 1,86,-1
 219 478 l 1,87,-1
 218 594 l 1,88,-1
 355 594 l 1,0,-1
EndSplineSet
EndChar

StartChar: igrave
Encoding: 236 236 135
Width: 354
Flags: W
LayerCount: 2
Fore
SplineSet
187 445 m 1,0,-1
 228 445 l 1,1,-1
 220 0 l 1,2,-1
 59 0 l 1,3,-1
 63 446 l 1,4,-1
 99 446 l 1,5,-1
 27 594 l 1,6,-1
 173 594 l 1,7,-1
 187 445 l 1,0,-1
EndSplineSet
EndChar

StartChar: iacute
Encoding: 237 237 134
Width: 354
Flags: W
LayerCount: 2
Fore
SplineSet
191 445 m 1,0,-1
 228 445 l 1,1,-1
 220 0 l 1,2,-1
 59 0 l 1,3,-1
 63 446 l 1,4,-1
 101 446 l 1,5,-1
 80 594 l 1,6,-1
 227 594 l 1,7,-1
 191 445 l 1,0,-1
EndSplineSet
EndChar

StartChar: icircumflex
Encoding: 238 238 136
Width: 430
Flags: W
LayerCount: 2
Fore
SplineSet
88 525 m 1,0,-1
 185 620 l 1,1,-1
 314 573 l 1,2,-1
 315 484 l 1,3,-1
 186 517 l 1,4,-1
 120 446 l 1,5,6
 141 446 141 446 151 446 c 128,-1,7
 161 446 161 446 166 446 c 128,-1,8
 171 446 171 446 173.5 446 c 128,-1,9
 176 446 176 446 181 446 c 128,-1,10
 186 446 186 446 196.5 445.5 c 128,-1,11
 207 445 207 445 228 445 c 1,12,-1
 220 0 l 1,13,-1
 59 0 l 1,14,-1
 63 446 l 1,15,-1
 88 446 l 1,16,-1
 88 525 l 1,0,-1
EndSplineSet
EndChar

StartChar: idieresis
Encoding: 239 239 137
Width: 409
Flags: W
LayerCount: 2
Fore
SplineSet
181 469 m 1,0,-1
 155 469 l 1,1,-1
 155 594 l 1,2,-1
 274 594 l 1,3,-1
 276 469 l 1,4,-1
 216 469 l 1,5,-1
 216 445 l 1,6,-1
 228 445 l 1,7,-1
 220 0 l 1,8,-1
 59 0 l 1,9,-1
 63 446 l 1,10,-1
 75 446 l 1,11,-1
 76 469 l 1,12,-1
 15 469 l 1,13,-1
 14 594 l 1,14,-1
 139 594 l 1,15,-1
 140 469 l 1,16,-1
 111 468 l 1,17,-1
 113 445 l 1,18,-1
 182 445 l 1,19,-1
 181 469 l 1,0,-1
EndSplineSet
EndChar

StartChar: eth
Encoding: 240 240 243
Width: 696
Flags: W
LayerCount: 2
Fore
SplineSet
267 463 m 2,0,1
 269 463 269 463 271 463 c 0,2,3
 282 464 282 464 308 458 c 0,4,5
 338 452 338 452 367 437 c 1,6,-1
 374 514 l 1,7,-1
 285 509 l 1,8,-1
 292 597 l 1,9,-1
 379 603 l 1,10,11
 377 617 377 617 377 631 c 2,12,-1
 378 640 l 2,13,14
 378 656 378 656 368 668 c 0,15,16
 358 681 358 681 331 689 c 128,-1,17
 304 697 304 697 249 697 c 0,18,19
 245 697 245 697 235 696 c 128,-1,20
 225 695 225 695 214.5 694 c 128,-1,21
 204 693 204 693 195.5 692 c 128,-1,22
 187 691 187 691 185 690 c 1,23,-1
 192 747 l 1,24,25
 226 755 226 755 262 760.5 c 128,-1,26
 298 766 298 766 336 766 c 0,27,28
 405 766 405 766 438 753 c 0,29,30
 470 740 470 740 482 718 c 0,31,32
 492 699 492 699 492 676 c 0,33,34
 492 672 492 672 492 668 c 0,35,36
 490 640 490 640 489 609 c 1,37,-1
 561 613 l 1,38,-1
 565 521 l 1,39,-1
 480 517 l 1,40,41
 475 429 475 429 466.5 343 c 128,-1,42
 458 257 458 257 449 171 c 0,43,44
 446 142 446 142 427 112 c 128,-1,45
 408 82 408 82 374.5 57 c 128,-1,46
 341 32 341 32 293 16 c 128,-1,47
 245 0 245 0 184 0 c 0,48,49
 135 0 135 0 105 12.5 c 128,-1,50
 75 25 75 25 57.5 43 c 128,-1,51
 40 61 40 61 33 80 c 128,-1,52
 26 99 26 99 24 113 c 0,53,54
 21 124 21 124 21 148 c 0,55,56
 22 152 22 152 22 156 c 0,57,58
 22 186 22 186 22 217 c 0,59,60
 22 253 22 253 24 295 c 0,61,62
 26 331 26 331 48 359 c 128,-1,63
 70 387 70 387 100.5 407 c 128,-1,64
 131 427 131 427 166.5 440 c 128,-1,65
 202 453 202 453 232 459 c 1,66,-1
 230 332 l 1,67,68
 220 322 220 322 215 310.5 c 128,-1,69
 210 299 210 299 207 287.5 c 128,-1,70
 204 276 204 276 203.5 266.5 c 128,-1,71
 203 257 203 257 203 251 c 0,72,73
 202 230 202 230 202 212 c 1,74,75
 201 197 201 197 201.5 183 c 128,-1,76
 202 169 202 169 202 165 c 0,77,78
 202 162 202 162 204 156.5 c 128,-1,79
 206 151 206 151 211.5 146.5 c 128,-1,80
 217 142 217 142 226.5 138.5 c 128,-1,81
 236 135 236 135 253 135 c 0,82,83
 266 135 266 135 280.5 140 c 128,-1,84
 295 145 295 145 307.5 154 c 128,-1,85
 320 163 320 163 328.5 175 c 128,-1,86
 337 187 337 187 339 201 c 0,87,88
 341 214 341 214 342 230 c 128,-1,89
 343 246 343 246 344 261 c 128,-1,90
 345 276 345 276 345 289 c 128,-1,91
 345 302 345 302 345 308 c 0,92,93
 345 316 345 316 342.5 324.5 c 128,-1,94
 340 333 340 333 335 339.5 c 128,-1,95
 330 346 330 346 320.5 350 c 128,-1,96
 311 354 311 354 295 354 c 0,97,98
 279 353 279 353 269.5 350.5 c 128,-1,99
 260 348 260 348 254 344 c 0,100,101
 247 340 247 340 242 335 c 1,102,-1
 245 460 l 1,103,-1
 267 463 l 2,0,1
EndSplineSet
EndChar

StartChar: ntilde
Encoding: 241 241 138
Width: 643
Flags: W
LayerCount: 2
Fore
SplineSet
103 562 m 1,0,1
 113 566 113 566 126 572.5 c 128,-1,2
 139 579 139 579 154 586 c 128,-1,3
 169 593 169 593 185 598.5 c 128,-1,4
 201 604 201 604 217 607 c 0,5,6
 225 608 225 608 241 608 c 128,-1,7
 257 608 257 608 275.5 608 c 128,-1,8
 294 608 294 608 312.5 608.5 c 128,-1,9
 331 609 331 609 343 611 c 0,10,11
 357 613 357 613 374 619 c 128,-1,12
 391 625 391 625 406 631 c 0,13,14
 423 638 423 638 442 647 c 1,15,-1
 442 530 l 1,16,17
 428 524 428 524 413 520 c 0,18,19
 400 516 400 516 385.5 512 c 128,-1,20
 371 508 371 508 357 506 c 0,21,22
 346 504 346 504 327 503.5 c 128,-1,23
 308 503 308 503 287.5 502 c 128,-1,24
 267 501 267 501 246 499.5 c 128,-1,25
 225 498 225 498 210 494 c 0,26,27
 197 491 197 491 187 484 c 128,-1,28
 177 477 177 477 169 469 c 1,29,-1
 234 469 l 1,30,-1
 233 411 l 1,31,32
 246 424 246 424 269.5 435 c 128,-1,33
 293 446 293 446 321.5 454.5 c 128,-1,34
 350 463 350 463 377 467.5 c 128,-1,35
 404 472 404 472 423 472 c 0,36,37
 451 472 451 472 476 466 c 128,-1,38
 501 460 501 460 519.5 446.5 c 128,-1,39
 538 433 538 433 549.5 412 c 128,-1,40
 561 391 561 391 562 361 c 2,41,-1
 567 0 l 1,42,-1
 368 0 l 1,43,-1
 375 323 l 2,44,45
 376 351 376 351 360.5 363.5 c 128,-1,46
 345 376 345 376 321 376 c 0,47,48
 279 376 279 376 255.5 356.5 c 128,-1,49
 232 337 232 337 230 315 c 0,50,51
 229 297 229 297 228 274 c 128,-1,52
 227 251 227 251 226 225.5 c 128,-1,53
 225 200 225 200 224.5 173.5 c 128,-1,54
 224 147 224 147 224 122 c 0,55,56
 222 63 222 63 222 0 c 1,57,-1
 47 0 l 1,58,-1
 58 469 l 1,59,-1
 106 469 l 1,60,-1
 103 562 l 1,0,1
EndSplineSet
EndChar

StartChar: ograve
Encoding: 242 242 140
Width: 500
Flags: W
LayerCount: 2
Fore
SplineSet
303 464 m 1,0,1
 322 459 322 459 341.5 451 c 128,-1,2
 361 443 361 443 378.5 430.5 c 128,-1,3
 396 418 396 418 408.5 400.5 c 128,-1,4
 421 383 421 383 425 361 c 0,5,6
 427 350 427 350 427 327 c 128,-1,7
 427 304 427 304 426.5 277.5 c 128,-1,8
 426 251 426 251 425 226 c 128,-1,9
 424 201 424 201 423 188 c 0,10,11
 421 159 421 159 405.5 126 c 128,-1,12
 390 93 390 93 359.5 64.5 c 128,-1,13
 329 36 329 36 282 17.5 c 128,-1,14
 235 -1 235 -1 169 -1 c 0,15,16
 121 -1 121 -1 90.5 12 c 128,-1,17
 60 25 60 25 43 43.5 c 128,-1,18
 26 62 26 62 18.5 81.5 c 128,-1,19
 11 101 11 101 9 114 c 0,20,21
 6 128 6 128 6 159 c 128,-1,22
 6 190 6 190 6 222 c 0,23,24
 6 260 6 260 8 304 c 1,25,26
 17 341 17 341 39 370 c 128,-1,27
 61 399 61 399 89.5 420 c 128,-1,28
 118 441 118 441 151 453 c 128,-1,29
 184 465 184 465 216 468 c 1,30,-1
 214 342 l 1,31,32
 210 338 210 338 206 333 c 128,-1,33
 202 328 202 328 199 320 c 0,34,35
 193 305 193 305 190.5 284 c 128,-1,36
 188 263 188 263 187 242 c 128,-1,37
 186 221 186 221 186 203 c 128,-1,38
 186 185 186 185 186 175 c 0,39,40
 186 171 186 171 187 166 c 128,-1,41
 188 161 188 161 193 156.5 c 128,-1,42
 198 152 198 152 207.5 148.5 c 128,-1,43
 217 145 217 145 234 145 c 0,44,45
 277 145 277 145 295.5 161 c 128,-1,46
 314 177 314 177 317 189 c 0,47,48
 318 195 318 195 320 212.5 c 128,-1,49
 322 230 322 230 323 250 c 128,-1,50
 324 270 324 270 325 289 c 128,-1,51
 326 308 326 308 327 316 c 1,52,53
 327 332 327 332 316.5 347.5 c 128,-1,54
 306 363 306 363 280 363 c 0,55,56
 267 363 267 363 256.5 360.5 c 128,-1,57
 246 358 246 358 239 355 c 0,58,59
 231 351 231 351 224 347 c 1,60,-1
 226 594 l 1,61,-1
 336 594 l 1,62,-1
 303 464 l 1,0,1
EndSplineSet
EndChar

StartChar: ocircumflex
Encoding: 244 244 141
Width: 500
Flags: W
LayerCount: 2
Fore
SplineSet
258 623 m 1,0,-1
 372 577 l 1,1,-1
 376 482 l 1,2,-1
 262 517 l 1,3,-1
 216 468 l 1,4,-1
 215 343 l 1,5,6
 211 339 211 339 206.5 333.5 c 128,-1,7
 202 328 202 328 199 320 c 0,8,9
 193 305 193 305 190.5 284 c 128,-1,10
 188 263 188 263 187 242 c 128,-1,11
 186 221 186 221 186 203 c 128,-1,12
 186 185 186 185 186 175 c 0,13,14
 186 171 186 171 187 166 c 128,-1,15
 188 161 188 161 193 156.5 c 128,-1,16
 198 152 198 152 207.5 148.5 c 128,-1,17
 217 145 217 145 234 145 c 0,18,19
 277 145 277 145 295.5 161 c 128,-1,20
 314 177 314 177 317 189 c 0,21,22
 318 195 318 195 320 212.5 c 128,-1,23
 322 230 322 230 323 250 c 128,-1,24
 324 270 324 270 325 289 c 128,-1,25
 326 308 326 308 327 316 c 1,26,27
 327 332 327 332 316.5 347.5 c 128,-1,28
 306 363 306 363 280 363 c 0,29,30
 267 363 267 363 257 360.5 c 128,-1,31
 247 358 247 358 240 355 c 0,32,33
 232 351 232 351 225 347 c 1,34,-1
 226 468 l 1,35,-1
 251 472 l 2,36,37
 253 472 253 472 256 472 c 0,38,39
 266 472 266 472 288 468 c 0,40,41
 314 464 314 464 343 451 c 128,-1,42
 372 438 372 438 395.5 416 c 128,-1,43
 419 394 419 394 425 361 c 0,44,45
 427 350 427 350 427 327 c 128,-1,46
 427 304 427 304 426.5 277.5 c 128,-1,47
 426 251 426 251 425 226 c 128,-1,48
 424 201 424 201 423 188 c 0,49,50
 421 159 421 159 405.5 126 c 128,-1,51
 390 93 390 93 359.5 64.5 c 128,-1,52
 329 36 329 36 282 17.5 c 128,-1,53
 235 -1 235 -1 169 -1 c 0,54,55
 121 -1 121 -1 90.5 12 c 128,-1,56
 60 25 60 25 43 43.5 c 128,-1,57
 26 62 26 62 18.5 81.5 c 128,-1,58
 11 101 11 101 9 114 c 0,59,60
 6 128 6 128 6 159 c 128,-1,61
 6 190 6 190 6 222 c 0,62,63
 6 260 6 260 8 304 c 1,64,65
 21 357 21 357 56.5 391 c 128,-1,66
 92 425 92 425 137 445 c 1,67,-1
 135 521 l 1,68,-1
 258 623 l 1,0,-1
EndSplineSet
EndChar

StartChar: otilde
Encoding: 245 245 143
Width: 504
Flags: W
LayerCount: 2
Fore
SplineSet
132 556 m 1,0,1
 152 569 152 569 180 583 c 128,-1,2
 208 597 208 597 234 602 c 0,3,4
 259 607 259 607 287 607.5 c 128,-1,5
 315 608 315 608 333 614 c 0,6,7
 343 617 343 617 352.5 622 c 128,-1,8
 362 627 362 627 371 632 c 0,9,10
 381 637 381 637 391 644 c 1,11,-1
 391 525 l 1,12,13
 384 519 384 519 375 515 c 0,14,15
 368 511 368 511 359 506.5 c 128,-1,16
 350 502 350 502 340 500 c 0,17,18
 329 497 329 497 313.5 495.5 c 128,-1,19
 298 494 298 494 282 492.5 c 128,-1,20
 266 491 266 491 253 490 c 128,-1,21
 240 489 240 489 236 488 c 0,22,23
 230 486 230 486 226 482.5 c 128,-1,24
 222 479 222 479 219 476 c 0,25,26
 216 472 216 472 213 468 c 1,27,-1
 212 342 l 1,28,29
 208 338 208 338 205 333 c 128,-1,30
 202 328 202 328 199 320 c 0,31,32
 193 305 193 305 190.5 284 c 128,-1,33
 188 263 188 263 187 242 c 128,-1,34
 186 221 186 221 186 203 c 128,-1,35
 186 185 186 185 186 175 c 0,36,37
 186 171 186 171 187 166 c 128,-1,38
 188 161 188 161 193 156.5 c 128,-1,39
 198 152 198 152 207.5 148.5 c 128,-1,40
 217 145 217 145 234 145 c 0,41,42
 277 145 277 145 295.5 161 c 128,-1,43
 314 177 314 177 317 189 c 0,44,45
 318 195 318 195 320 212.5 c 128,-1,46
 322 230 322 230 323 250 c 128,-1,47
 324 270 324 270 325 289 c 128,-1,48
 326 308 326 308 327 316 c 1,49,50
 327 332 327 332 316.5 347.5 c 128,-1,51
 306 363 306 363 280 363 c 0,52,53
 263 363 263 363 251.5 360.5 c 128,-1,54
 240 358 240 358 234 355 c 0,55,56
 226 351 226 351 222 347 c 1,57,-1
 223 469 l 1,58,-1
 251 472 l 2,59,60
 253 472 253 472 255 472 c 0,61,62
 266 472 266 472 288 468 c 0,63,64
 314 463 314 463 343 450.5 c 128,-1,65
 372 438 372 438 395.5 416 c 128,-1,66
 419 394 419 394 425 361 c 0,67,68
 427 350 427 350 427 327 c 128,-1,69
 427 304 427 304 426.5 277.5 c 128,-1,70
 426 251 426 251 425 226 c 128,-1,71
 424 201 424 201 423 188 c 0,72,73
 421 159 421 159 405.5 126 c 128,-1,74
 390 93 390 93 359.5 64.5 c 128,-1,75
 329 36 329 36 282 17.5 c 128,-1,76
 235 -1 235 -1 169 -1 c 0,77,78
 121 -1 121 -1 90.5 12 c 128,-1,79
 60 25 60 25 43 43.5 c 128,-1,80
 26 62 26 62 18.5 81.5 c 128,-1,81
 11 101 11 101 9 114 c 0,82,83
 6 128 6 128 6 159 c 128,-1,84
 6 190 6 190 6 222 c 0,85,86
 6 260 6 260 8 304 c 1,87,88
 20 355 20 355 55.5 388.5 c 128,-1,89
 91 422 91 422 134 442 c 1,90,-1
 132 556 l 1,0,1
EndSplineSet
EndChar

StartChar: odieresis
Encoding: 246 246 142
Width: 500
Flags: W
LayerCount: 2
Fore
SplineSet
359 443 m 1,0,1
 381 429 381 429 400.5 408.5 c 128,-1,2
 420 388 420 388 425 361 c 0,3,4
 427 350 427 350 427 327 c 128,-1,5
 427 304 427 304 426.5 277.5 c 128,-1,6
 426 251 426 251 425 226 c 128,-1,7
 424 201 424 201 423 188 c 0,8,9
 421 159 421 159 405.5 126 c 128,-1,10
 390 93 390 93 359.5 64.5 c 128,-1,11
 329 36 329 36 282 17.5 c 128,-1,12
 235 -1 235 -1 169 -1 c 0,13,14
 121 -1 121 -1 90.5 12 c 128,-1,15
 60 25 60 25 43 43.5 c 128,-1,16
 26 62 26 62 18.5 81.5 c 128,-1,17
 11 101 11 101 9 114 c 0,18,19
 6 128 6 128 6 159 c 128,-1,20
 6 190 6 190 6 222 c 0,21,22
 6 260 6 260 8 304 c 1,23,24
 15 334 15 334 31 357.5 c 128,-1,25
 47 381 47 381 68 400 c 128,-1,26
 89 419 89 419 114 432.5 c 128,-1,27
 139 446 139 446 165 455 c 1,28,-1
 163 485 l 1,29,-1
 101 486 l 1,30,-1
 99 594 l 1,31,-1
 234 594 l 1,32,-1
 235 486 l 1,33,-1
 213 486 l 1,34,-1
 213 469 l 1,35,-1
 214 469 l 1,36,-1
 214 342 l 1,37,38
 210 338 210 338 205 333 c 128,-1,39
 200 328 200 328 199 320 c 1,40,41
 193 305 193 305 190.5 284 c 128,-1,42
 188 263 188 263 187 242 c 128,-1,43
 186 221 186 221 186 203 c 128,-1,44
 186 185 186 185 186 175 c 0,45,46
 186 171 186 171 187 166 c 128,-1,47
 188 161 188 161 193 156.5 c 128,-1,48
 198 152 198 152 207.5 148.5 c 128,-1,49
 217 145 217 145 234 145 c 0,50,51
 277 145 277 145 295.5 161 c 128,-1,52
 314 177 314 177 317 189 c 0,53,54
 318 195 318 195 320 212.5 c 128,-1,55
 322 230 322 230 323 250 c 128,-1,56
 324 270 324 270 325 289 c 128,-1,57
 326 308 326 308 327 316 c 1,58,59
 327 332 327 332 316.5 347.5 c 128,-1,60
 306 363 306 363 280 363 c 0,61,62
 265 363 265 363 254 360.5 c 128,-1,63
 243 358 243 358 237 355 c 0,64,65
 229 351 229 351 224 347 c 1,66,-1
 224 470 l 1,67,-1
 251 472 l 2,68,69
 259 473 259 473 274 471.5 c 128,-1,70
 289 470 289 470 310 464 c 1,71,-1
 310 485 l 1,72,-1
 252 486 l 1,73,-1
 250 594 l 1,74,-1
 384 594 l 1,75,-1
 385 486 l 1,76,-1
 360 486 l 1,77,-1
 359 443 l 1,0,1
EndSplineSet
EndChar

StartChar: divide
Encoding: 247 247 201
Width: 463
Flags: W
LayerCount: 2
Fore
SplineSet
259 456 m 1,0,-1
 263 322 l 1,1,-1
 116 322 l 1,2,-1
 117 456 l 1,3,-1
 259 456 l 1,0,-1
268 133 m 1,4,-1
 267 0 l 1,5,-1
 120 0 l 1,6,-1
 121 133 l 1,7,-1
 268 133 l 1,4,-1
17 292 m 1,8,-1
 376 292 l 1,9,-1
 369 162 l 1,10,-1
 15 162 l 1,11,-1
 17 292 l 1,8,-1
EndSplineSet
EndChar

StartChar: oslash
Encoding: 248 248 179
Width: 585
Flags: W
LayerCount: 2
Fore
SplineSet
46 59 m 1,0,1
 36 74 36 74 31.5 88.5 c 128,-1,2
 27 103 27 103 24 114 c 1,3,4
 22 128 22 128 21.5 159 c 128,-1,5
 21 190 21 190 21 222 c 0,6,7
 21 260 21 260 23 304 c 1,8,9
 34 340 34 340 55.5 368 c 128,-1,10
 77 396 77 396 104.5 416 c 128,-1,11
 132 436 132 436 163 449 c 128,-1,12
 194 462 194 462 224 468 c 1,13,-1
 232 342 l 1,14,15
 222 332 222 332 217.5 321 c 128,-1,16
 213 310 213 310 211.5 299 c 128,-1,17
 210 288 210 288 210 279 c 128,-1,18
 210 270 210 270 210 264 c 0,19,20
 207 241 207 241 206 223 c 1,21,22
 204 207 204 207 203 192.5 c 128,-1,23
 202 178 202 178 201 175 c 1,24,25
 202 171 202 171 202 166 c 128,-1,26
 202 161 202 161 206 156 c 128,-1,27
 210 151 210 151 220 148 c 128,-1,28
 230 145 230 145 250 145 c 128,-1,29
 270 145 270 145 283.5 150.5 c 128,-1,30
 297 156 297 156 306 163 c 128,-1,31
 315 170 315 170 320 177 c 128,-1,32
 325 184 325 184 328 189 c 128,-1,33
 331 194 331 194 334 211.5 c 128,-1,34
 337 229 337 229 339 250 c 0,35,36
 341 270 341 270 342 290 c 2,37,-1
 344 321 l 2,38,39
 344 335 344 335 335 349 c 128,-1,40
 326 363 326 363 299 363 c 0,41,42
 297 363 297 363 295 363 c 0,43,44
 279 362 279 362 269 359.5 c 128,-1,45
 259 357 259 357 253 354 c 0,46,47
 246 350 246 350 242 345 c 1,48,-1
 235 469 l 1,49,-1
 266 472 l 2,50,51
 274 473 274 473 289.5 470.5 c 128,-1,52
 305 468 305 468 323 462 c 1,53,-1
 357 541 l 1,54,-1
 477 510 l 1,55,-1
 429 392 l 1,56,57
 437 378 437 378 440 361 c 0,58,59
 442 352 442 352 442 336 c 0,60,61
 442 332 442 332 442 327 c 0,62,63
 442 304 442 304 440.5 277.5 c 128,-1,64
 439 251 439 251 437.5 226 c 128,-1,65
 436 201 436 201 434 188 c 0,66,67
 431 159 431 159 414.5 127 c 128,-1,68
 398 95 398 95 367.5 67.5 c 128,-1,69
 337 40 337 40 291.5 21.5 c 128,-1,70
 246 3 246 3 184 2 c 0,71,72
 179 1 179 1 174 1.5 c 128,-1,73
 169 2 169 2 164 2 c 1,74,75
 158 -8 158 -8 152.5 -17 c 128,-1,76
 147 -26 147 -26 142 -34 c 0,77,78
 136 -43 136 -43 132 -51 c 1,79,-1
 26 19 l 1,80,-1
 46 59 l 1,0,1
EndSplineSet
EndChar

StartChar: ugrave
Encoding: 249 249 145
Width: 608
Flags: W
LayerCount: 2
Fore
SplineSet
72 594 m 1,0,-1
 218 594 l 1,1,-1
 275 431 l 1,2,-1
 208 431 l 1,3,4
 207 402 207 402 205.5 359.5 c 128,-1,5
 204 317 204 317 202.5 276 c 128,-1,6
 201 235 201 235 200 202.5 c 128,-1,7
 199 170 199 170 199 162 c 0,8,9
 199 148 199 148 204 139 c 128,-1,10
 209 130 209 130 218 125 c 128,-1,11
 227 120 227 120 239 118 c 128,-1,12
 251 116 251 116 263 116 c 0,13,14
 271 116 271 116 282 121 c 128,-1,15
 293 126 293 126 304 134 c 128,-1,16
 315 142 315 142 322 153 c 128,-1,17
 329 164 329 164 330 175 c 0,18,19
 330 182 330 182 331 198.5 c 128,-1,20
 332 215 332 215 332.5 237 c 128,-1,21
 333 259 333 259 334 285 c 128,-1,22
 335 311 335 311 336 337 c 0,23,24
 337 398 337 398 341 469 c 1,25,-1
 508 469 l 1,26,-1
 507 0 l 1,27,-1
 331 0 l 1,28,-1
 332 47 l 1,29,30
 317 40 317 40 300.5 32 c 128,-1,31
 284 24 284 24 265 16.5 c 128,-1,32
 246 9 246 9 222.5 4 c 128,-1,33
 199 -1 199 -1 170 -1 c 0,34,35
 126 -1 126 -1 97.5 11.5 c 128,-1,36
 69 24 69 24 52.5 44.5 c 128,-1,37
 36 65 36 65 29.5 90 c 128,-1,38
 23 115 23 115 23 140 c 0,39,40
 23 144 23 144 23 160.5 c 128,-1,41
 23 177 23 177 23 201 c 128,-1,42
 23 225 23 225 23 254 c 128,-1,43
 23 283 23 283 23 313 c 0,44,45
 23 383 23 383 25 469 c 1,46,-1
 156 469 l 1,47,-1
 72 594 l 1,0,-1
EndSplineSet
EndChar

StartChar: uacute
Encoding: 250 250 144
Width: 608
Flags: W
LayerCount: 2
Fore
SplineSet
166 594 m 1,0,-1
 300 594 l 1,1,-1
 256 417 l 1,2,-1
 207 417 l 1,3,4
 206 386 206 386 204.5 345 c 128,-1,5
 203 304 203 304 202 266 c 128,-1,6
 201 228 201 228 200 198.5 c 128,-1,7
 199 169 199 169 199 162 c 0,8,9
 199 148 199 148 204 139 c 128,-1,10
 209 130 209 130 218 125 c 128,-1,11
 227 120 227 120 239 118 c 128,-1,12
 251 116 251 116 263 116 c 0,13,14
 271 116 271 116 282 121 c 128,-1,15
 293 126 293 126 304 134 c 128,-1,16
 315 142 315 142 322 153 c 128,-1,17
 329 164 329 164 330 175 c 0,18,19
 330 182 330 182 331 198.5 c 128,-1,20
 332 215 332 215 332.5 237 c 128,-1,21
 333 259 333 259 334 285 c 128,-1,22
 335 311 335 311 336 337 c 0,23,24
 337 398 337 398 341 469 c 1,25,-1
 508 469 l 1,26,-1
 507 0 l 1,27,-1
 331 0 l 1,28,-1
 332 47 l 1,29,30
 317 40 317 40 300.5 32 c 128,-1,31
 284 24 284 24 265 16.5 c 128,-1,32
 246 9 246 9 222.5 4 c 128,-1,33
 199 -1 199 -1 170 -1 c 0,34,35
 126 -1 126 -1 97.5 11.5 c 128,-1,36
 69 24 69 24 52.5 44.5 c 128,-1,37
 36 65 36 65 29.5 90 c 128,-1,38
 23 115 23 115 23 140 c 0,39,40
 23 144 23 144 23 160.5 c 128,-1,41
 23 177 23 177 23 201 c 128,-1,42
 23 225 23 225 23 254 c 128,-1,43
 23 283 23 283 23 313 c 0,44,45
 23 383 23 383 25 469 c 1,46,-1
 162 469 l 1,47,-1
 166 594 l 1,0,-1
EndSplineSet
EndChar

StartChar: ucircumflex
Encoding: 251 251 146
Width: 608
Flags: W
LayerCount: 2
Fore
SplineSet
117 523 m 1,0,-1
 222 619 l 1,1,-1
 354 570 l 1,2,-1
 353 491 l 1,3,-1
 230 519 l 1,4,-1
 170 469 l 1,5,-1
 209 469 l 1,6,-1
 208 448 l 2,7,8
 207 427 207 427 206.5 395 c 128,-1,9
 206 363 206 363 204 325.5 c 128,-1,10
 202 288 202 288 201 254 c 128,-1,11
 200 220 200 220 199.5 194.5 c 128,-1,12
 199 169 199 169 199 162 c 0,13,14
 199 148 199 148 204 139 c 128,-1,15
 209 130 209 130 218 125 c 128,-1,16
 227 120 227 120 239 118 c 128,-1,17
 251 116 251 116 263 116 c 0,18,19
 271 116 271 116 282 121 c 128,-1,20
 293 126 293 126 304 134 c 128,-1,21
 315 142 315 142 322 153 c 128,-1,22
 329 164 329 164 330 175 c 0,23,24
 330 182 330 182 331 198.5 c 128,-1,25
 332 215 332 215 332.5 237 c 128,-1,26
 333 259 333 259 334 285 c 128,-1,27
 335 311 335 311 336 337 c 0,28,29
 337 398 337 398 341 469 c 1,30,-1
 508 469 l 1,31,-1
 507 0 l 1,32,-1
 331 0 l 1,33,-1
 332 47 l 1,34,35
 317 40 317 40 300.5 32 c 128,-1,36
 284 24 284 24 265 16.5 c 128,-1,37
 246 9 246 9 222.5 4 c 128,-1,38
 199 -1 199 -1 170 -1 c 0,39,40
 126 -1 126 -1 97.5 11.5 c 128,-1,41
 69 24 69 24 52.5 44.5 c 128,-1,42
 36 65 36 65 29.5 90 c 128,-1,43
 23 115 23 115 23 140 c 0,44,45
 23 144 23 144 23 160.5 c 128,-1,46
 23 177 23 177 23 201 c 128,-1,47
 23 225 23 225 23 254 c 128,-1,48
 23 283 23 283 23 313 c 0,49,50
 23 383 23 383 25 469 c 1,51,-1
 119 469 l 1,52,-1
 117 523 l 1,0,-1
EndSplineSet
EndChar

StartChar: udieresis
Encoding: 252 252 147
Width: 608
Flags: W
LayerCount: 2
Fore
SplineSet
352 594 m 1,0,-1
 524 594 l 1,1,-1
 525 470 l 1,2,-1
 467 469 l 1,3,-1
 465 445 l 1,4,-1
 507 445 l 1,5,-1
 507 0 l 1,6,-1
 331 0 l 1,7,-1
 332 47 l 1,8,9
 317 40 317 40 300.5 32 c 128,-1,10
 284 24 284 24 265 16.5 c 128,-1,11
 246 9 246 9 222.5 4 c 128,-1,12
 199 -1 199 -1 170 -1 c 0,13,14
 126 -1 126 -1 98.5 11.5 c 128,-1,15
 71 24 71 24 55.5 44.5 c 128,-1,16
 40 65 40 65 34 90 c 128,-1,17
 28 115 28 115 28 140 c 0,18,19
 28 144 28 144 27.5 159.5 c 128,-1,20
 27 175 27 175 27 197 c 128,-1,21
 27 219 27 219 27 246 c 128,-1,22
 27 273 27 273 27 301 c 0,23,24
 27 366 27 366 27 446 c 1,25,-1
 105 446 l 1,26,-1
 106 469 l 1,27,-1
 43 469 l 1,28,-1
 43 594 l 1,29,-1
 228 594 l 1,30,-1
 229 470 l 1,31,-1
 164 469 l 1,32,-1
 162 446 l 1,33,-1
 206 446 l 1,34,-1
 206 426 l 2,35,36
 206 406 206 406 205 377.5 c 128,-1,37
 204 349 204 349 203 314 c 128,-1,38
 202 279 202 279 201 247.5 c 128,-1,39
 200 216 200 216 199.5 192.5 c 128,-1,40
 199 169 199 169 199 162 c 0,41,42
 199 148 199 148 204 139 c 128,-1,43
 209 130 209 130 218 125 c 128,-1,44
 227 120 227 120 239 118 c 128,-1,45
 251 116 251 116 263 116 c 0,46,47
 271 116 271 116 282 121 c 128,-1,48
 293 126 293 126 304 134 c 128,-1,49
 315 142 315 142 322 153 c 128,-1,50
 329 164 329 164 330 175 c 0,51,52
 330 182 330 182 331 197.5 c 128,-1,53
 332 213 332 213 332.5 233.5 c 128,-1,54
 333 254 333 254 333.5 277.5 c 128,-1,55
 334 301 334 301 336 325 c 1,56,57
 338 380 338 380 340 445 c 1,58,-1
 408 445 l 1,59,-1
 409 469 l 1,60,-1
 352 469 l 1,61,-1
 352 594 l 1,0,-1
EndSplineSet
EndChar

StartChar: yacute
Encoding: 253 253 7
Width: 651
Flags: W
LayerCount: 2
Fore
SplineSet
260 594 m 1,0,-1
 217 405 l 1,1,-1
 195 405 l 1,2,3
 194 379 194 379 193 346.5 c 128,-1,4
 192 314 192 314 192 281 c 128,-1,5
 192 248 192 248 191.5 217 c 128,-1,6
 191 186 191 186 191 163 c 0,7,8
 191 150 191 150 198 140 c 128,-1,9
 205 130 205 130 215.5 123 c 128,-1,10
 226 116 226 116 238 112.5 c 128,-1,11
 250 109 250 109 261 109 c 0,12,13
 303 109 303 109 328.5 136 c 128,-1,14
 354 163 354 163 354 207 c 2,15,-1
 355 469 l 1,16,-1
 541 469 l 1,17,-1
 534 -52 l 2,18,19
 533 -86 533 -86 517 -113.5 c 128,-1,20
 501 -141 501 -141 475 -160.5 c 128,-1,21
 449 -180 449 -180 415.5 -190.5 c 128,-1,22
 382 -201 382 -201 346 -201 c 0,23,24
 279 -201 279 -201 210.5 -182.5 c 128,-1,25
 142 -164 142 -164 78 -132 c 1,26,27
 75 -120 75 -120 76 -108 c 128,-1,28
 77 -96 77 -96 76 -83 c 1,29,30
 112 -91 112 -91 151 -100 c 0,31,32
 180 -107 180 -107 211 -107 c 0,33,34
 221 -107 221 -107 231 -106 c 0,35,36
 277 -103 277 -103 304.5 -95 c 128,-1,37
 332 -87 332 -87 347 -70.5 c 128,-1,38
 362 -54 362 -54 365 -28 c 0,39,40
 367 -15 367 -15 366.5 2 c 128,-1,41
 366 19 366 19 365 39 c 1,42,43
 331 15 331 15 297 -3 c 128,-1,44
 263 -21 263 -21 219 -24 c 0,45,46
 211 -24 211 -24 204 -24 c 0,47,48
 179 -24 179 -24 154 -20 c 0,49,50
 122 -14 122 -14 94.5 3 c 128,-1,51
 67 20 67 20 46.5 45.5 c 128,-1,52
 26 71 26 71 18 106 c 1,53,-1
 19 469 l 1,54,-1
 120 469 l 1,55,-1
 119 594 l 1,56,-1
 260 594 l 1,0,-1
EndSplineSet
EndChar

StartChar: thorn
Encoding: 254 254 9
Width: 597
Flags: W
LayerCount: 2
Fore
SplineSet
200 -103 m 1,0,-1
 52 -103 l 1,1,-1
 57 563 l 1,2,-1
 207 564 l 1,3,-1
 202 121 l 1,4,5
 203 119 203 119 208.5 114 c 128,-1,6
 214 109 214 109 222 104 c 128,-1,7
 230 99 230 99 241.5 94.5 c 128,-1,8
 253 90 253 90 266 90 c 0,9,10
 286 90 286 90 299 96 c 128,-1,11
 312 102 312 102 320 110.5 c 128,-1,12
 328 119 328 119 331.5 127.5 c 128,-1,13
 335 136 335 136 338 142 c 0,14,15
 340 147 340 147 340.5 161 c 128,-1,16
 341 175 341 175 341.5 191 c 128,-1,17
 342 207 342 207 342.5 220.5 c 128,-1,18
 343 234 343 234 343 239 c 0,19,20
 344 248 344 248 341.5 266.5 c 128,-1,21
 339 285 339 285 331 297 c 1,22,23
 324 310 324 310 312 314 c 0,24,25
 304 316 304 316 293 316 c 0,26,27
 287 316 287 316 279 315 c 0,28,29
 269 314 269 314 258.5 309 c 128,-1,30
 248 304 248 304 238 297 c 0,31,32
 227 289 227 289 217 279 c 1,33,-1
 217 406 l 1,34,35
 234 421 234 421 253 433 c 0,36,37
 270 444 270 444 294.5 453 c 128,-1,38
 319 462 319 462 349 464 c 0,39,40
 351 464 351 464 353 464 c 0,41,42
 370 464 370 464 394 456 c 0,43,44
 421 448 421 448 447 431.5 c 128,-1,45
 473 415 473 415 493.5 390.5 c 128,-1,46
 514 366 514 366 519 335 c 0,47,48
 525 294 525 294 525 257 c 0,49,50
 524 242 524 242 524 228 c 0,51,52
 520 178 520 178 516 143 c 0,53,54
 515 132 515 132 505 108 c 128,-1,55
 495 84 495 84 474 59 c 128,-1,56
 453 34 453 34 419.5 15.5 c 128,-1,57
 386 -3 386 -3 338 -3 c 0,58,59
 281 -3 281 -3 249 8.5 c 128,-1,60
 217 20 217 20 201 29 c 1,61,-1
 200 -103 l 1,0,-1
EndSplineSet
EndChar
